<?xml version="1.0" encoding="UTF-8" standalone="no"?>
<!-- Created with Inkscape (http://www.inkscape.org/) -->

<svg
   version="1.1"
   id="svg228"
   width="200pt"
   height="200pt"
   viewBox="0 0 200 200"
   xmlns="http://www.w3.org/2000/svg"
   xmlns:svg="http://www.w3.org/2000/svg">
  <defs
     id="defs232" />
  <g
     id="g236"
     transform="matrix(1.3333333,0,0,-1.3333333,0,600)">
    <g
       id="g238"
       transform="matrix(0.1213995,0,0,0.1213995,-376.12295,112.07359)"
       style="stroke-width:0.817241;stroke-dasharray:none">
      <path
         d="m 3891.21,1687.93 -167.41,85.32 v 192.34 c 9.57,0.2 19.14,0.61 28.7,1.43 4.46,0.41 8.42,0.77 11.2,1.1 4.21,0.49 8.38,1.06 12.55,1.72 l 7.57,-17.46 c 2,-4.58 6.86,-7.03 11.61,-6.21 z m -42.56,-6.95 10.55,5.36 10.55,-5.36 z m -32.05,0 26.61,13.53 10.14,-5.19 -16.43,-8.34 z m -32.09,0 42.68,21.67 10.14,-5.15 -32.5,-16.52 z m -32.05,0 58.75,29.8 10.13,-5.15 -48.56,-24.65 z m -32.05,0 74.77,37.98 10.14,-5.15 -64.59,-32.83 z m -32.05,0 90.84,46.11 10.14,-5.15 -80.66,-40.96 z m -32.05,0 106.86,54.29 10.14,-5.19 -96.68,-49.1 z m -32.05,0 122.93,62.43 10.14,-5.16 -112.75,-57.27 z m -32.05,0 138.95,70.6 10.14,-5.19 -128.77,-65.41 z m -30.33,0 153.91,78.41 9.53,-4.82 -144.84,-73.59 z m -21.46,6.99 95.78,258.2 c 4.74,-0.82 9.61,1.63 11.57,6.21 l 7.6,17.46 c 4.17,-0.66 8.34,-1.23 12.55,-1.72 2.78,-0.33 6.75,-0.69 11.2,-1.1 9.53,-0.82 19.14,-1.23 28.7,-1.43 v -192.34 z m 126.73,647.42 c 2.12,0.45 4.21,1.14 6.25,2.04 7.07,3.15 19.05,6.62 42.39,6.62 23.39,0 35.36,-3.47 42.44,-6.62 2,-0.9 4.12,-1.59 6.25,-2.04 v -25.76 c -15.29,1.06 -31.48,1.56 -48.69,1.56 -17.17,0 -33.36,-0.5 -48.64,-1.56 z m 353.4,-221.08 c -1.23,5.76 -5.64,10.55 -11.28,12.18 -6.22,1.84 -11.98,0.04 -16.03,-3.6 h -41.78 c 1.56,5.89 2.83,11.57 3.89,17.09 h 0.2 c 9.45,0 17.09,7.65 17.09,17.09 0,9.4 -7.64,17.05 -17.09,17.05 h -0.82 c -29.39,92.96 -86.29,126.23 -179.58,134.69 v 26.7 c 6.09,1.96 10.55,7.6 10.55,14.39 0,6.46 -4.05,12.3 -10.22,14.35 -21.87,7.11 -59.69,7.19 -59.69,7.19 0,0 -37.77,-0.08 -59.64,-7.19 -6.17,-2.05 -10.22,-7.89 -10.22,-14.35 0,-6.79 4.45,-12.43 10.55,-14.39 v -26.7 c -93.33,-8.46 -150.2,-41.73 -179.59,-134.69 h -0.82 c -9.44,0 -17.08,-7.65 -17.08,-17.09 0,-9.4 7.64,-17.05 17.04,-17.05 h 0.21 c 1.06,-5.48 2.33,-11.2 3.92,-17.09 h -41.37 c -4.05,3.64 -9.81,5.44 -16.02,3.6 -5.65,-1.63 -10.06,-6.42 -11.29,-12.18 -2.33,-10.79 5.85,-20.32 16.19,-20.32 4.29,0 8.18,1.68 11.12,4.37 h 49.3 c 17.09,-44.1 51.43,-91.69 120.23,-116.63 l -4.46,-10.22 c -2.37,-5.39 0.13,-11.69 5.52,-14.02 l 2.29,-0.98 -1.88,-5.07 -94.92,-255.7 -2.7,-7.28 v -0.04 c 2,-0.41 4.01,-0.86 5.93,-1.39 1.96,-0.57 3.88,-1.18 5.76,-1.88 11.24,-4.25 21.14,-11.24 28.86,-20.15 h 347.03 l 22.11,-59.64 -1.05,-0.46 c -3.29,-1.43 -5.07,-5.02 -4.22,-8.5 l 10.61,-43.39 c 1.09,-4.44 5.9,-6.83 10.09,-5.01 l 38.01,16.52 c 4.18,1.83 5.72,6.98 3.22,10.8 l -24.5,37.35 c -1.69,2.57 -4.75,3.77 -7.67,3.15 l -1.63,4.41 -122.89,331.21 -1.88,5.07 2.29,0.98 c 5.4,2.33 7.85,8.63 5.52,14.02 l -4.45,10.22 c 68.8,24.94 103.14,72.53 120.18,116.63 h 49.75 c 2.95,-2.69 6.83,-4.37 11.12,-4.37 10.35,0 18.52,9.53 16.19,20.32"
         style="fill:#4d4d4d;fill-opacity:1;fill-rule:nonzero;stroke:none;stroke-width:0.817241;stroke-dasharray:none"
         id="path616" />
      <path
         d="m 3570.1,1618.5 c 0,-39.32 -31.87,-71.19 -71.18,-71.19 -39.32,0 -71.19,31.87 -71.19,71.19 0,39.31 31.87,71.18 71.19,71.18 39.31,0 71.18,-31.87 71.18,-71.18"
         style="fill:#4d4d4d;fill-opacity:1;fill-rule:nonzero;stroke:none;stroke-width:0.817241;stroke-dasharray:none"
         id="path618" />
      <path
         d="m 3498.92,1637.97 c 2.42,0 4.73,-0.5 6.87,-1.32 l 7.7,20.31 c -4.54,1.73 -9.44,2.71 -14.57,2.71 -5.14,0 -10.04,-0.98 -14.57,-2.71 l 7.69,-20.31 c 2.14,0.82 4.45,1.32 6.88,1.32"
         style="fill:#ffffff;fill-opacity:1;fill-rule:nonzero;stroke:none;stroke-width:0.817241;stroke-dasharray:none"
         id="path620" />
      <path
         d="m 3479.44,1618.5 c 0,4.61 1.68,8.79 4.36,12.12 l -16.97,13.62 c -5.67,-7.06 -9.09,-16 -9.09,-25.74 0,-0.67 0.07,-1.32 0.1,-1.97 l 21.7,1.04 c -0.02,0.31 -0.1,0.61 -0.1,0.93"
         style="fill:#ffffff;fill-opacity:1;fill-rule:nonzero;stroke:none;stroke-width:0.817241;stroke-dasharray:none"
         id="path622" />
      <path
         d="m 3482.65,1607.83 -18.14,-11.89 c 5.45,-8.28 13.79,-14.45 23.58,-17.13 l 5.72,20.98 c -4.62,1.26 -8.58,4.13 -11.16,8.04"
         style="fill:#ffffff;fill-opacity:1;fill-rule:nonzero;stroke:none;stroke-width:0.817241;stroke-dasharray:none"
         id="path624" />
      <path
         d="m 3533.32,1595.94 -18.14,11.89 c -2.58,-3.91 -6.54,-6.78 -11.16,-8.04 l 5.72,-20.98 c 9.79,2.68 18.13,8.85 23.58,17.13"
         style="fill:#ffffff;fill-opacity:1;fill-rule:nonzero;stroke:none;stroke-width:0.817241;stroke-dasharray:none"
         id="path626" />
      <path
         d="m 3518.39,1618.5 c 0,-0.32 -0.08,-0.62 -0.1,-0.93 l 21.7,-1.04 c 0.03,0.65 0.1,1.3 0.1,1.97 0,9.74 -3.41,18.68 -9.09,25.74 l -16.97,-13.62 c 2.68,-3.33 4.36,-7.51 4.36,-12.12"
         style="fill:#ffffff;fill-opacity:1;fill-rule:nonzero;stroke:none;stroke-width:0.817241;stroke-dasharray:none"
         id="path628" />
      <path
         d="m 3507.55,1618.5 c 0,-4.77 -3.87,-8.64 -8.63,-8.64 -4.77,0 -8.64,3.87 -8.64,8.64 0,4.77 3.87,8.63 8.64,8.63 4.76,0 8.63,-3.86 8.63,-8.63"
         style="fill:#ffffff;fill-opacity:1;fill-rule:nonzero;stroke:none;stroke-width:0.817241;stroke-dasharray:none"
         id="path630" />
      <path
         d="m 3445.49,1618.5 c -0.91,30.17 22.67,56.26 53.56,56.08 30.78,-0.19 54.23,-25.83 53.29,-56.08 -3.45,27.79 -24.23,50.75 -53.56,50.77 -29.22,0.01 -49.87,-23.2 -53.29,-50.77"
         style="fill:#ffffff;fill-opacity:1;fill-rule:nonzero;stroke:none;stroke-width:0.817241;stroke-dasharray:none"
         id="path632" />
      <path
         d="m 3462.58,1579.41 c 10.79,-6.84 22.43,-11.5 35.38,-11.67 13.65,-0.19 25.92,4.48 37.29,11.67 -17.03,-22.67 -55.58,-22.41 -72.67,0"
         style="fill:#ffffff;fill-opacity:1;fill-rule:nonzero;stroke:none;stroke-width:0.817241;stroke-dasharray:none"
         id="path634" />
      <path
         d="m 3461.66,2157.04 c 0,7.95 6.46,14.42 14.41,14.42 h 479.47 c 7.96,0 14.42,-6.47 14.42,-14.42 0,-7.95 -6.46,-14.41 -14.42,-14.41 h -479.47 c -7.95,0 -14.41,6.46 -14.41,14.41 z m 493.69,-17.06 h 0.22 c 9.43,0 17.07,7.64 17.07,17.07 0,9.42 -7.64,17.07 -17.07,17.07 h -0.84 c -0.28,0.9 -0.59,1.76 -0.88,2.66 h -476.07 c -0.3,-0.9 -0.6,-1.76 -0.89,-2.66 h -0.82 c -9.43,0 -17.08,-7.66 -17.08,-17.09 0,-9.42 7.63,-17.05 17.04,-17.05 h 0.21 c 0.17,-0.87 0.38,-1.79 0.56,-2.68 h 477.99 c 0.18,0.89 0.39,1.8 0.56,2.68"
         style="fill:#ffffff;fill-opacity:1;fill-rule:nonzero;stroke:none;stroke-width:0.817241;stroke-dasharray:none"
         id="path636" />
      <path
         d="m 3946.35,1615.82 c -0.49,-0.08 -0.98,-0.25 -1.43,-0.45 l -16.31,-7.07 16.11,11.93 1.63,-4.41"
         style="fill:#ffffff;fill-opacity:1;fill-rule:nonzero;stroke:none;stroke-width:0.817241;stroke-dasharray:none"
         id="path638" />
      <path
         d="m 3508.56,2197.92 c 7.23,22.89 18.76,43.74 37.31,59.47 20.55,17.42 45.82,26.68 71.89,32.11 28.29,5.9 57.43,7.2 86.26,7.05 28.05,-0.14 56.27,-1.68 83.96,-6.41 24.92,-4.25 48.75,-11.41 70.88,-23.76 -45.97,17.6 -96.69,18.33 -145.29,16.85 -51.08,-1.55 -108.87,-3.88 -153.29,-32.35 -21.62,-13.86 -36.77,-32.5 -51.72,-52.96"
         style="display:inline;fill:#ffffff;fill-opacity:1;fill-rule:nonzero;stroke:none;stroke-width:0.817241;stroke-dasharray:none"
         id="path640" />
      <path
         d="m 3821.83,1951.44 -16.35,-1.22 14.47,6.29 z"
         style="fill:#ffffff;fill-opacity:1;fill-rule:nonzero;stroke:none;stroke-width:0.817241;stroke-dasharray:none"
         id="path642" />
      <path
         d="m 3626.14,1950.22 -16.35,1.22 1.88,5.07 z"
         style="fill:#ffffff;fill-opacity:1;fill-rule:nonzero;stroke:none;stroke-width:0.817241;stroke-dasharray:none"
         id="path644" />
      <path
         d="m 3557.87,1665 h -5.07 c -7.72,8.95 -17.66,15.98 -28.94,20.15 -1.88,0.74 -3.8,1.39 -5.76,1.88 -1.92,0.57 -3.93,1.07 -5.93,1.43 l 2.7,7.28 c 13.82,-4.01 26.16,-11.04 36.42,-22.24 2.45,-2.7 4.66,-5.56 6.58,-8.5"
         style="fill:#ffffff;fill-opacity:1;fill-rule:nonzero;stroke:none;stroke-width:0.817241;stroke-dasharray:none"
         id="path646" />
      <path
         d="m 3775.69,2358.56 c -1.71,1.08 -2.95,1.22 -4.37,1.75 -1.39,0.48 -2.79,0.84 -4.2,1.22 -5.61,1.51 -11.3,2.52 -17.01,3.26 -5.7,0.78 -11.42,1.27 -17.14,1.66 -5.74,0.38 -11.39,0.65 -17.24,0.72 -11.48,-0.22 -22.89,-0.89 -34.29,-2.39 -5.7,-0.74 -11.35,-1.74 -17,-3.26 -1.41,-0.39 -2.85,-0.75 -4.18,-1.22 l -2.02,-0.66 c -0.71,-0.19 -1.62,-0.63 -2.32,-1.09 -3.01,-1.92 -4.25,-5.81 -3.08,-8.66 1.13,2.82 2.89,4.65 4.88,5.55 0.86,0.41 2.25,0.65 3.67,1.06 1.38,0.39 2.72,0.64 4.07,0.92 5.42,1.06 11.01,1.82 16.58,2.49 11.17,1.24 22.49,1.85 33.73,1.95 5.54,-0.04 11.27,-0.23 16.88,-0.55 5.65,-0.31 11.27,-0.79 16.87,-1.4 5.59,-0.66 11.16,-1.42 16.64,-2.49 1.36,-0.29 2.74,-0.54 4.06,-0.92 1.27,-0.36 2.9,-0.68 3.67,-1.06 1.99,-0.9 3.76,-2.72 4.89,-5.55 1.17,2.86 -0.08,6.75 -3.09,8.67"
         style="fill:#ffffff;fill-opacity:1;fill-rule:nonzero;stroke:none;stroke-width:0.817241;stroke-dasharray:none"
         id="path648" />
      <path
         d="m 3565.78,2046.7 c -16.8,15.72 -29.75,35.16 -38.92,56.2 -3.15,7.22 -5.51,14.75 -7.29,22.43 h -24.17 c 12.65,-46.37 42.46,-87.14 85.13,-110.1 41.14,-22.14 89.38,-26.8 135.28,-23.21 -53.68,5.2 -109.32,16.59 -150.03,54.68"
         style="fill:#ffffff;fill-opacity:1;fill-rule:nonzero;stroke:none;stroke-width:0.817241;stroke-dasharray:none"
         id="path650" />
      <path
         d="m 3474.52,2160.15 c 0,0 7.54,0.24 20.74,0.67 13.19,0.28 32.04,0.95 54.66,1.27 22.62,0.28 49.01,0.92 77.29,1.05 28.28,0.15 58.44,0.31 88.6,0.46 30.16,-0.15 60.32,-0.31 88.6,-0.45 28.27,-0.12 54.66,-0.77 77.28,-1.06 22.62,-0.3 41.48,-0.99 54.67,-1.27 13.2,-0.43 20.74,-0.67 20.74,-0.67 0,0 -7.54,-0.25 -20.74,-0.68 -13.19,-0.28 -32.05,-0.96 -54.67,-1.27 -22.62,-0.28 -49.01,-0.94 -77.28,-1.05 -28.28,-0.15 -58.44,-0.3 -88.6,-0.46 -30.16,0.16 -60.32,0.31 -88.6,0.46 -28.28,0.13 -54.67,0.77 -77.29,1.06 -22.62,0.31 -41.47,0.99 -54.66,1.27 -13.2,0.42 -20.74,0.67 -20.74,0.67"
         style="fill:#ffffff;fill-opacity:1;fill-rule:nonzero;stroke:none;stroke-width:0.817241;stroke-dasharray:none"
         id="path652" />
      <path
         d="m 3558.28,1686.78 c 0,0 8.71,5.3 22.01,12.8 6.68,3.67 14.4,8.13 22.82,12.61 8.42,4.48 17.39,9.26 26.37,14.04 9.07,4.61 18.14,9.23 26.64,13.55 8.49,4.34 16.57,8.09 23.42,11.46 13.77,6.59 23.11,10.67 23.11,10.67 0,0 -8.71,-5.3 -22.01,-12.8 -6.68,-3.67 -14.39,-8.14 -22.82,-12.61 -8.42,-4.48 -17.39,-9.26 -26.37,-14.04 -9.07,-4.61 -18.14,-9.22 -26.64,-13.54 -8.5,-4.33 -16.57,-8.1 -23.42,-11.46 -13.77,-6.59 -23.11,-10.68 -23.11,-10.68"
         style="fill:#ffffff;fill-opacity:1;fill-rule:nonzero;stroke:none;stroke-width:0.817241;stroke-dasharray:none"
         id="path654" />
      <path
         d="m 3873.34,1686.78 c 0,0 -9.34,4.09 -23.11,10.68 -6.85,3.36 -14.93,7.13 -23.42,11.46 -8.5,4.32 -17.57,8.93 -26.64,13.54 -8.98,4.78 -17.96,9.56 -26.37,14.04 -8.43,4.47 -16.14,8.94 -22.83,12.61 -13.29,7.5 -22,12.8 -22,12.8 0,0 9.34,-4.08 23.11,-10.67 6.85,-3.37 14.93,-7.12 23.42,-11.46 8.5,-4.32 17.57,-8.94 26.63,-13.55 8.98,-4.78 17.96,-9.56 26.38,-14.04 8.42,-4.48 16.13,-8.94 22.82,-12.61 13.3,-7.5 22.01,-12.8 22.01,-12.8"
         style="fill:#ffffff;fill-opacity:1;fill-rule:nonzero;stroke:none;stroke-width:0.817241;stroke-dasharray:none"
         id="path656" />
      <path
         d="m 3560.63,1674.66 c 0,0 19.4,0.68 48.49,1.19 14.55,0.19 31.53,0.42 49.71,0.65 18.18,0.09 37.58,0.19 56.98,0.29 19.4,-0.1 38.79,-0.19 56.98,-0.28 18.18,-0.07 35.15,-0.48 49.7,-0.65 29.1,-0.51 48.49,-1.2 48.49,-1.2 0,0 -19.39,-0.69 -48.49,-1.2 -14.55,-0.17 -31.52,-0.58 -49.7,-0.65 -18.19,-0.09 -37.58,-0.18 -56.98,-0.28 -19.4,0.1 -38.8,0.2 -56.98,0.29 -18.18,0.23 -35.16,0.46 -49.71,0.65 -29.09,0.51 -48.49,1.19 -48.49,1.19"
         style="fill:#ffffff;fill-opacity:1;fill-rule:nonzero;stroke:none;stroke-width:0.817241;stroke-dasharray:none"
         id="path658" />
      <path
         d="m 3712.9,1954.9 c 0,0 0.68,-11.66 1.19,-29.15 0.18,-8.74 0.57,-18.94 0.65,-29.87 0.09,-10.93 0.19,-22.59 0.29,-34.25 -0.1,-11.66 -0.19,-23.32 -0.28,-34.25 -0.07,-10.93 -0.48,-21.13 -0.65,-29.87 -0.51,-17.49 -1.2,-29.15 -1.2,-29.15 0,0 -0.68,11.66 -1.2,29.15 -0.17,8.74 -0.58,18.94 -0.65,29.87 -0.09,10.93 -0.18,22.59 -0.28,34.25 0.1,11.66 0.2,23.32 0.29,34.25 0.08,10.93 0.47,21.13 0.65,29.87 0.51,17.49 1.19,29.15 1.19,29.15"
         style="fill:#ffffff;fill-opacity:1;fill-rule:nonzero;stroke:none;stroke-width:0.817241;stroke-dasharray:none"
         id="path660" />
      <path
         d="m 3819.61,1945.55 c 0,0 1.97,-4.97 5.43,-13.68 3.35,-8.74 8.33,-21.16 13.95,-36.19 5.6,-15.04 12.35,-32.51 19.19,-51.36 6.85,-18.86 14.15,-38.96 21.45,-59.07 7.08,-20.19 14.16,-40.38 20.8,-59.31 6.65,-18.92 12.47,-36.72 17.66,-51.91 5.17,-15.19 9.16,-27.96 12.11,-36.85 2.83,-8.93 4.45,-14.03 4.45,-14.03 0,0 -1.97,4.98 -5.43,13.68 -3.35,8.75 -8.34,21.16 -13.95,36.19 -5.6,15.04 -12.37,32.51 -19.19,51.37 -6.85,18.85 -14.15,38.96 -21.45,59.07 -7.08,20.19 -14.16,40.38 -20.79,59.31 -6.65,18.92 -12.47,36.72 -17.66,51.91 -5.17,15.19 -9.17,27.96 -12.11,36.85 -2.84,8.92 -4.46,14.02 -4.46,14.02"
         style="fill:#ffffff;fill-opacity:1;fill-rule:nonzero;stroke:none;stroke-width:0.817241;stroke-dasharray:none"
         id="path662" />
      <path
         d="m 3606.58,1931.87 c -3.35,-8.74 -8.33,-21.16 -13.95,-36.19 -5.6,-15.04 -12.36,-32.51 -19.19,-51.36 -6.85,-18.86 -14.15,-38.96 -21.46,-59.07 -7.07,-20.19 -14.15,-40.38 -20.79,-59.31 -4.84,-13.76 -9.23,-26.9 -13.26,-38.9 1.11,-0.31 2.23,-0.62 3.32,-0.98 4.46,11.79 9.35,24.68 14.29,38.33 6.85,18.85 14.15,38.96 21.45,59.07 7.08,20.19 14.15,40.38 20.79,59.31 6.64,18.92 12.47,36.72 17.66,51.91 5.16,15.19 9.17,27.96 12.11,36.85 2.84,8.92 4.46,14.02 4.46,14.02 0,0 -1.98,-4.97 -5.43,-13.68"
         style="fill:#ffffff;fill-opacity:1;fill-rule:nonzero;stroke:none;stroke-width:0.817241;stroke-dasharray:none"
         id="path664" />
      <path
         d="m 4012.7,2120.42 c -3.04,2.98 -7.68,4.04 -11.77,3.11 -2.29,-0.52 -3.82,-1.63 -5.73,-2.85 -0.21,-0.13 -0.92,-1.06 -1.24,-1.18 -0.89,-0.35 -3.59,0.06 -4.57,0.06 -11.94,0.03 -24.02,-0.62 -35.87,-2.11 13.07,-1.64 26.52,-2.42 39.7,-2.09 3.64,0.09 5.18,3 8.74,3.99 5.18,1.42 10.28,-1.18 13.79,-4.89 -0.25,2.26 -1.42,4.4 -3.05,5.96 -1.68,1.66 1.69,-1.62 0,0"
         style="fill:#ffffff;fill-opacity:1;fill-rule:nonzero;stroke:none;stroke-width:0.817241;stroke-dasharray:none"
         id="path666" />
      <path
         d="m 3457.87,2119.14 c -5.07,0.22 -10.15,0.43 -15.23,0.42 -1.67,0 -3.62,-0.33 -5,0.38 -1.5,0.77 -2.55,2.12 -4.2,2.83 -6.59,2.84 -16.27,-0.36 -17.16,-8.31 3.39,3.57 8.15,6.09 13.16,5.02 3.81,-0.82 5.59,-4.03 9.37,-4.12 13.18,-0.32 26.63,0.45 39.71,2.09 -6.86,0.86 -13.75,1.28 -20.65,1.69 -6.6,0.29 6.88,-0.41 0,0"
         style="fill:#ffffff;fill-opacity:1;fill-rule:nonzero;stroke:none;stroke-width:0.817241;stroke-dasharray:none"
         id="path668" />
      <path
         d="m 3446.7,1810.67 c -4.67,-3.04 -9.61,-5.6 -14.93,-7.54 -5.26,-1.81 -10.78,-2.74 -16.82,-3.05 -6.02,-0.27 -12.5,0.21 -19.5,1.57 -7.08,1.22 -14.17,4.34 -22.08,7.96 7.07,-2.39 13.77,-4.47 20.36,-5.4 6.67,-0.77 13.03,-0.83 19,0.03 14.09,2.12 21.57,9.07 31.88,15.66 7.31,4.61 15.91,8.55 25.25,11.39 2.34,0.71 4.73,1.35 7.15,1.91 2.47,0.7 4.99,1.39 7.55,1.96 5.11,1.16 10.38,2.01 15.75,2.48 -6.93,1.23 -13.93,2.3 -20.88,3.27 -6.79,1.48 -13.54,2.78 -20.19,3.84 -3.32,0.53 -6.62,1 -9.87,1.41 -3.25,0.43 -6.32,1.15 -9.42,1.6 -6.16,0.97 -12.13,1.63 -17.83,1.89 -3.05,0.14 -5.8,0.05 -8.29,-0.22 -2.42,-0.14 -4.59,-0.47 -6.58,-0.98 -3.97,-1.02 -7.17,-2.72 -10.04,-4.78 -5.77,-4.09 -10.17,-9.6 -17.2,-13.52 -5.26,-2.91 -11.21,-5.32 -17.87,-6.96 -6.62,-1.57 -13.7,-1.95 -21.55,-1.43 24.39,-17.74 53.02,-30.78 77.61,-35.73 12.28,-2.51 23.89,-2.22 33.28,-0.39 4.73,1 8.96,2.49 12.65,4.66 3.74,2.32 6.91,5.2 9.44,8.66 7.95,10.93 18.19,24.83 35.9,31.09 -12.16,-0.39 -23.88,-2.91 -34.67,-6.68 -10.58,-3.17 -20.22,-7.55 -28.1,-12.7"
         style="fill:#4d4d4d;fill-opacity:1;fill-rule:nonzero;stroke:none;stroke-width:0.817241;stroke-dasharray:none"
         id="path670" />
      <path
         d="m 3501.12,1891.41 c 0.09,4.26 -0.44,8.33 -1.48,12.2 -0.99,4.03 -2.45,7.99 -4.32,11.73 -3.68,7.67 -9.19,14.02 -15.32,20.8 -12.25,13.51 -28.37,25.36 -43.35,37.7 1.31,-6.18 1.91,-12.72 2.24,-18.86 0.38,-6.07 0.25,-12.15 -0.27,-18.03 -0.69,-7.91 -3.13,-14.65 -3.96,-21.85 -0.41,-3.6 -0.4,-7.32 0.5,-11.4 0.46,-2.04 1.13,-4.18 2.1,-6.43 1.03,-2.1 2.37,-4.31 4.06,-6.65 3.17,-4.36 6.92,-8.76 11.13,-13.18 2.13,-2.17 4.29,-4.54 6.7,-6.54 2.42,-1.98 4.94,-3.95 7.56,-5.91 5.23,-3.93 10.81,-7.81 16.64,-11.63 5.98,-3.3 12.23,-6.46 18.57,-9.55 -17.23,13.8 -26.43,33.2 -29.21,49.65 -2,11.37 -1.2,22.41 -5.58,34.02 -1.84,4.93 -4.22,9.42 -7.03,13.59 -2.74,4.32 -5.71,8.76 -9.1,12.81 4.5,-3.84 7.99,-8.45 11.35,-12.32 3.3,-4.01 5.99,-8.29 8.2,-12.86 2.22,-4.53 3.91,-9.46 5.33,-14.41 1.48,-4.8 2.58,-9.89 3.42,-15.24 1.42,-9.01 4.71,-18.97 10.2,-28.68 5.66,-9.1 13.52,-17.97 23.42,-25.51 -11.96,15.87 -12.04,33.12 -11.8,46.55"
         style="fill:#4d4d4d;fill-opacity:1;fill-rule:nonzero;stroke:none;stroke-width:0.817241;stroke-dasharray:none"
         id="path672" />
      <path
         d="m 3380.27,1847.58 c 9.67,8.37 22.1,18.98 39.69,20.75 -11.2,2.44 -22.49,2.7 -33.13,1.71 -10.34,-0.5 -20.14,-2.49 -28.47,-5.51 -4.93,-1.8 -10,-3.08 -15.29,-3.72 -5.25,-0.61 -10.48,-0.22 -16.08,0.78 -11.03,2.21 -23.62,7.01 -36.14,17.63 11.64,-7.79 23.72,-12.28 35.02,-13.28 13.33,-1.12 21.75,3.8 32.61,7.64 15.5,5.42 34.5,6.56 54.8,3.9 -6.05,2.76 -12.28,5.24 -18.32,7.88 -5.9,2.9 -11.8,5.62 -17.66,8.09 -11.94,4.61 -22.54,9.88 -32.99,12.71 -11.21,3.05 -18.08,2.32 -24.27,-0.32 -6.17,-2.57 -11.4,-6.77 -18.69,-8.91 -5.44,-1.59 -11.43,-2.58 -17.9,-2.7 -3.21,-0.04 -6.61,0.07 -10.01,0.54 -3.35,0.53 -6.79,1.32 -10.32,2.4 2.37,-2.65 4.71,-5.36 7.2,-7.92 l 7.8,-7.3 c 5.25,-4.79 10.57,-9.42 15.91,-13.77 10.79,-8.56 22.35,-15.12 32.86,-20.34 10.73,-4.93 21.33,-7.28 30.32,-7.64 9.03,-0.33 16.85,1.96 23.06,7.38"
         style="fill:#4d4d4d;fill-opacity:1;fill-rule:nonzero;stroke:none;stroke-width:0.817241;stroke-dasharray:none"
         id="path674" />
      <path
         d="m 3370.77,1940.14 c 4.06,-9.39 9.68,-20.19 17.8,-29.52 3.94,-4.83 8.22,-9.7 12.72,-14.56 4.66,-4.59 9.74,-8.85 14.83,-13.21 -12.68,16.78 -16.81,37.05 -15.84,52.95 0.64,11.08 3.7,21.1 2.16,32.97 -1.26,10.06 -5.13,18.74 -9.39,28.2 6.25,-9.74 10.77,-18.18 12.81,-27.82 1.09,-4.72 1.55,-9.76 1.85,-14.62 0.33,-4.83 0.24,-9.83 -0.15,-15.01 -0.66,-8.74 0.23,-18.71 3.09,-29.06 3.14,-9.86 8.4,-19.86 15.77,-29.14 -7.4,17.48 -3.67,33.56 -0.49,46.02 1.03,3.97 1.38,7.8 1.34,11.77 -0.01,4.02 -0.51,8.01 -1.41,11.94 -1.75,7.97 -5.42,15.25 -9.68,22.9 -4.05,7.95 -9.6,15.04 -15.1,22.6 -2.69,3.85 -5.54,7.59 -8.51,11.21 l -4.55,5.33 -4.24,5.58 c -0.06,-3.07 -0.27,-6.13 -0.61,-9.19 -0.28,-2.99 -0.58,-5.86 -1.06,-8.76 -0.94,-5.78 -2.34,-11.45 -4.07,-16.84 -2.31,-7.24 -5.99,-13.01 -8.29,-19.55 -2.25,-6.51 -3.33,-14.11 1.02,-24.19"
         style="fill:#4d4d4d;fill-opacity:1;fill-rule:nonzero;stroke:none;stroke-width:0.817241;stroke-dasharray:none"
         id="path676" />
      <path
         d="m 3305.32,1913.11 c 10.67,5.73 24.36,12.96 40.91,10.8 -9.79,4.68 -20.07,7.41 -30.12,8.71 -10.02,1.3 -19.17,1.83 -27.56,0.67 -9.76,-1.2 -19.96,-0.7 -29.87,3.48 -9.73,4.31 -20.12,11.54 -30.14,23.44 9.64,-9.22 19.89,-15.84 30.02,-19.16 5.97,-1.97 11.28,-2.09 16.53,-1.52 5.18,0.51 10.14,1.57 15.48,2.18 7.65,0.87 16.05,0.65 24.62,-0.78 8.69,-1.32 18.02,-3.34 26.85,-7.05 -5,3.85 -10.1,7.63 -15.23,11.25 -5.14,3.62 -9.77,7.67 -14.7,11.15 -4.87,3.56 -9.74,6.87 -14.57,9.85 -4.55,3.25 -9.05,6.16 -13.51,8.63 -19.21,10.7 -27.82,0.98 -42.08,-0.17 -10.72,-0.76 -22.95,1.2 -35.78,7.63 7.3,-11.28 14.7,-22.86 23.23,-32.73 8.75,-9.71 17.4,-18.72 26.44,-25.35 9.23,-6.47 18.19,-11.14 26.47,-13.28 8.16,-2.28 16.33,-1.29 23.01,2.25"
         style="fill:#4d4d4d;fill-opacity:1;fill-rule:nonzero;stroke:none;stroke-width:0.817241;stroke-dasharray:none"
         id="path678" />
      <path
         d="m 3355.15,2047.32 c -3.84,8.02 -7.49,16.44 -11.99,24.03 -2.19,-11.09 -6.71,-21.83 -12.17,-31.24 -3.64,-6.31 -8.31,-10.99 -11.73,-16.58 -3.33,-5.54 -5.42,-12.05 -3.68,-22.53 0.82,-4.89 2.07,-10.04 3.7,-15.38 1.92,-5.08 4.23,-10.34 6.84,-15.7 2.67,-5.28 5.34,-11 8.79,-16.16 3.45,-5.16 7.11,-10.34 10.9,-15.49 -3.79,9.43 -6.12,18.61 -6.54,27.62 -0.3,9.16 0.8,17.65 2.96,25.07 1.51,5.19 3.43,9.87 5.04,14.65 1.54,4.73 2.93,9.7 3.54,15.48 1.02,9.78 -0.77,18.74 -3.22,28.15 4.39,-9.97 6.57,-19.06 6.44,-28.54 0.04,-9.32 -1.32,-18.21 -4.31,-27.84 -2.37,-7.95 -3.95,-17.77 -3.1,-27.63 0.85,-9.85 3.53,-20.38 8.34,-30.63 -3.07,17.92 3.77,32.14 9.34,43.09 3.64,7.05 4.6,14.09 4.72,21.99 -0.02,7.77 -1.59,15.68 -4.29,23.46 -2.52,7.95 -5.52,16.35 -9.58,24.18"
         style="fill:#4d4d4d;fill-opacity:1;fill-rule:nonzero;stroke:none;stroke-width:0.817241;stroke-dasharray:none"
         id="path680" />
      <path
         d="m 3249,1988.89 c 5.54,1.58 11.83,3.37 18.6,4.07 3.39,0.35 6.89,0.44 10.48,0.09 3.71,-0.25 7.55,-0.89 11.45,-2.1 -8.9,5.76 -17.34,10.8 -26.47,13.98 -8.89,3.33 -18.26,4.99 -26.01,5.76 -9.36,0.79 -18.39,3.48 -27.13,9.12 -8.99,5.48 -16.68,14.47 -23.91,27.35 7.57,-10.23 14.96,-18.8 24.53,-23.43 10.94,-5.62 20.01,-4.54 30.15,-5.58 3.63,-0.36 7.37,-1.02 11.16,-1.97 3.91,-0.86 7.96,-1.97 11.97,-3.38 8.02,-2.83 16.01,-6.78 23.44,-12.05 -7.52,9.36 -15.84,18.23 -23.61,26.69 -7.47,8.64 -15.26,16.33 -22.93,22.48 -15.49,13.85 -25.52,6.45 -39.45,7.95 -5.22,0.62 -10.69,1.92 -16.26,4.09 -5.42,2.24 -10.73,5.43 -16.04,9.65 3.99,-12.11 9.81,-23.7 15.82,-34.52 3.06,-5.38 5.97,-10.67 9.41,-15.39 3.5,-4.68 7.07,-9.05 10.67,-12.99 14.02,-16.05 30.24,-23.81 44.13,-19.82"
         style="fill:#4d4d4d;fill-opacity:1;fill-rule:nonzero;stroke:none;stroke-width:0.817241;stroke-dasharray:none"
         id="path682" />
      <path
         d="m 3306.1,2054.04 c -4.12,-7.15 -6.63,-15.37 -8.01,-24.86 -1.16,-9.31 -1.39,-20.1 1.74,-30.04 0.03,4.2 0.62,8.07 1.6,11.68 1.13,3.7 2.61,7.11 4.3,10.25 3.38,6.3 7.56,11.57 11.29,16.12 9.56,11.7 10.58,26.24 9.36,42.26 -0.41,3.95 -1.09,7.94 -2,11.93 -0.85,4.02 -1.45,8.29 -2.48,12.4 -1.95,8.28 -4.84,16.39 -6.86,24.66 -2.22,-5.02 -5.04,-9.87 -8.01,-14.36 -2.83,-4.42 -6.02,-8.59 -9.39,-12.4 -8.99,-10.37 -20.91,-13.23 -22.2,-33.49 -0.1,-9.25 1.5,-19.69 4.03,-30.83 2.82,-10.94 7.46,-22.01 12.19,-33.27 -1.58,9.57 -1.59,18.79 -0.35,27.15 0.62,4.19 1.52,8.15 2.74,11.9 1.36,3.83 2.96,7.4 4.74,10.66 4.99,9.1 11.06,16.1 13.93,26.37 2.16,8.54 3.17,17.73 2.41,26.86 2.29,-10.13 1.92,-19.36 0.66,-27.79 -1.53,-8.55 -4.98,-16.82 -9.69,-25.2"
         style="fill:#4d4d4d;fill-opacity:1;fill-rule:nonzero;stroke:none;stroke-width:0.817241;stroke-dasharray:none"
         id="path684" />
      <path
         d="m 3210.39,2069.66 c 11.15,0.91 25.41,1.98 38.84,-5.68 -6.7,7.32 -14.67,13.15 -22.64,17.83 -7.65,4.82 -15.66,8.32 -23.15,10.36 -8.79,2.45 -17.35,6.43 -24.41,13.3 -6.94,6.89 -13.02,16.48 -17.96,29.56 5.55,-10.76 11.72,-19.81 19.36,-26.03 4.44,-3.68 8.96,-5.63 13.66,-7.01 4.62,-1.39 9.24,-2.27 14.04,-3.65 13.87,-3.92 27.96,-12.65 41.03,-24.73 -3,4.91 -6,9.82 -8.96,14.67 -2.74,4.95 -5.58,9.78 -8.51,14.42 -2.93,4.63 -5.94,9.07 -9.04,13.22 -2.78,4.26 -5.63,8.23 -8.6,11.81 -12.71,15.53 -23.57,10.52 -36.61,14.41 -9.48,3.08 -19.33,8.88 -28.17,18.51 3.96,-23.6 12.52,-47.21 22.91,-64.49 11.42,-17 23.88,-27.77 38.21,-26.5"
         style="fill:#4d4d4d;fill-opacity:1;fill-rule:nonzero;stroke:none;stroke-width:0.817241;stroke-dasharray:none"
         id="path686" />
      <path
         d="m 3276.77,2119.39 c -4.92,-5.75 -9.35,-13.12 -12.56,-21.72 -2.89,-8.44 -4.19,-17.96 -3.72,-28.07 3.69,15.73 14.56,24.94 23.18,31.95 10.76,8.85 15.85,22.73 16.55,37.5 1.7,15.15 -0.49,31.72 -2.05,47.86 -5.78,-8.55 -13.41,-15.91 -21.39,-21.81 -10.32,-7.97 -22.14,-8.43 -26.49,-26.86 -1,-4.32 -1.73,-9.01 -2.18,-13.98 -0.12,-4.86 0.02,-10 0.38,-15.33 0.36,-5.33 0.94,-10.84 1.69,-16.46 0.89,-5.56 2.38,-11.03 3.76,-16.61 -0.42,17.93 6.98,34.06 15.73,44.64 3.11,3.73 6.4,6.9 9.44,10.28 2.98,3.36 5.89,6.97 8.43,11.54 4.19,7.72 6.09,15.9 6.83,24.52 0.73,-9.77 -0.88,-18.2 -4.19,-25.99 -3.2,-7.74 -7.48,-14.6 -13.41,-21.46"
         style="fill:#4d4d4d;fill-opacity:1;fill-rule:nonzero;stroke:none;stroke-width:0.817241;stroke-dasharray:none"
         id="path688" />
      <path
         d="m 3188.48,2151.43 c 5.31,-0.61 11.34,-1.31 17.41,-3.09 6.23,-1.73 12.67,-4.49 18.52,-9.22 -2.67,3.97 -5.67,7.66 -8.88,11.07 -2.93,3.47 -6.09,6.67 -9.39,9.57 -6.61,5.81 -13.76,10.46 -20.64,13.67 -4.06,1.9 -7.96,4.15 -11.52,6.88 -3.39,2.74 -6.51,5.95 -9.32,9.74 -5.55,7.56 -10.13,17.43 -12.61,30.33 3.41,-10.87 8.17,-20.26 14.49,-27.33 7.64,-8.28 15.48,-10.52 24.4,-14.77 12.71,-6.07 25.11,-16.61 34.89,-30.29 -7.34,20.47 -15.47,41.02 -24.21,56.42 -9.88,16.58 -21.06,13.82 -32.68,19.7 -8.69,4.48 -17.33,11.53 -24.47,21.92 0.66,-11.2 1.25,-22.63 3.43,-33.44 2.23,-10.8 5.06,-21.03 8.57,-29.9 7.55,-17.74 18.68,-29.74 32.01,-31.26"
         style="fill:#4d4d4d;fill-opacity:1;fill-rule:nonzero;stroke:none;stroke-width:0.817241;stroke-dasharray:none"
         id="path690" />
      <path
         d="m 3269.06,2193.71 c -2.72,-2.9 -5.7,-5.63 -9.03,-8.27 -5.58,-4.45 -10.94,-10.46 -15.33,-17.82 -2.19,-3.68 -4.14,-7.69 -5.76,-11.98 -1.33,-4.21 -2.3,-8.7 -2.83,-13.39 2.99,6.91 7.41,11.99 12.34,15.97 5.09,4.02 10.52,6.92 15.31,9.4 12.32,6.35 18.43,18.16 22.07,31.91 2.07,6.95 3.3,14.4 3.86,22.02 0.61,7.63 1.55,15.5 1.5,23.18 -6.72,-7.01 -15.06,-12.55 -23.54,-16.66 -11.39,-5.64 -22.78,-4 -29.69,-20.34 -6.89,-15.36 -8.41,-36.82 -7.19,-58.53 3.28,16.78 12.62,30.32 22.61,38.54 6.95,5.76 14.97,9.55 20.95,17.15 5.23,6.46 8.05,13.75 10.33,21.7 -1.04,-9.3 -3.62,-16.87 -8.01,-23.54 -2.16,-3.33 -4.71,-6.42 -7.59,-9.34"
         style="fill:#4d4d4d;fill-opacity:1;fill-rule:nonzero;stroke:none;stroke-width:0.817241;stroke-dasharray:none"
         id="path692" />
      <path
         d="m 3152.18,2279.18 c 0.63,-4.89 1.67,-9.59 2.79,-14.01 4.31,-17.73 13.18,-30.68 25.88,-34.4 5.02,-1.48 10.72,-3.18 16.31,-5.88 5.5,-2.69 11.13,-6.37 16.11,-11.77 -4.18,8.27 -8.67,15.78 -14.29,22.3 -5.49,6.52 -11.88,12.05 -17.71,16.2 -14.05,9.79 -24.3,24.4 -24.98,49.24 1.81,-10.69 4.34,-20.15 9.64,-27.8 6.24,-8.99 13.87,-12.44 21.44,-17.89 10.55,-7.8 21.82,-19.67 28.59,-34.1 -1.68,10.15 -4.15,20.33 -6.44,29.95 -2.1,9.61 -5.16,18.7 -8.28,26.59 -6.66,17.05 -17.76,16.39 -28.3,23.85 -7.94,5.68 -14.91,13.65 -20.22,24.51 -0.62,-5.24 -1.13,-10.55 -1.51,-15.84 -0.35,-5.28 -0.18,-10.6 -0.06,-15.79 0.17,-5.19 0.51,-10.27 1.03,-15.16"
         style="fill:#4d4d4d;fill-opacity:1;fill-rule:nonzero;stroke:none;stroke-width:0.817241;stroke-dasharray:none"
         id="path694" />
      <path
         d="m 3254.54,2249.95 c -6.31,-3.17 -12.12,-7.85 -17.4,-13.93 -5.15,-6.07 -9.99,-13.57 -12.18,-22.06 3.83,5.87 8.95,9.82 14.49,12.67 5.45,2.85 11.07,4.6 16.02,6.07 24.77,7.87 32.18,38.92 37.97,67.15 -7.54,-5.37 -16.67,-9.07 -25.17,-11.48 -11.51,-3.35 -22.24,0.12 -31.66,-13.87 -4.39,-6.56 -7.43,-14.77 -10.31,-23.86 -2.68,-9.11 -4.07,-19.13 -5.42,-29.31 6.22,15.02 16.25,25.98 27.79,31.91 7.88,4.16 15.69,6.33 22.42,12.41 5.71,5.14 10.16,11.38 13.39,18.42 -5.08,-16.89 -15.2,-26.54 -29.94,-34.12"
         style="fill:#4d4d4d;fill-opacity:1;fill-rule:nonzero;stroke:none;stroke-width:0.817241;stroke-dasharray:none"
         id="path696" />
      <path
         d="m 3185.26,2305.64 c 9.06,-4.43 21.08,-10.24 28.62,-21.94 -5.07,16.69 -14.51,31.39 -25.13,41.24 -6.36,5.83 -11.04,12.44 -14.15,20.61 -3.08,8.16 -4.61,17.9 -3.05,29.42 0.07,-5.1 0.28,-9.93 1.21,-14.55 0.97,-4.62 2.36,-8.96 4.32,-12.95 4.64,-9.4 11.36,-13.87 17.9,-20.23 4.78,-4.55 9.31,-10.08 13.19,-16.26 3.89,-6.18 6.98,-12.99 9.65,-20.36 l -0.54,7.36 -0.3,7.28 c -0.26,4.84 -0.65,9.64 -1.19,14.34 -1.07,9.39 -1.97,18.2 -4.22,26.16 -4.36,17.09 -14.75,18.23 -23.9,26.96 -6.58,6.53 -13.02,15.4 -16.33,26.26 -5.22,-19.07 -7.95,-39.75 -6.01,-56.96 1.79,-17.22 8.43,-30.8 19.93,-36.38"
         style="fill:#4d4d4d;fill-opacity:1;fill-rule:nonzero;stroke:none;stroke-width:0.817241;stroke-dasharray:none"
         id="path698" />
      <path
         d="m 3226.72,2303.68 -2.34,-6.72 -1.81,-6.94 c 3.61,6.51 8.75,11.84 14.13,16.01 5.39,4.17 11.17,7.17 16.88,9.03 8.12,2.55 16.07,3.22 23.49,7.74 3.16,1.9 5.9,4.17 8.33,6.72 2.48,2.54 4.93,5.28 7.05,8.29 -3.82,-7.45 -8.14,-13.06 -13.77,-17.32 -5.59,-4.27 -12.48,-7.19 -19.8,-9.52 -12.39,-3.83 -26.42,-13.41 -33.66,-28.48 9.53,9.57 21.89,11.22 31.96,12.26 12.82,1.33 21.61,9.34 28.84,19.8 7.12,10.52 12.48,23.72 17.09,36.62 -8.36,-3.68 -16.83,-5.9 -25.61,-6.65 -11.49,-1.21 -21.7,3.93 -32.39,-7.62 -4.77,-5.47 -9.61,-12.43 -13.25,-20.5 -1.82,-4.04 -3.53,-8.31 -5.14,-12.72"
         style="fill:#4d4d4d;fill-opacity:1;fill-rule:nonzero;stroke:none;stroke-width:0.817241;stroke-dasharray:none"
         id="path700" />
      <path
         d="m 3200.04,2374.56 c 8.3,-5.71 18.85,-13.07 24.34,-25.21 -0.99,8.15 -3.5,16.07 -6.87,23.37 -3.42,7.32 -7.17,13.82 -11.59,19.26 -5.15,6.43 -9.07,13.49 -11.14,21.68 -1.8,8.07 -1.73,17.28 0.76,27.99 -0.97,-9.64 -0.72,-18.58 1.9,-26.63 3.19,-9.51 9.4,-14.93 14.84,-21.95 3.93,-5.02 7.47,-10.9 10.28,-17.28 2.95,-6.43 5.41,-13.45 6.68,-20.68 0.9,9.2 1.4,18.56 1.96,27.39 0.34,8.91 0.04,17.53 -0.71,25.18 -1.89,16.66 -12.13,19.61 -19.75,29.23 -5.55,7.21 -10.15,16.29 -12.35,27.18 -7.35,-16.98 -12.42,-35.89 -12.85,-52.23 -0.22,-16.48 3.76,-30.01 14.5,-37.3"
         style="fill:#4d4d4d;fill-opacity:1;fill-rule:nonzero;stroke:none;stroke-width:0.817241;stroke-dasharray:none"
         id="path702" />
      <path
         d="m 3233.73,2353.75 c 4.64,5.38 9.89,9.64 15.58,12.65 5.84,2.97 11.88,4.79 17.68,5.56 8.17,1.04 15.56,0.5 23.36,3.5 6.7,2.5 12,6.6 16.7,11.65 -4.2,-6.6 -9.4,-11.03 -15.5,-14.07 -5.82,-3.14 -12.53,-4.86 -20.07,-5.76 -6.27,-0.78 -13.3,-2.7 -19.47,-6.23 -6.21,-3.5 -12.1,-8.43 -16.89,-14.73 10.6,7.28 22.93,6.69 32.57,6.04 12.06,-0.73 22.19,5.09 30.26,13.85 8.32,8.69 15.07,20.32 21.18,31.74 -8.17,-2.31 -17.1,-2.78 -25.6,-2.09 -11.29,0.76 -20.05,7.05 -31.94,-1.98 -5.69,-4.18 -10.67,-10.14 -15.37,-17.04 -4.92,-6.82 -8.86,-14.82 -12.49,-23.09"
         style="fill:#4d4d4d;fill-opacity:1;fill-rule:nonzero;stroke:none;stroke-width:0.817241;stroke-dasharray:none"
         id="path704" />
      <path
         d="m 3222.95,2436.56 c 7.2,-6.66 16.27,-15.19 20.38,-27.65 -0.05,3.95 -0.52,7.92 -1.19,11.79 -0.57,3.82 -1.44,7.6 -2.55,11.26 -2.21,7.33 -5.36,14.22 -8.96,20.04 -4.32,6.94 -6.95,14.02 -7.91,22 -0.89,7.94 -0.07,16.78 3.91,26.2 -2.35,-8.69 -2.97,-17.24 -1.24,-25.32 2,-9.47 7.1,-15.43 11.43,-22.86 6.48,-10.79 11.02,-24.43 11.72,-38.42 1.93,8.53 4.05,17 5.23,25.43 1.4,8.31 2.5,16.26 2.35,23.77 -0.02,16.09 -9.16,20.23 -15.44,30.54 -4.53,7.67 -8.17,17.13 -8.98,27.66 -4.43,-7.44 -8.23,-15.52 -11.56,-23.41 -3.3,-7.91 -5.31,-16.17 -6.59,-23.73 -1.31,-7.55 -1.12,-14.87 0.41,-21.24 1.51,-6.37 4.41,-11.82 8.99,-16.06"
         style="fill:#4d4d4d;fill-opacity:1;fill-rule:nonzero;stroke:none;stroke-width:0.817241;stroke-dasharray:none"
         id="path706" />
      <path
         d="m 3290.6,2418.26 c -6.11,0.26 -12.76,-0.6 -19.3,-2.83 -3.27,-1.12 -6.51,-2.57 -9.63,-4.38 -3,-1.86 -5.8,-4.13 -8.41,-6.73 10.75,5.27 22.67,2.65 31.93,0.45 23.51,-5.26 40.5,15.38 54.91,35.08 -8.23,-0.89 -16.61,-0.14 -24.68,1.81 -10.69,2.43 -18.72,9.97 -31.06,3.22 -5.64,-3.24 -11.49,-7.85 -16.85,-13.58 -5.13,-5.86 -10.38,-12.5 -14.83,-19.7 10.22,8.63 22.97,12.15 34.15,11.81 8.02,-0.35 15.28,-2.16 23.09,-0.52 6.59,1.4 12.01,4.57 17.46,8.41 -5.22,-5.35 -10.44,-8.93 -16.55,-10.91 -6.05,-2.01 -13.01,-2.41 -20.23,-2.13"
         style="fill:#4d4d4d;fill-opacity:1;fill-rule:nonzero;stroke:none;stroke-width:0.817241;stroke-dasharray:none"
         id="path708" />
      <path
         d="m 3268.51,2461.98 c 1.96,14.63 -1.9,30.64 -7.12,42.52 -6.46,14.17 -8.06,29.32 1.29,46.25 -2.92,-8.09 -4.77,-15.79 -3.96,-23.71 0.99,-9.34 5.26,-15.78 8.65,-23.52 2.46,-5.54 4.26,-11.64 5.49,-18.1 1.3,-6.52 1.85,-13.28 1.36,-19.94 5.64,15.51 11.21,31.22 12.69,45.4 1.94,15.04 -6.64,20.59 -11.53,31.27 -3.67,8.09 -5.99,17.43 -5.61,27.47 -20.11,-25.68 -33.81,-59.54 -17.5,-78.46 6.21,-7.45 14.06,-17 16.24,-29.18"
         style="fill:#4d4d4d;fill-opacity:1;fill-rule:nonzero;stroke:none;stroke-width:0.817241;stroke-dasharray:none"
         id="path710" />
      <path
         d="m 3305.66,2511.01 c 3.88,6.19 7.44,12.53 10,18.86 1.51,3.74 3.18,7.25 5.06,10.49 2.02,3.11 4.25,5.92 6.72,8.42 4.94,4.98 10.79,8.74 18.32,10.19 -6.53,-2.47 -12.13,-6.41 -16.85,-12.13 -5.69,-6.65 -7.7,-14.62 -10.92,-22.63 -1.18,-2.87 -2.53,-5.71 -4.06,-8.49 -1.48,-2.82 -2.99,-5.7 -4.75,-8.4 -3.4,-5.49 -7.84,-10.19 -12.28,-14.61 6.49,3.07 13.48,5.82 19.49,9.25 5.97,3.47 11.82,6.87 16.61,10.95 10.04,8.88 9.14,18.88 13.21,30.13 3.19,8.11 8.17,15.86 14.38,22.36 -11.96,-0.43 -25.51,-2.24 -36.12,-8.39 -10.97,-5.68 -19.21,-15.28 -21.93,-28.12 -1.13,-5.06 -1.98,-11.15 -3.7,-16.96 -1.64,-5.88 -4.11,-11.54 -7.37,-16.93 5.18,4.61 10.25,9.88 14.19,16.01"
         style="fill:#4d4d4d;fill-opacity:1;fill-rule:nonzero;stroke:none;stroke-width:0.817241;stroke-dasharray:none"
         id="path712" />
      <path
         d="m 3312.03,2489.62 c -11.65,-4.32 -23.89,-14.44 -34.06,-26.67 5.41,3.25 11.2,5.3 16.96,6.26 5.84,0.91 11.81,0.62 17.22,-0.43 7.6,-1.5 14.33,-4.3 21.92,-3.84 6.46,0.36 12.38,2.27 17.79,5.33 -10.91,-8.85 -22.6,-9.85 -36.72,-6.91 -12.01,2.66 -26,0.73 -37.63,-7.27 11.26,3.07 22.28,-1.17 30.85,-4.64 5.46,-2.22 10.72,-2.7 15.74,-1.98 5.19,0.6 10.16,2.41 14.84,5.06 4.58,2.74 9.22,6.04 13.64,9.77 4.34,3.8 8.39,8.09 12.5,12.17 -8.06,0.42 -16.21,2.53 -23.59,5.45 -10.03,3.93 -16.65,12.05 -29.46,7.7"
         style="fill:#4d4d4d;fill-opacity:1;fill-rule:nonzero;stroke:none;stroke-width:0.817241;stroke-dasharray:none"
         id="path714" />
      <path
         d="m 3942.54,1870.37 c 5.49,9.71 8.78,19.67 10.19,28.68 0.84,5.35 1.95,10.44 3.43,15.24 1.42,4.95 3.11,9.88 5.33,14.41 2.21,4.57 4.89,8.85 8.19,12.86 3.37,3.87 6.86,8.48 11.35,12.32 -3.38,-4.05 -6.35,-8.49 -9.09,-12.81 -2.82,-4.17 -5.2,-8.66 -7.04,-13.59 -4.38,-11.61 -3.57,-22.65 -5.57,-34.02 -2.78,-16.45 -11.99,-35.85 -29.21,-49.65 6.34,3.09 12.58,6.25 18.57,9.55 5.82,3.82 11.41,7.7 16.64,11.63 2.61,1.96 5.14,3.93 7.56,5.91 2.41,2 4.57,4.37 6.69,6.54 4.22,4.42 7.96,8.82 11.13,13.18 1.7,2.34 3.03,4.55 4.07,6.65 0.97,2.25 1.64,4.39 2.09,6.43 0.91,4.08 0.92,7.8 0.51,11.4 -0.83,7.2 -3.28,13.94 -3.97,21.85 -0.52,5.88 -0.64,11.96 -0.27,18.03 0.34,6.14 0.93,12.68 2.25,18.86 -14.98,-12.34 -31.1,-24.19 -43.36,-37.7 -6.12,-6.78 -11.64,-13.13 -15.32,-20.8 -1.87,-3.74 -3.32,-7.7 -4.31,-11.73 -1.04,-3.87 -1.57,-7.94 -1.49,-12.2 0.24,-13.43 0.16,-30.68 -11.8,-46.55 9.9,7.54 17.77,16.41 23.43,25.51"
         style="fill:#4d4d4d;fill-opacity:1;fill-rule:nonzero;stroke:none;stroke-width:0.817241;stroke-dasharray:none"
         id="path716" />
      <path
         d="m 4069.9,1823.19 c -6.66,1.64 -12.62,4.05 -17.87,6.96 -7.03,3.92 -11.44,9.43 -17.2,13.52 -2.88,2.06 -6.08,3.76 -10.05,4.78 -1.98,0.51 -4.15,0.84 -6.58,0.98 -2.49,0.27 -5.23,0.36 -8.29,0.22 -5.69,-0.26 -11.67,-0.92 -17.83,-1.89 -3.1,-0.45 -6.16,-1.17 -9.41,-1.6 -3.26,-0.41 -6.55,-0.88 -9.88,-1.41 -6.64,-1.06 -13.4,-2.36 -20.18,-3.84 -6.95,-0.97 -13.95,-2.04 -20.89,-3.27 5.38,-0.47 10.64,-1.32 15.75,-2.48 2.56,-0.57 5.09,-1.26 7.56,-1.96 2.42,-0.56 4.8,-1.2 7.14,-1.91 9.35,-2.84 17.95,-6.78 25.26,-11.39 10.31,-6.59 17.78,-13.54 31.87,-15.66 5.98,-0.86 12.33,-0.8 19,-0.03 6.6,0.93 13.3,3.01 20.37,5.4 -7.91,-3.62 -15.01,-6.74 -22.08,-7.96 -7.01,-1.36 -13.49,-1.84 -19.51,-1.57 -6.03,0.31 -11.56,1.24 -16.81,3.05 -5.32,1.94 -10.26,4.5 -14.93,7.54 -7.89,5.15 -17.52,9.53 -28.11,12.7 -10.79,3.77 -22.51,6.29 -34.67,6.68 17.71,-6.26 27.96,-20.16 35.91,-31.09 2.53,-3.46 5.69,-6.34 9.44,-8.66 3.69,-2.17 7.92,-3.66 12.65,-4.66 9.39,-1.83 20.99,-2.12 33.27,0.39 24.59,4.95 53.23,17.99 77.61,35.73 -7.84,-0.52 -14.92,-0.14 -21.54,1.43"
         style="fill:#4d4d4d;fill-opacity:1;fill-rule:nonzero;stroke:none;stroke-width:0.817241;stroke-dasharray:none"
         id="path718" />
      <path
         d="m 4005.61,1881.32 c 7.37,9.28 12.64,19.28 15.78,29.14 2.86,10.35 3.75,20.32 3.09,29.06 -0.4,5.18 -0.48,10.18 -0.16,15.01 0.3,4.86 0.77,9.9 1.86,14.62 2.03,9.64 6.55,18.08 12.8,27.82 -4.26,-9.46 -8.12,-18.14 -9.39,-28.2 -1.53,-11.87 1.53,-21.89 2.16,-32.97 0.98,-15.9 -3.15,-36.17 -15.84,-52.95 5.1,4.36 10.18,8.62 14.83,13.21 4.51,4.86 8.79,9.73 12.72,14.56 8.13,9.33 13.75,20.13 17.8,29.52 4.36,10.08 3.27,17.68 1.03,24.19 -2.3,6.54 -5.99,12.31 -8.3,19.55 -1.73,5.39 -3.13,11.06 -4.06,16.84 -0.49,2.9 -0.79,5.77 -1.07,8.76 -0.33,3.06 -0.54,6.12 -0.6,9.19 l -4.25,-5.58 -4.54,-5.33 c -2.98,-3.62 -5.83,-7.36 -8.52,-11.21 -5.49,-7.56 -11.05,-14.65 -15.09,-22.6 -4.26,-7.65 -7.93,-14.93 -9.68,-22.9 -0.91,-3.93 -1.41,-7.92 -1.42,-11.94 -0.04,-3.97 0.32,-7.8 1.35,-11.77 3.18,-12.46 6.9,-28.54 -0.5,-46.02"
         style="fill:#4d4d4d;fill-opacity:1;fill-rule:nonzero;stroke:none;stroke-width:0.817241;stroke-dasharray:none"
         id="path720" />
      <path
         d="m 4148.58,1894.23 c -6.47,0.12 -12.45,1.11 -17.9,2.7 -7.29,2.14 -12.51,6.34 -18.68,8.91 -6.19,2.64 -13.06,3.37 -24.28,0.32 -10.44,-2.83 -21.04,-8.1 -32.99,-12.71 -5.85,-2.47 -11.76,-5.19 -17.65,-8.09 -6.05,-2.64 -12.27,-5.12 -18.32,-7.88 20.3,2.66 39.3,1.52 54.8,-3.9 10.86,-3.84 19.28,-8.76 32.6,-7.64 11.31,1 23.38,5.49 35.02,13.28 -12.52,-10.62 -25.1,-15.42 -36.14,-17.63 -5.6,-1 -10.82,-1.39 -16.08,-0.78 -5.28,0.64 -10.35,1.92 -15.29,3.72 -8.32,3.02 -18.13,5.01 -28.47,5.51 -10.63,0.99 -21.93,0.73 -33.12,-1.71 17.59,-1.77 30.01,-12.38 39.69,-20.75 6.21,-5.42 14.03,-7.71 23.06,-7.38 8.99,0.36 19.58,2.71 30.31,7.64 10.52,5.22 22.08,11.78 32.87,20.34 5.33,4.35 10.66,8.98 15.9,13.77 l 7.81,7.3 c 2.48,2.56 4.82,5.27 7.19,7.92 -3.53,-1.08 -6.97,-1.87 -10.31,-2.4 -3.4,-0.47 -6.8,-0.58 -10.02,-0.54"
         style="fill:#4d4d4d;fill-opacity:1;fill-rule:nonzero;stroke:none;stroke-width:0.817241;stroke-dasharray:none"
         id="path722" />
      <path
         d="m 4077.08,1934.6 c 4.81,10.25 7.48,20.78 8.33,30.63 0.85,9.86 -0.73,19.68 -3.09,27.63 -3,9.63 -4.35,18.52 -4.32,27.84 -0.13,9.48 2.06,18.57 6.45,28.54 -2.45,-9.41 -4.25,-18.37 -3.22,-28.15 0.61,-5.78 1.99,-10.75 3.54,-15.48 1.6,-4.78 3.53,-9.46 5.03,-14.65 2.16,-7.42 3.27,-15.91 2.96,-25.07 -0.42,-9.01 -2.74,-18.19 -6.53,-27.62 3.79,5.15 7.45,10.33 10.89,15.49 3.45,5.16 6.12,10.88 8.8,16.16 2.61,5.36 4.91,10.62 6.83,15.7 1.63,5.34 2.89,10.49 3.7,15.38 1.75,10.48 -0.35,16.99 -3.68,22.53 -3.41,5.59 -8.08,10.27 -11.72,16.58 -5.47,9.41 -9.99,20.15 -12.18,31.24 -4.49,-7.59 -8.14,-16.01 -11.98,-24.03 -4.06,-7.83 -7.06,-16.23 -9.58,-24.18 -2.7,-7.78 -4.28,-15.69 -4.3,-23.46 0.12,-7.9 1.08,-14.94 4.72,-21.99 5.57,-10.95 12.42,-25.17 9.35,-43.09"
         style="fill:#4d4d4d;fill-opacity:1;fill-rule:nonzero;stroke:none;stroke-width:0.817241;stroke-dasharray:none"
         id="path724" />
      <path
         d="m 4190.09,1974.59 c -14.26,1.15 -22.88,10.87 -42.09,0.17 -4.45,-2.47 -8.96,-5.38 -13.5,-8.63 -4.83,-2.98 -9.71,-6.29 -14.57,-9.85 -4.94,-3.48 -9.56,-7.53 -14.7,-11.15 -5.14,-3.62 -10.23,-7.4 -15.24,-11.25 8.84,3.71 18.17,5.73 26.86,7.05 8.56,1.43 16.97,1.65 24.61,0.78 5.34,-0.61 10.3,-1.67 15.49,-2.18 5.24,-0.57 10.55,-0.45 16.52,1.52 10.13,3.32 20.39,9.94 30.03,19.16 -10.02,-11.9 -20.41,-19.13 -30.14,-23.44 -9.91,-4.18 -20.12,-4.68 -29.87,-3.48 -8.39,1.16 -17.54,0.63 -27.57,-0.67 -10.04,-1.3 -20.33,-4.03 -30.11,-8.71 16.55,2.16 30.23,-5.07 40.9,-10.8 6.69,-3.54 14.85,-4.53 23.01,-2.25 8.28,2.14 17.25,6.81 26.48,13.28 9.03,6.63 17.68,15.64 26.43,25.35 8.53,9.87 15.93,21.45 23.23,32.73 -12.82,-6.43 -25.05,-8.39 -35.77,-7.63"
         style="fill:#4d4d4d;fill-opacity:1;fill-rule:nonzero;stroke:none;stroke-width:0.817241;stroke-dasharray:none"
         id="path726" />
      <path
         d="m 4152.57,2037.36 c 2.53,11.14 4.12,21.58 4.02,30.83 -1.28,20.26 -13.21,23.12 -22.19,33.49 -3.38,3.81 -6.57,7.98 -9.39,12.4 -2.98,4.49 -5.8,9.34 -8.01,14.36 -2.03,-8.27 -4.92,-16.38 -6.86,-24.66 -1.04,-4.11 -1.63,-8.38 -2.49,-12.4 -0.9,-3.99 -1.58,-7.98 -2,-11.93 -1.22,-16.02 -0.19,-30.56 9.36,-42.26 3.73,-4.55 7.92,-9.82 11.3,-16.12 1.68,-3.14 3.17,-6.55 4.29,-10.25 0.99,-3.61 1.57,-7.48 1.61,-11.68 3.13,9.94 2.9,20.73 1.74,30.04 -1.38,9.49 -3.89,17.71 -8.01,24.86 -4.71,8.38 -8.17,16.65 -9.7,25.2 -1.26,8.43 -1.62,17.66 0.66,27.79 -0.75,-9.13 0.25,-18.32 2.42,-26.86 2.87,-10.27 8.93,-17.27 13.93,-26.37 1.78,-3.26 3.37,-6.83 4.73,-10.66 1.23,-3.75 2.12,-7.71 2.75,-11.9 1.23,-8.36 1.22,-17.58 -0.35,-27.15 4.73,11.26 9.37,22.33 12.19,33.27"
         style="fill:#4d4d4d;fill-opacity:1;fill-rule:nonzero;stroke:none;stroke-width:0.817241;stroke-dasharray:none"
         id="path728" />
      <path
         d="m 4230.77,2057.87 c -13.93,-1.5 -23.97,5.9 -39.45,-7.95 -7.67,-6.15 -15.47,-13.84 -22.93,-22.48 -7.77,-8.46 -16.09,-17.33 -23.62,-26.69 7.44,5.27 15.42,9.22 23.45,12.05 4,1.41 8.05,2.52 11.97,3.38 3.79,0.95 7.53,1.61 11.15,1.97 10.15,1.04 19.22,-0.04 30.16,5.58 9.57,4.63 16.96,13.2 24.52,23.43 -7.22,-12.88 -14.92,-21.87 -23.91,-27.35 -8.74,-5.64 -17.76,-8.33 -27.13,-9.12 -7.75,-0.77 -17.11,-2.43 -26.01,-5.76 -9.13,-3.18 -17.57,-8.22 -26.47,-13.98 3.91,1.21 7.74,1.85 11.46,2.1 3.58,0.35 7.08,0.26 10.47,-0.09 6.77,-0.7 13.07,-2.49 18.6,-4.07 13.9,-3.99 30.11,3.77 44.14,19.82 3.59,3.94 7.16,8.31 10.66,12.99 3.45,4.72 6.36,10.01 9.42,15.39 6.01,10.82 11.82,22.41 15.82,34.52 -5.32,-4.22 -10.63,-7.41 -16.05,-9.65 -5.57,-2.17 -11.03,-3.47 -16.25,-4.09"
         style="fill:#4d4d4d;fill-opacity:1;fill-rule:nonzero;stroke:none;stroke-width:0.817241;stroke-dasharray:none"
         id="path730" />
      <path
         d="m 4144.5,2142.32 c 2.54,-4.57 5.44,-8.18 8.42,-11.54 3.05,-3.38 6.33,-6.55 9.44,-10.28 8.75,-10.58 16.15,-26.71 15.74,-44.64 1.37,5.58 2.87,11.05 3.76,16.61 0.75,5.62 1.33,11.13 1.69,16.46 0.36,5.33 0.5,10.47 0.37,15.33 -0.45,4.97 -1.18,9.66 -2.17,13.98 -4.35,18.43 -16.18,18.89 -26.5,26.86 -7.97,5.9 -15.6,13.26 -21.39,21.81 -1.55,-16.14 -3.74,-32.71 -2.04,-47.86 0.7,-14.77 5.78,-28.65 16.55,-37.5 8.62,-7.01 19.48,-16.22 23.18,-31.95 0.47,10.11 -0.84,19.63 -3.72,28.07 -3.22,8.6 -7.65,15.97 -12.56,21.72 -5.93,6.86 -10.21,13.72 -13.41,21.46 -3.31,7.79 -4.92,16.22 -4.2,25.99 0.74,-8.62 2.65,-16.8 6.84,-24.52"
         style="fill:#4d4d4d;fill-opacity:1;fill-rule:nonzero;stroke:none;stroke-width:0.817241;stroke-dasharray:none"
         id="path732" />
      <path
         d="m 4217.98,2127.73 c -2.96,-3.58 -5.81,-7.55 -8.59,-11.81 -3.1,-4.15 -6.12,-8.59 -9.05,-13.22 -2.93,-4.64 -5.76,-9.47 -8.5,-14.42 -2.97,-4.85 -5.97,-9.76 -8.97,-14.67 13.07,12.08 27.17,20.81 41.04,24.73 4.79,1.38 9.42,2.26 14.04,3.65 4.69,1.38 9.22,3.33 13.65,7.01 7.64,6.22 13.82,15.27 19.36,26.03 -4.94,-13.08 -11.01,-22.67 -17.96,-29.56 -7.06,-6.87 -15.61,-10.85 -24.4,-13.3 -7.49,-2.04 -15.51,-5.54 -23.15,-10.36 -7.98,-4.68 -15.94,-10.51 -22.64,-17.83 13.43,7.66 27.68,6.59 38.84,5.68 14.32,-1.27 26.78,9.5 38.2,26.5 10.4,17.28 18.95,40.89 22.92,64.49 -8.84,-9.63 -18.69,-15.43 -28.18,-18.51 -13.03,-3.89 -23.89,1.12 -36.61,-14.41"
         style="fill:#4d4d4d;fill-opacity:1;fill-rule:nonzero;stroke:none;stroke-width:0.817241;stroke-dasharray:none"
         id="path734" />
      <path
         d="m 4178.65,2187.74 c 9.99,-8.22 19.34,-21.76 22.61,-38.54 1.23,21.71 -0.29,43.17 -7.19,58.53 -6.9,16.34 -18.3,14.7 -29.68,20.34 -8.48,4.11 -16.82,9.65 -23.55,16.66 -0.04,-7.68 0.9,-15.55 1.51,-23.18 0.56,-7.62 1.78,-15.07 3.86,-22.02 3.63,-13.75 9.75,-25.56 22.06,-31.91 4.79,-2.48 10.22,-5.38 15.32,-9.4 4.93,-3.98 9.34,-9.06 12.33,-15.97 -0.53,4.69 -1.5,9.18 -2.82,13.39 -1.62,4.29 -3.57,8.3 -5.77,11.98 -4.38,7.36 -9.74,13.37 -15.33,17.82 -3.32,2.64 -6.3,5.37 -9.02,8.27 -2.88,2.92 -5.43,6.01 -7.6,9.34 -4.38,6.67 -6.96,14.24 -8.01,23.54 2.28,-7.95 5.11,-15.24 10.33,-21.7 5.98,-7.6 14.01,-11.39 20.95,-17.15"
         style="fill:#4d4d4d;fill-opacity:1;fill-rule:nonzero;stroke:none;stroke-width:0.817241;stroke-dasharray:none"
         id="path736" />
      <path
         d="m 4263.09,2224.11 c -11.61,-5.88 -22.79,-3.12 -32.68,-19.7 -8.73,-15.4 -16.86,-35.95 -24.21,-56.42 9.78,13.68 22.18,24.22 34.89,30.29 8.93,4.25 16.77,6.49 24.4,14.77 6.33,7.07 11.09,16.46 14.49,27.33 -2.47,-12.9 -7.05,-22.77 -12.6,-30.33 -2.81,-3.79 -5.93,-7 -9.33,-9.74 -3.55,-2.73 -7.45,-4.98 -11.52,-6.88 -6.87,-3.21 -14.03,-7.86 -20.63,-13.67 -3.3,-2.9 -6.47,-6.1 -9.39,-9.57 -3.22,-3.41 -6.21,-7.1 -8.89,-11.07 5.85,4.73 12.29,7.49 18.52,9.22 6.07,1.78 12.11,2.48 17.42,3.09 13.33,1.52 24.45,13.52 32.01,31.25 3.51,8.88 6.33,19.11 8.57,29.91 2.18,10.81 2.77,22.24 3.43,33.44 -7.15,-10.39 -15.79,-17.44 -24.48,-21.92"
         style="fill:#4d4d4d;fill-opacity:1;fill-rule:nonzero;stroke:none;stroke-width:0.817241;stroke-dasharray:none"
         id="path738" />
      <path
         d="m 4183.37,2253.24 c 11.54,-5.93 21.57,-16.89 27.79,-31.91 -1.36,10.18 -2.74,20.2 -5.43,29.31 -2.88,9.09 -5.92,17.3 -10.3,23.86 -9.43,13.99 -20.16,10.52 -31.67,13.87 -8.5,2.41 -17.62,6.11 -25.16,11.48 5.79,-28.23 13.2,-59.28 37.96,-67.15 4.95,-1.47 10.57,-3.22 16.03,-6.07 5.54,-2.85 10.65,-6.8 14.49,-12.67 -2.2,8.49 -7.04,15.99 -12.19,22.06 -5.27,6.08 -11.09,10.76 -17.4,13.93 -14.74,7.58 -24.86,17.23 -29.94,34.12 3.23,-7.04 7.68,-13.28 13.39,-18.42 6.73,-6.08 14.55,-8.25 22.43,-12.41"
         style="fill:#4d4d4d;fill-opacity:1;fill-rule:nonzero;stroke:none;stroke-width:0.817241;stroke-dasharray:none"
         id="path740" />
      <path
         d="m 4259.1,2301.46 c -10.55,-7.46 -21.65,-6.8 -28.31,-23.85 -3.12,-7.89 -6.17,-16.98 -8.27,-26.59 -2.3,-9.62 -4.77,-19.8 -6.44,-29.95 6.76,14.43 18.03,26.3 28.59,34.1 7.56,5.45 15.2,8.9 21.44,17.89 5.29,7.65 7.82,17.11 9.64,27.8 -0.68,-24.84 -10.93,-39.45 -24.99,-49.24 -5.82,-4.15 -12.21,-9.68 -17.71,-16.2 -5.62,-6.52 -10.11,-14.03 -14.28,-22.3 4.98,5.4 10.61,9.08 16.11,11.77 5.58,2.7 11.29,4.4 16.31,5.88 12.7,3.72 21.56,16.67 25.88,34.4 1.11,4.42 2.16,9.12 2.78,14.01 0.53,4.89 0.87,9.97 1.04,15.16 0.12,5.19 0.29,10.51 -0.07,15.79 -0.38,5.29 -0.89,10.6 -1.51,15.84 -5.3,-10.86 -12.28,-18.83 -20.21,-24.51"
         style="fill:#4d4d4d;fill-opacity:1;fill-rule:nonzero;stroke:none;stroke-width:0.817241;stroke-dasharray:none"
         id="path742" />
      <path
         d="m 4154.96,2322.8 c 7.43,-4.52 15.38,-5.19 23.49,-7.74 5.72,-1.86 11.49,-4.86 16.89,-9.03 5.37,-4.17 10.52,-9.5 14.12,-16.01 l -1.8,6.94 -2.34,6.72 c -1.61,4.41 -3.33,8.68 -5.14,12.72 -3.65,8.07 -8.48,15.03 -13.25,20.5 -10.7,11.55 -20.9,6.41 -32.4,7.62 -8.77,0.75 -17.24,2.97 -25.6,6.65 4.6,-12.9 9.96,-26.1 17.08,-36.62 7.24,-10.46 16.02,-18.47 28.84,-19.8 10.08,-1.04 22.44,-2.69 31.96,-12.26 -7.24,15.07 -21.27,24.65 -33.66,28.48 -7.31,2.33 -14.2,5.25 -19.8,9.52 -5.63,4.26 -9.94,9.87 -13.77,17.32 2.13,-3.01 4.58,-5.75 7.05,-8.29 2.44,-2.55 5.17,-4.82 8.33,-6.72"
         style="fill:#4d4d4d;fill-opacity:1;fill-rule:nonzero;stroke:none;stroke-width:0.817241;stroke-dasharray:none"
         id="path744" />
      <path
         d="m 4220.47,2345.76 c -2.25,-7.96 -3.16,-16.77 -4.22,-26.16 -0.54,-4.7 -0.93,-9.5 -1.19,-14.34 l -0.31,-7.28 -0.53,-7.36 c 2.67,7.37 5.75,14.18 9.64,20.36 3.88,6.18 8.42,11.71 13.19,16.26 6.55,6.36 13.27,10.83 17.91,20.23 1.96,3.99 3.35,8.33 4.32,12.95 0.92,4.62 1.14,9.45 1.21,14.55 1.56,-11.52 0.02,-21.26 -3.06,-29.42 -3.11,-8.17 -7.78,-14.78 -14.15,-20.61 -10.62,-9.85 -20.05,-24.55 -25.13,-41.24 7.54,11.7 19.56,17.51 28.63,21.94 11.49,5.58 18.13,19.16 19.93,36.38 1.93,17.21 -0.8,37.89 -6.02,56.96 -3.3,-10.86 -9.74,-19.73 -16.33,-26.26 -9.14,-8.73 -19.54,-9.87 -23.89,-26.96"
         style="fill:#4d4d4d;fill-opacity:1;fill-rule:nonzero;stroke:none;stroke-width:0.817241;stroke-dasharray:none"
         id="path746" />
      <path
         d="m 4165.04,2371.96 c 5.81,-0.77 11.84,-2.59 17.68,-5.56 5.7,-3.01 10.94,-7.27 15.58,-12.65 -3.63,8.27 -7.57,16.27 -12.49,23.09 -4.7,6.9 -9.68,12.86 -15.36,17.04 -11.89,9.03 -20.65,2.74 -31.94,1.98 -8.5,-0.69 -17.43,-0.22 -25.6,2.09 6.11,-11.42 12.85,-23.05 21.17,-31.74 8.08,-8.76 18.2,-14.58 30.27,-13.85 9.63,0.65 21.96,1.24 32.57,-6.04 -4.8,6.3 -10.68,11.23 -16.9,14.73 -6.17,3.53 -13.2,5.45 -19.46,6.23 -7.55,0.9 -14.26,2.62 -20.08,5.76 -6.09,3.04 -11.29,7.47 -15.5,14.07 4.71,-5.05 10.01,-9.15 16.7,-11.65 7.8,-3 15.2,-2.46 23.36,-3.5"
         style="fill:#4d4d4d;fill-opacity:1;fill-rule:nonzero;stroke:none;stroke-width:0.817241;stroke-dasharray:none"
         id="path748" />
      <path
         d="m 4201.55,2407.68 c -0.76,-7.65 -1.06,-16.27 -0.72,-25.18 0.56,-8.83 1.07,-18.19 1.96,-27.39 1.27,7.23 3.74,14.25 6.69,20.68 2.81,6.38 6.35,12.26 10.28,17.28 5.43,7.02 11.64,12.44 14.84,21.95 2.62,8.05 2.87,16.99 1.89,26.63 2.49,-10.71 2.57,-19.92 0.77,-27.99 -2.07,-8.19 -5.99,-15.25 -11.15,-21.68 -4.42,-5.44 -8.17,-11.94 -11.59,-19.26 -3.37,-7.3 -5.88,-15.22 -6.87,-23.37 5.5,12.14 16.04,19.5 24.35,25.21 10.74,7.29 14.72,20.82 14.5,37.3 -0.43,16.34 -5.51,35.25 -12.86,52.23 -2.19,-10.89 -6.79,-19.97 -12.35,-27.18 -7.62,-9.62 -17.85,-12.57 -19.74,-29.23"
         style="fill:#4d4d4d;fill-opacity:1;fill-rule:nonzero;stroke:none;stroke-width:0.817241;stroke-dasharray:none"
         id="path750" />
      <path
         d="m 4145.21,2423.41 c 11.18,0.34 23.92,-3.18 34.14,-11.81 -4.44,7.2 -9.7,13.84 -14.82,19.7 -5.36,5.73 -11.22,10.34 -16.85,13.58 -12.34,6.75 -20.38,-0.79 -31.07,-3.22 -8.06,-1.95 -16.45,-2.7 -24.67,-1.81 14.4,-19.7 31.4,-40.34 54.9,-35.08 9.26,2.2 21.18,4.82 31.94,-0.45 -2.62,2.6 -5.41,4.87 -8.42,6.73 -3.11,1.81 -6.35,3.26 -9.62,4.38 -6.54,2.23 -13.2,3.09 -19.31,2.83 -7.22,-0.28 -14.18,0.12 -20.22,2.13 -6.12,1.98 -11.34,5.56 -16.56,10.91 5.46,-3.84 10.88,-7.01 17.47,-8.41 7.8,-1.64 15.06,0.17 23.09,0.52"
         style="fill:#4d4d4d;fill-opacity:1;fill-rule:nonzero;stroke:none;stroke-width:0.817241;stroke-dasharray:none"
         id="path752" />
      <path
         d="m 4178.27,2439.03 c 1.18,-8.43 3.3,-16.9 5.23,-25.43 0.7,13.99 5.24,27.63 11.71,38.42 4.33,7.43 9.43,13.39 11.44,22.86 1.72,8.08 1.1,16.63 -1.25,25.32 3.99,-9.42 4.81,-18.26 3.92,-26.2 -0.96,-7.98 -3.6,-15.06 -7.92,-22 -3.59,-5.82 -6.74,-12.71 -8.96,-20.04 -1.1,-3.66 -1.97,-7.44 -2.54,-11.26 -0.68,-3.87 -1.14,-7.84 -1.19,-11.79 4.11,12.46 13.18,20.99 20.37,27.65 4.58,4.24 7.48,9.69 9,16.06 1.52,6.37 1.72,13.69 0.41,21.24 -1.28,7.56 -3.3,15.82 -6.59,23.73 -3.33,7.89 -7.14,15.97 -11.57,23.41 -0.81,-10.53 -4.45,-19.99 -8.98,-27.66 -6.28,-10.31 -15.41,-14.45 -15.44,-30.54 -0.15,-7.51 0.95,-15.46 2.36,-23.77"
         style="fill:#4d4d4d;fill-opacity:1;fill-rule:nonzero;stroke:none;stroke-width:0.817241;stroke-dasharray:none"
         id="path754" />
      <path
         d="m 4079.46,2464.3 c 4.42,-3.73 9.06,-7.03 13.63,-9.77 4.68,-2.65 9.65,-4.46 14.84,-5.06 5.03,-0.72 10.29,-0.24 15.74,1.98 8.58,3.47 19.6,7.71 30.86,4.64 -11.64,8 -25.63,9.93 -37.64,7.27 -14.12,-2.94 -25.8,-1.94 -36.71,6.91 5.41,-3.06 11.32,-4.97 17.78,-5.33 7.59,-0.46 14.32,2.34 21.92,3.84 5.42,1.05 11.39,1.34 17.22,0.43 5.76,-0.96 11.56,-3.01 16.97,-6.26 -10.18,12.23 -22.41,22.35 -34.07,26.67 -12.8,4.35 -19.42,-3.77 -29.45,-7.7 -7.39,-2.92 -15.54,-5.03 -23.6,-5.45 4.12,-4.08 8.17,-8.37 12.51,-12.17"
         style="fill:#4d4d4d;fill-opacity:1;fill-rule:nonzero;stroke:none;stroke-width:0.817241;stroke-dasharray:none"
         id="path756" />
      <path
         d="m 4107.54,2508.06 c 4.53,-1.39 9.34,-3.47 14.27,-6.18 4.85,-2.77 9.78,-6.24 13.24,-11.33 -2.13,6.91 -6.41,12.9 -11.04,18.33 -4.58,5.49 -10.31,9.7 -15.84,12.82 -3.27,1.85 -6.26,3.8 -8.98,5.95 -2.85,2 -5.43,4.18 -7.71,6.64 -4.56,4.92 -7.85,11.03 -10.33,18.42 3.31,-6.21 6.81,-12.07 12.09,-16.78 6.34,-5.43 13.24,-7.97 20.34,-12.18 2.56,-1.5 5.11,-3.22 7.59,-5.14 2.43,-1.97 4.66,-4.27 6.83,-6.67 4.22,-4.9 8.29,-10.17 10.64,-16.38 -0.61,7.96 -2.4,15.55 -4.46,23.1 -2.03,7.59 -5.18,14.39 -8.95,20.33 -7.98,12.98 -18.8,11.54 -29.22,15.89 -7.96,3.04 -16.11,6.89 -22.93,12.67 2.34,-13.31 6.08,-25.93 11.01,-36.88 5.34,-10.54 12.2,-19.01 23.45,-22.61"
         style="fill:#4d4d4d;fill-opacity:1;fill-rule:nonzero;stroke:none;stroke-width:0.817241;stroke-dasharray:none"
         id="path758" />
      <path
         d="m 4157.81,2465.48 c -0.49,6.66 0.07,13.42 1.37,19.94 1.22,6.46 3.02,12.56 5.48,18.1 3.4,7.74 7.67,14.18 8.66,23.52 0.81,7.92 -1.05,15.62 -3.97,23.71 9.35,-16.93 7.75,-32.08 1.3,-46.25 -5.23,-11.88 -9.09,-27.89 -7.13,-42.52 2.18,12.18 10.04,21.73 16.25,29.18 16.31,18.92 2.6,52.78 -17.5,78.46 0.37,-10.04 -1.94,-19.38 -5.62,-27.47 -4.89,-10.68 -13.47,-16.23 -11.53,-31.27 1.49,-14.18 7.05,-29.89 12.69,-45.4"
         style="fill:#4d4d4d;fill-opacity:1;fill-rule:nonzero;stroke:none;stroke-width:0.817241;stroke-dasharray:none"
         id="path760" />
      <path
         d="m 3626.14,2505.95 c 0,3.21 -1.25,5.94 -3.73,8.21 -2.49,2.26 -5.59,3.39 -9.28,3.39 h -16.14 v -58.92 h 16.14 c 3.69,0 6.79,1.13 9.28,3.39 2.48,2.27 3.73,5.08 3.73,8.44 z m -29.15,38.33 h 14.45 c 3.69,0 6.79,1.17 9.28,3.5 2.49,2.34 3.74,5.12 3.74,8.33 v 25.63 c 0,3.21 -1.25,5.95 -3.74,8.22 -2.49,2.26 -5.59,3.39 -9.28,3.39 h -14.45 z m 41.44,-12.7 c 3.86,-3.07 6.95,-6.83 9.28,-11.29 2.32,-4.45 3.49,-9.23 3.49,-14.34 v -35.49 c 0,-4.82 -1.01,-9.31 -3.01,-13.47 -2.01,-4.16 -4.74,-7.82 -8.2,-10.96 -3.45,-3.14 -7.46,-5.62 -12.04,-7.44 -4.58,-1.83 -9.52,-2.74 -14.82,-2.74 l -48.19,0.22 c 1.44,1.6 2.73,3.43 3.85,5.47 0.96,1.61 1.84,3.54 2.65,5.81 0.8,2.26 1.2,4.63 1.2,7.12 v 145.67 c 0,2.04 -0.4,4.01 -1.2,5.92 -0.81,1.89 -1.69,3.64 -2.65,5.25 -1.12,1.61 -2.41,3.21 -3.85,4.82 h 46.5 c 5.3,0 10.25,-0.91 14.82,-2.74 4.58,-1.83 8.59,-4.27 12.05,-7.33 3.46,-3.07 6.18,-6.69 8.19,-10.85 2.01,-4.16 3.01,-8.65 3.01,-13.47 v -25.63 c 0,-4.68 -1,-9.13 -3.01,-13.36 -2.01,-4.24 -4.69,-7.97 -8.07,-11.17"
         style="fill:#4d4d4d;fill-opacity:1;fill-rule:nonzero;stroke:none;stroke-width:0.817241;stroke-dasharray:none"
         id="path1276" />
      <path
         d="m 3731.44,2505.95 c 0,3.21 -1.25,5.94 -3.74,8.21 -2.49,2.26 -5.58,3.39 -9.28,3.39 h -16.14 v -58.92 h 16.14 c 3.7,0 6.79,1.13 9.28,3.39 2.49,2.27 3.74,5.08 3.74,8.44 z m -29.16,38.33 h 14.45 c 3.7,0 6.79,1.17 9.28,3.5 2.49,2.34 3.74,5.12 3.74,8.33 v 25.63 c 0,3.21 -1.25,5.95 -3.74,8.22 -2.49,2.26 -5.58,3.39 -9.28,3.39 h -14.45 z m 41.45,-12.7 c 3.85,-3.07 6.94,-6.83 9.28,-11.29 2.32,-4.45 3.49,-9.23 3.49,-14.34 v -35.49 c 0,-4.82 -1.01,-9.31 -3.01,-13.47 -2.02,-4.16 -4.75,-7.82 -8.2,-10.96 -3.45,-3.14 -7.47,-5.62 -12.04,-7.44 -4.59,-1.83 -9.52,-2.74 -14.83,-2.74 l -48.19,0.22 c 1.44,1.6 2.73,3.43 3.86,5.47 0.96,1.61 1.84,3.54 2.65,5.81 0.8,2.26 1.2,4.63 1.2,7.12 v 145.67 c 0,2.04 -0.4,4.01 -1.2,5.92 -0.81,1.89 -1.69,3.64 -2.65,5.25 -1.13,1.61 -2.42,3.21 -3.86,4.82 h 46.5 c 5.31,0 10.25,-0.91 14.83,-2.74 4.57,-1.83 8.59,-4.27 12.05,-7.33 3.45,-3.07 6.17,-6.69 8.19,-10.85 2.01,-4.16 3.01,-8.65 3.01,-13.47 v -25.63 c 0,-4.68 -1,-9.13 -3.01,-13.36 -2.02,-4.24 -4.7,-7.97 -8.07,-11.17"
         style="fill:#4d4d4d;fill-opacity:1;fill-rule:nonzero;stroke:none;stroke-width:0.817241;stroke-dasharray:none"
         id="path1278" />
      <path
         d="m 3820.84,2458.63 c 3.69,0 6.78,1.13 9.27,3.39 2.49,2.27 3.74,5.08 3.74,8.44 l 0.24,109.53 c 0,3.36 -1.29,6.16 -3.86,8.43 -2.57,2.27 -5.62,3.39 -9.15,3.39 h -7.47 c -3.7,0 -6.79,-1.12 -9.28,-3.39 -2.49,-2.27 -3.73,-5.07 -3.73,-8.43 v -109.53 c 0,-3.36 1.24,-6.17 3.73,-8.44 2.49,-2.26 5.58,-3.39 9.28,-3.39 z m 35.42,-13.36 c 0.96,-0.3 2.05,-0.11 3.25,0.54 1.2,0.66 2.37,1.35 3.49,2.08 1.28,0.88 2.65,1.98 4.1,3.29 v -35.7 c -1.28,1.45 -2.65,2.84 -4.1,4.16 -1.29,1.17 -2.77,2.15 -4.45,2.96 -1.69,0.8 -3.5,1.35 -5.43,1.64 -5.62,0.29 -10.36,1.6 -14.21,3.94 -3.85,2.34 -6.91,5.26 -9.16,8.76 -3.21,-0.73 -6.18,-1.09 -8.91,-1.09 h -7.23 c -5.31,0 -10.24,0.91 -14.82,2.74 -4.58,1.82 -8.6,4.3 -12.05,7.44 -3.46,3.14 -6.19,6.8 -8.19,10.96 -2.01,4.16 -3.02,8.65 -3.02,13.47 v 109.53 c 0,4.82 1.01,9.31 3.02,13.47 2,4.16 4.73,7.81 8.19,10.95 3.45,3.14 7.47,5.62 12.05,7.45 4.58,1.82 9.51,2.74 14.82,2.74 h 7.47 c 5.3,0 10.24,-0.92 14.82,-2.74 4.57,-1.83 8.55,-4.31 11.92,-7.45 3.38,-3.14 6.07,-6.79 8.08,-10.95 2,-4.16 3.01,-8.65 3.01,-13.47 v -109.53 c 0,-4.09 -0.72,-7.96 -2.17,-11.61 -1.44,-3.65 -3.46,-6.94 -6.03,-9.86 1.45,-2.05 3.3,-3.28 5.55,-3.72"
         style="fill:#4d4d4d;fill-opacity:1;fill-rule:nonzero;stroke:none;stroke-width:0.817241;stroke-dasharray:none"
         id="path1280" />
      <path
         d="m 3372.8,2359.74 c 0,3.51 -0.68,6.26 -2.04,8.29 -1.37,2.02 -3.88,3.04 -7.52,3.04 h -6.04 v -24.87 h 5.33 c 3.39,0 5.94,1.02 7.67,3.08 1.74,2.06 2.6,5.55 2.6,10.46 z m -25.39,16.31 c 0,0.24 0.08,0.49 0.23,0.73 0.16,0.19 0.37,0.37 0.61,0.56 0.23,0.18 0.64,0.27 1.21,0.27 h 11.97 c 7.67,0 13.29,-1.43 16.89,-4.28 3.6,-2.86 5.38,-7.51 5.38,-13.96 0,-4.97 -0.97,-8.89 -2.9,-11.75 -1.93,-2.85 -4.48,-4.96 -7.63,-6.31 0.97,-0.92 2.05,-2.15 3.21,-3.69 1.18,-1.53 2.32,-3.38 3.45,-5.52 1.13,-2.15 2.11,-4.66 2.97,-7.55 0.85,-2.89 1.43,-6.15 1.74,-9.77 0,-0.68 -0.23,-1.15 -0.7,-1.43 -0.5,-0.28 -1.91,-0.41 -4.26,-0.41 -0.79,0 -1.68,0.01 -2.65,0.04 -0.97,0.03 -2.02,0.08 -3.15,0.14 -0.32,3.87 -0.9,7.28 -1.68,10.23 -0.82,2.95 -1.71,5.48 -2.68,7.6 -0.96,2.11 -1.95,3.86 -2.96,5.25 -1.01,1.38 -1.88,2.44 -2.61,3.18 -0.4,-0.07 -0.8,-0.1 -1.21,-0.1 -0.39,0 -0.8,0 -1.21,0 h -4.23 v -24.69 c 0,-0.36 -0.06,-0.66 -0.18,-0.87 -0.13,-0.22 -0.49,-0.37 -1.09,-0.46 -0.6,-0.09 -1.58,-0.14 -2.9,-0.14 -1.34,0 -3.21,0 -5.62,0 v 62.93"
         style="fill:#4d4d4d;fill-opacity:1;fill-rule:nonzero;stroke:none;stroke-width:0.817241;stroke-dasharray:none"
         id="path1282" />
      <path
         d="m 3423.28,2319.85 c 0,-1.6 -0.02,-2.84 -0.06,-3.73 -0.04,-0.9 -0.12,-1.56 -0.25,-1.99 -0.11,-0.43 -0.29,-0.7 -0.54,-0.83 -0.25,-0.12 -0.6,-0.18 -1.09,-0.18 h -28.68 v 62.93 c 0,0.24 0.08,0.49 0.24,0.73 0.15,0.19 0.39,0.37 0.67,0.56 0.27,0.18 0.67,0.27 1.14,0.27 h 28.94 c 0,-1.53 0,-2.75 0,-3.64 0,-0.89 -0.08,-1.57 -0.18,-2.03 -0.13,-0.46 -0.32,-0.75 -0.55,-0.87 -0.24,-0.13 -0.61,-0.19 -1.09,-0.19 h -19.24 v -19.25 h 18.15 c 0,-1.41 0,-2.58 0,-3.5 0,-0.92 -0.06,-1.63 -0.19,-2.12 -0.12,-0.49 -0.29,-0.83 -0.54,-1.01 -0.25,-0.19 -0.61,-0.28 -1.09,-0.28 h -16.33 v -24.87 h 20.69"
         style="fill:#4d4d4d;fill-opacity:1;fill-rule:nonzero;stroke:none;stroke-width:0.817241;stroke-dasharray:none"
         id="path1284" />
      <path
         d="m 3444.22,2336.33 h 16.7 l -4.12,13.09 c -0.48,1.54 -0.95,3.1 -1.4,4.7 -0.44,1.6 -0.84,3.18 -1.2,4.75 -0.37,1.56 -0.69,3.05 -0.98,4.47 -0.27,1.4 -0.49,2.66 -0.65,3.77 -0.16,-1.11 -0.41,-2.37 -0.74,-3.77 -0.31,-1.42 -0.65,-2.89 -1.02,-4.43 -0.37,-1.53 -0.74,-3.12 -1.16,-4.74 -0.39,-1.63 -0.84,-3.21 -1.32,-4.75 z m 18.75,-6.81 h -20.82 l -4.71,-15.11 c -0.16,-0.49 -0.49,-0.86 -0.97,-1.11 -0.49,-0.24 -1.7,-0.36 -3.63,-0.36 -0.65,0 -1.56,0.01 -2.73,0.04 -1.17,0.03 -2.31,0.11 -3.44,0.23 l 21.54,63.39 c 0.23,0.86 1.5,1.29 3.75,1.29 1.86,0 3.39,-0.09 4.6,-0.28 l 21.67,-63.11 c 0.16,-0.49 -0.03,-0.87 -0.55,-1.15 -0.53,-0.28 -1.76,-0.41 -3.69,-0.41 -0.73,0 -1.58,0 -2.54,0 -0.97,0 -2.06,0.06 -3.28,0.18 l -5.2,16.4"
         style="fill:#4d4d4d;fill-opacity:1;fill-rule:nonzero;stroke:none;stroke-width:0.817241;stroke-dasharray:none"
         id="path1286" />
      <path
         d="m 3494.08,2320.12 h 20.81 v -5.53 c 0,-0.61 -0.18,-1.01 -0.55,-1.19 -0.35,-0.19 -0.87,-0.28 -1.5,-0.28 h -28.68 v 62.37 c 0,0.56 0.06,0.97 0.17,1.25 0.12,0.27 0.52,0.47 1.15,0.6 0.65,0.12 1.64,0.19 2.96,0.23 1.34,0.03 3.21,0.04 5.64,0.04 v -57.49"
         style="fill:#4d4d4d;fill-opacity:1;fill-rule:nonzero;stroke:none;stroke-width:0.817241;stroke-dasharray:none"
         id="path1288" />
      <path
         d="m 3921.56,2378.53 c 4.42,0 7.54,-0.44 9.34,-1.33 1.82,-0.89 2.72,-1.98 2.72,-3.27 0,-0.68 -0.14,-1.4 -0.41,-2.17 -0.27,-0.77 -0.75,-1.49 -1.43,-2.17 -0.68,0.5 -1.81,1 -3.4,1.52 -1.6,0.53 -3.48,0.79 -5.63,0.79 -2.77,0 -4.95,-0.57 -6.55,-1.71 -1.59,-1.13 -2.39,-2.69 -2.39,-4.65 0,-1.71 0.35,-3.25 1.06,-4.6 0.71,-1.35 1.77,-2.86 3.18,-4.51 l 9.95,-11.34 c 1.17,-1.41 2.16,-2.75 2.96,-4.01 0.79,-1.26 1.44,-2.52 1.93,-3.78 0.49,-1.26 0.83,-2.52 1.01,-3.78 0.18,-1.25 0.28,-2.58 0.28,-4 0,-2.33 -0.28,-4.54 -0.83,-6.63 -0.55,-2.09 -1.46,-3.93 -2.72,-5.53 -1.26,-1.6 -2.95,-2.86 -5.07,-3.78 -2.12,-0.92 -4.74,-1.38 -7.88,-1.38 -4.18,0 -7.24,0.6 -9.17,1.8 -1.92,1.19 -2.89,2.44 -2.89,3.73 0,0.74 0.15,1.59 0.46,2.58 0.31,0.98 0.8,1.9 1.46,2.76 0.98,-0.86 2.26,-1.61 3.83,-2.25 1.57,-0.65 3.45,-0.97 5.67,-0.97 3.32,0 5.65,0.86 7,2.58 1.35,1.72 2.03,3.99 2.03,6.82 0,2.09 -0.39,4.01 -1.15,5.79 -0.77,1.79 -2.17,3.84 -4.2,6.18 l -9.3,10.78 c -2.1,2.58 -3.57,4.9 -4.43,6.96 -0.85,2.06 -1.28,4.16 -1.28,6.3 0,3.87 1.33,7.05 4,9.54 2.67,2.49 6.62,3.73 11.85,3.73"
         style="fill:#4d4d4d;fill-opacity:1;fill-rule:nonzero;stroke:none;stroke-width:0.817241;stroke-dasharray:none"
         id="path1290" />
      <path
         d="m 3940.25,2376.05 c 0,0.73 0.15,1.18 0.46,1.33 0.3,0.15 0.68,0.23 1.1,0.23 h 5.44 l 8.76,-27.82 c 0.24,-0.92 0.54,-1.94 0.88,-3.04 0.33,-1.11 0.64,-2.18 0.92,-3.23 0.27,-1.04 0.52,-1.93 0.73,-2.67 0.21,-0.74 0.35,-1.2 0.41,-1.38 0,0.06 0.1,0.47 0.28,1.24 0.18,0.77 0.42,1.66 0.7,2.67 0.27,1.02 0.54,2.08 0.82,3.18 0.28,1.11 0.57,2.09 0.88,2.95 l 8.1,26.54 c 0.12,0.49 0.27,0.87 0.46,1.15 0.19,0.27 0.52,0.41 1.01,0.41 h 6.08 v -63.02 c 0,-0.36 -0.04,-0.66 -0.13,-0.87 -0.09,-0.22 -0.37,-0.37 -0.83,-0.46 -0.46,-0.09 -1.22,-0.14 -2.26,-0.14 -1.04,0 -2.52,0 -4.42,0 l 0.28,22.38 c 0.06,2.22 0.16,4.74 0.32,7.56 0.15,2.83 0.32,5.58 0.5,8.25 0.18,2.67 0.36,5.05 0.51,7.14 0.15,2.09 0.26,3.5 0.32,4.24 -0.49,-1.72 -1.05,-3.67 -1.65,-5.85 -0.62,-2.18 -1.2,-4.27 -1.75,-6.27 -0.55,-1.99 -1.06,-3.78 -1.52,-5.34 -0.46,-1.57 -0.78,-2.63 -0.96,-3.18 l -4.89,-14 c -0.13,-0.31 -0.27,-0.51 -0.46,-0.6 -0.19,-0.09 -0.37,-0.14 -0.55,-0.14 h -3.23 l -4.79,14.74 c -0.18,0.49 -0.51,1.52 -0.97,3.09 -0.46,1.56 -0.99,3.36 -1.57,5.39 -0.58,2.02 -1.18,4.14 -1.8,6.36 -0.61,2.21 -1.16,4.2 -1.66,5.99 v -0.1 c 0.32,-3.25 0.59,-6.51 0.84,-9.76 0.24,-2.77 0.44,-5.7 0.6,-8.81 0.15,-3.1 0.26,-5.88 0.32,-8.34 l 0.18,-21.28 c 0,-0.36 -0.06,-0.66 -0.18,-0.87 -0.12,-0.22 -0.43,-0.37 -0.92,-0.46 -0.5,-0.09 -1.24,-0.14 -2.26,-0.14 -1.02,0 -2.38,0 -4.1,0 v 62.93"
         style="fill:#4d4d4d;fill-opacity:1;fill-rule:nonzero;stroke:none;stroke-width:0.817241;stroke-dasharray:none"
         id="path1292" />
      <path
         d="m 3992.49,2343.89 c 0,-4.3 0.14,-7.96 0.41,-10.97 0.28,-3 0.76,-5.47 1.44,-7.4 0.67,-1.94 1.54,-3.35 2.62,-4.24 1.08,-0.9 2.44,-1.34 4.09,-1.34 1.66,0 3.06,0.46 4.2,1.38 1.13,0.92 2.06,2.43 2.76,4.52 0.7,2.09 1.22,4.76 1.52,8.01 0.31,3.25 0.46,7.24 0.46,11.98 0,4.6 -0.14,8.49 -0.42,11.66 -0.27,3.16 -0.73,5.74 -1.38,7.73 -0.64,1.99 -1.5,3.42 -2.58,4.28 -1.07,0.86 -2.44,1.29 -4.1,1.29 -1.6,0 -2.95,-0.47 -4.09,-1.43 -1.14,-0.95 -2.07,-2.48 -2.81,-4.6 -0.73,-2.11 -1.27,-4.88 -1.61,-8.29 -0.34,-3.41 -0.51,-7.6 -0.51,-12.58 z m -8.39,1.84 c 0,6.15 0.36,11.31 1.06,15.49 0.71,4.16 1.8,7.53 3.28,10.08 1.47,2.55 3.32,4.38 5.52,5.48 2.22,1.11 4.8,1.66 7.73,1.66 3.02,0 5.56,-0.52 7.66,-1.57 2.08,-1.04 3.78,-2.81 5.06,-5.29 1.3,-2.49 2.23,-5.83 2.82,-9.99 0.58,-4.18 0.87,-9.37 0.87,-15.58 0,-6.33 -0.33,-11.64 -1.01,-15.93 -0.68,-4.3 -1.72,-7.78 -3.14,-10.42 -1.41,-2.64 -3.22,-4.53 -5.44,-5.66 -2.2,-1.14 -4.82,-1.71 -7.82,-1.71 -2.95,0 -5.48,0.49 -7.6,1.48 -2.12,0.98 -3.84,2.74 -5.16,5.29 -1.32,2.55 -2.29,5.98 -2.91,10.28 -0.61,4.29 -0.92,9.76 -0.92,16.39"
         style="fill:#4d4d4d;fill-opacity:1;fill-rule:nonzero;stroke:none;stroke-width:0.817241;stroke-dasharray:none"
         id="path1294" />
      <path
         d="m 4024.65,2376.05 c 0,0.36 0.04,0.65 0.14,0.87 0.08,0.22 0.36,0.37 0.82,0.46 0.46,0.09 1.2,0.15 2.22,0.19 1.01,0.03 2.47,0.04 4.37,0.04 v -27.82 l 14.64,27.36 c 0.86,0.19 1.71,0.32 2.54,0.42 0.83,0.09 1.58,0.13 2.26,0.13 2.76,0 3.78,-0.73 3.04,-2.21 l -14.84,-25.7 c 3.69,-2.77 6.76,-7.08 9.22,-12.95 2.46,-5.86 4.3,-13.21 5.53,-22.06 0.06,-0.68 -0.11,-1.15 -0.51,-1.43 -0.4,-0.28 -1.24,-0.41 -2.54,-0.41 -1.65,0 -3.4,0.09 -5.24,0.27 -1.36,7.19 -2.77,13.15 -4.24,17.88 -1.48,4.72 -3.51,8.5 -6.09,11.33 -0.55,0.55 -1.15,1.03 -1.79,1.43 -0.65,0.39 -1.31,0.75 -1.98,1.06 v -30.32 c 0,-0.36 -0.06,-0.66 -0.14,-0.87 -0.1,-0.22 -0.38,-0.37 -0.84,-0.46 -0.45,-0.09 -1.19,-0.14 -2.19,-0.14 -1.02,0 -2.48,0 -4.38,0 v 62.93"
         style="fill:#4d4d4d;fill-opacity:1;fill-rule:nonzero;stroke:none;stroke-width:0.817241;stroke-dasharray:none"
         id="path1296" />
      <path
         d="m 4084.35,2319.85 c 0,-1.6 -0.02,-2.84 -0.05,-3.73 -0.03,-0.9 -0.09,-1.56 -0.19,-1.99 -0.08,-0.43 -0.22,-0.7 -0.41,-0.83 -0.19,-0.12 -0.46,-0.18 -0.83,-0.18 h -21.83 v 62.93 c 0,0.24 0.06,0.49 0.18,0.73 0.12,0.19 0.3,0.37 0.51,0.56 0.21,0.18 0.5,0.27 0.86,0.27 h 22.04 c 0,-1.53 0,-2.75 0,-3.64 0,-0.89 -0.06,-1.57 -0.14,-2.03 -0.1,-0.46 -0.24,-0.75 -0.42,-0.87 -0.18,-0.13 -0.46,-0.19 -0.83,-0.19 h -14.65 v -19.25 h 13.82 c 0,-1.41 0,-2.58 0,-3.5 0,-0.92 -0.04,-1.63 -0.14,-2.12 -0.09,-0.49 -0.22,-0.83 -0.41,-1.01 -0.19,-0.19 -0.47,-0.28 -0.83,-0.28 h -12.44 v -24.87 h 15.76"
         style="fill:#4d4d4d;fill-opacity:1;fill-rule:nonzero;stroke:none;stroke-width:0.817241;stroke-dasharray:none"
         id="path1298" />
      <path
         d="m 3401.7,2642.99 c -2.63,2.8 -5.26,4.56 -7.93,5.29 -2.66,0.72 -5.34,-0.16 -8.01,-2.65 l -4.55,-4.26 19.96,-21.39 4.02,3.74 c 2.55,2.38 3.63,5.09 3.23,8.14 -0.39,3.03 -2.64,6.75 -6.72,11.13 z m -31.87,-4.23 c -0.85,0.9 -0.75,1.83 0.3,2.79 l 9.02,8.42 c 5.76,5.39 11.15,8.12 16.14,8.19 5,0.07 10.09,-2.68 15.27,-8.23 3.05,-3.27 5.16,-6.41 6.33,-9.43 1.17,-3.01 1.61,-5.92 1.3,-8.71 -0.28,-2.79 -1.17,-5.43 -2.66,-7.91 -1.5,-2.48 -3.37,-4.77 -5.62,-6.87 l -3.18,-2.98 19.82,-21.23 c 0.3,-0.32 0.48,-0.61 0.56,-0.89 0.08,-0.26 -0.06,-0.65 -0.45,-1.16 -0.37,-0.51 -1.06,-1.22 -2.07,-2.16 -1.01,-0.93 -2.41,-2.25 -4.24,-3.95 l -50.52,54.12"
         style="fill:#4d4d4d;fill-opacity:1;fill-rule:nonzero;stroke:none;stroke-width:0.817241;stroke-dasharray:none"
         id="path1300" />
      <path
         d="m 3442.92,2675.38 c -2.45,3.31 -4.96,5.5 -7.51,6.57 -2.56,1.08 -5.33,0.5 -8.34,-1.73 l -5,-3.72 17.43,-23.5 4.41,3.27 c 2.79,2.08 4.2,4.62 4.19,7.63 -0.01,3.01 -1.73,6.83 -5.18,11.48 z m -32.45,-0.19 c -0.18,0.23 -0.28,0.52 -0.32,0.85 0.01,0.27 0.05,0.57 0.11,0.89 0.07,0.33 0.34,0.66 0.8,1.01 l 9.92,7.35 c 6.33,4.71 11.99,6.81 16.97,6.31 4.97,-0.5 9.73,-3.79 14.24,-9.88 3.49,-4.71 5.43,-9 5.83,-12.89 0.4,-3.88 -0.23,-7.43 -1.89,-10.64 1.46,-0.27 3.2,-0.78 5.24,-1.51 2.05,-0.74 4.29,-1.78 6.74,-3.11 2.44,-1.34 5.01,-3.11 7.74,-5.32 2.72,-2.21 5.49,-4.92 8.3,-8.15 0.47,-0.64 0.61,-1.24 0.4,-1.79 -0.2,-0.57 -1.28,-1.56 -3.21,-3 -0.68,-0.5 -1.42,-1.02 -2.24,-1.58 -0.82,-0.57 -1.72,-1.17 -2.69,-1.81 -2.98,3.46 -5.84,6.33 -8.58,8.63 -2.73,2.29 -5.24,4.13 -7.54,5.54 -2.28,1.41 -4.32,2.46 -6.13,3.15 -1.81,0.68 -3.26,1.16 -4.38,1.41 -0.29,-0.31 -0.6,-0.58 -0.92,-0.84 -0.34,-0.24 -0.68,-0.49 -1.01,-0.74 l -3.51,-2.6 17.31,-23.33 c 0.26,-0.35 0.41,-0.66 0.47,-0.93 0.05,-0.29 -0.14,-0.65 -0.58,-1.11 -0.45,-0.46 -1.21,-1.1 -2.31,-1.92 -1.11,-0.81 -2.66,-1.96 -4.66,-3.45 l -44.1,59.46"
         style="fill:#4d4d4d;fill-opacity:1;fill-rule:nonzero;stroke:none;stroke-width:0.817241;stroke-dasharray:none"
         id="path1302" />
      <path
         d="m 3516.53,2666.28 c 0.96,-1.62 1.68,-2.9 2.18,-3.82 0.49,-0.92 0.81,-1.63 0.97,-2.14 0.14,-0.49 0.14,-0.87 0.01,-1.12 -0.15,-0.25 -0.43,-0.5 -0.86,-0.75 l -25.48,-14.97 -37.5,63.83 c -0.15,0.25 -0.23,0.55 -0.23,0.88 0.04,0.27 0.13,0.57 0.27,0.91 0.14,0.33 0.42,0.63 0.85,0.88 l 25.69,15.09 c 0.92,-1.56 1.64,-2.79 2.17,-3.69 0.54,-0.91 0.88,-1.62 1.04,-2.15 0.17,-0.53 0.18,-0.92 0.04,-1.18 -0.14,-0.25 -0.43,-0.5 -0.86,-0.75 l -17.09,-10.04 11.49,-19.54 16.11,9.48 c 0.84,-1.43 1.54,-2.62 2.1,-3.56 0.54,-0.93 0.91,-1.68 1.1,-2.24 0.18,-0.56 0.21,-0.99 0.11,-1.31 -0.11,-0.31 -0.37,-0.6 -0.8,-0.85 l -14.51,-8.52 14.82,-25.24 18.38,10.8"
         style="fill:#4d4d4d;fill-opacity:1;fill-rule:nonzero;stroke:none;stroke-width:0.817241;stroke-dasharray:none"
         id="path1304" />
      <path
         d="m 3499.16,2732.01 c -0.34,0.8 -0.37,1.36 -0.05,1.69 0.3,0.33 0.72,0.62 1.26,0.85 l 6.76,2.9 23.83,-25.37 c 0.73,-0.87 1.56,-1.8 2.5,-2.82 0.93,-1.01 1.81,-2.01 2.65,-2.99 0.83,-0.98 1.55,-1.81 2.15,-2.49 0.62,-0.68 1,-1.11 1.16,-1.27 -0.03,0.07 -0.1,0.56 -0.23,1.48 -0.13,0.94 -0.25,2.03 -0.39,3.27 -0.13,1.24 -0.27,2.53 -0.45,3.87 -0.17,1.35 -0.26,2.56 -0.27,3.66 l -2.29,33.01 c -0.08,0.59 -0.07,1.09 0.03,1.49 0.11,0.4 0.46,0.72 1.07,0.99 l 7.55,3.26 29.35,-68.1 c 0.17,-0.4 0.26,-0.74 0.24,-1.02 -0.02,-0.28 -0.29,-0.59 -0.82,-0.94 -0.53,-0.34 -1.45,-0.79 -2.73,-1.36 -1.3,-0.55 -3.14,-1.35 -5.51,-2.36 l -10.08,24.34 c -0.95,2.42 -1.99,5.2 -3.1,8.33 -1.14,3.14 -2.21,6.2 -3.23,9.18 -1,2.98 -1.9,5.65 -2.68,7.99 -0.79,2.33 -1.31,3.93 -1.57,4.75 0.18,-2.12 0.41,-4.52 0.66,-7.21 0.24,-2.69 0.5,-5.25 0.73,-7.7 0.25,-2.46 0.44,-4.65 0.61,-6.59 0.14,-1.94 0.24,-3.26 0.27,-3.96 l 0.45,-17.74 c 0,-0.4 -0.1,-0.7 -0.29,-0.9 -0.19,-0.19 -0.39,-0.34 -0.62,-0.44 l -4,-1.72 -12.82,13.36 c -0.46,0.42 -1.34,1.37 -2.64,2.81 -1.3,1.45 -2.79,3.11 -4.46,4.98 -1.67,1.88 -3.39,3.85 -5.2,5.91 -1.79,2.07 -3.41,3.92 -4.84,5.58 l 0.05,-0.1 c 1.88,-3.34 3.75,-6.71 5.57,-10.1 1.59,-2.86 3.21,-5.92 4.85,-9.19 1.63,-3.27 3.05,-6.22 4.27,-8.83 l 10.14,-22.91 c 0.18,-0.39 0.23,-0.74 0.19,-1.04 -0.05,-0.3 -0.37,-0.62 -0.94,-0.99 -0.57,-0.35 -1.48,-0.82 -2.74,-1.36 -1.26,-0.54 -2.95,-1.27 -5.09,-2.19 l -29.3,67.99"
         style="fill:#4d4d4d;fill-opacity:1;fill-rule:nonzero;stroke:none;stroke-width:0.817241;stroke-dasharray:none"
         id="path1306" />
      <path
         d="m 3564.66,2755.7 c -0.3,0.97 -0.48,1.72 -0.53,2.28 -0.03,0.55 0.21,1.04 0.71,1.47 0.53,0.43 1.45,0.87 2.79,1.33 1.34,0.46 3.2,1.07 5.57,1.81 l 22.26,-70.72 c 0.13,-0.42 0.16,-0.77 0.13,-1.04 -0.04,-0.29 -0.35,-0.57 -0.91,-0.86 -0.56,-0.29 -1.52,-0.65 -2.86,-1.07 -1.35,-0.43 -3.22,-1.01 -5.59,-1.76 l -21.57,68.56"
         style="fill:#4d4d4d;fill-opacity:1;fill-rule:nonzero;stroke:none;stroke-width:0.817241;stroke-dasharray:none"
         id="path1308" />
      <path
         d="m 3613.25,2717.68 c 0.45,-2.12 1,-4.06 1.62,-5.81 0.63,-1.75 1.51,-3.16 2.64,-4.26 1.12,-1.09 2.51,-1.83 4.16,-2.21 1.65,-0.39 3.79,-0.3 6.38,0.26 2.12,0.44 4.13,1.08 6.03,1.89 1.91,0.82 3.34,1.59 4.29,2.31 l -13.59,63.6 c -0.09,0.43 -0.1,0.78 -0.02,1.05 0.06,0.27 0.39,0.53 0.98,0.76 0.58,0.24 1.56,0.52 2.94,0.85 1.37,0.34 3.27,0.76 5.71,1.28 l 15.27,-71.45 c -1.36,-1.17 -3.8,-2.59 -7.32,-4.23 -3.52,-1.63 -7.72,-2.97 -12.59,-4.02 -4.87,-1.03 -8.89,-1.26 -12.02,-0.68 -3.14,0.58 -5.71,1.75 -7.7,3.51 -1.99,1.76 -3.51,3.94 -4.53,6.57 -1.03,2.62 -1.88,5.5 -2.54,8.6 l -10.85,50.78 c -0.09,0.42 -0.1,0.77 -0.04,1.05 0.08,0.27 0.41,0.52 0.99,0.76 0.59,0.24 1.56,0.52 2.94,0.85 1.38,0.33 3.36,0.78 5.97,1.33 l 11.28,-52.79"
         style="fill:#4d4d4d;fill-opacity:1;fill-rule:nonzero;stroke:none;stroke-width:0.817241;stroke-dasharray:none"
         id="path1310" />
      <path
         d="m 3656.44,2778.9 c -0.05,0.86 0.1,1.4 0.51,1.61 0.4,0.21 0.89,0.33 1.47,0.37 l 7.34,0.52 14.13,-31.82 c 0.4,-1.05 0.88,-2.22 1.43,-3.48 0.55,-1.27 1.06,-2.51 1.51,-3.7 0.46,-1.2 0.87,-2.22 1.21,-3.07 0.36,-0.84 0.59,-1.37 0.69,-1.58 -0.02,0.08 0.07,0.57 0.26,1.49 0.19,0.92 0.43,1.99 0.71,3.21 0.3,1.21 0.58,2.48 0.86,3.8 0.28,1.33 0.59,2.51 0.93,3.55 l 8.75,31.91 c 0.12,0.59 0.29,1.06 0.52,1.4 0.23,0.34 0.67,0.54 1.34,0.58 l 8.2,0.59 5.23,-73.97 c 0.03,-0.43 -0.01,-0.78 -0.1,-1.04 -0.11,-0.27 -0.47,-0.47 -1.08,-0.62 -0.62,-0.15 -1.63,-0.28 -3.05,-0.38 -1.41,-0.1 -3.39,-0.23 -5.96,-0.42 l -1.5,26.31 c -0.09,2.59 -0.15,5.56 -0.17,8.89 -0.04,3.33 -0.04,6.57 -0.01,9.72 0.02,3.16 0.05,5.97 0.09,8.44 0.03,2.46 0.05,4.13 0.07,5 -0.5,-2.07 -1.1,-4.41 -1.74,-7.02 -0.65,-2.62 -1.27,-5.13 -1.85,-7.52 -0.58,-2.4 -1.11,-4.54 -1.6,-6.42 -0.5,-1.88 -0.84,-3.16 -1.04,-3.83 l -5.44,-16.89 c -0.13,-0.37 -0.32,-0.63 -0.57,-0.75 -0.24,-0.13 -0.48,-0.21 -0.73,-0.22 l -4.35,-0.31 -7.69,16.85 c -0.29,0.55 -0.81,1.73 -1.57,3.53 -0.75,1.79 -1.6,3.85 -2.56,6.17 -0.95,2.33 -1.94,4.76 -2.95,7.28 -1.02,2.55 -1.93,4.84 -2.73,6.88 l 0.01,-0.11 c 0.68,-3.79 1.32,-7.58 1.92,-11.38 0.57,-3.22 1.08,-6.64 1.55,-10.27 0.46,-3.63 0.83,-6.87 1.12,-9.75 l 2.02,-24.97 c 0.03,-0.43 -0.04,-0.78 -0.17,-1.04 -0.15,-0.26 -0.56,-0.47 -1.22,-0.63 -0.65,-0.15 -1.67,-0.27 -3.02,-0.38 -1.38,-0.09 -3.23,-0.22 -5.54,-0.38 l -5.23,73.85"
         style="fill:#4d4d4d;fill-opacity:1;fill-rule:nonzero;stroke:none;stroke-width:0.817241;stroke-dasharray:none"
         id="path1312" />
      <path
         d="m 3758.89,2742.22 c -0.6,-5.03 -0.93,-9.32 -0.99,-12.88 -0.04,-3.57 0.24,-6.53 0.89,-8.9 0.63,-2.37 1.61,-4.16 2.93,-5.38 1.32,-1.21 3.09,-1.95 5.32,-2.21 2.22,-0.27 4.17,0.04 5.82,0.93 1.66,0.9 3.11,2.51 4.36,4.83 1.23,2.32 2.29,5.36 3.16,9.12 0.86,3.76 1.64,8.38 2.3,13.92 0.65,5.38 1.01,9.94 1.08,13.68 0.07,3.73 -0.19,6.83 -0.77,9.26 -0.59,2.44 -1.54,4.24 -2.87,5.42 -1.32,1.18 -3.1,1.9 -5.33,2.17 -2.14,0.26 -4.04,-0.08 -5.7,-1.01 -1.67,-0.93 -3.14,-2.57 -4.42,-4.92 -1.29,-2.36 -2.39,-5.51 -3.33,-9.43 -0.94,-3.93 -1.75,-8.8 -2.45,-14.6 z m -11.01,3.5 c 0.87,7.17 2.06,13.15 3.6,17.91 1.53,4.76 3.47,8.51 5.81,11.25 2.34,2.74 5.07,4.58 8.2,5.52 3.11,0.93 6.66,1.16 10.62,0.69 4.05,-0.49 7.39,-1.51 10.06,-3.07 2.65,-1.56 4.68,-3.89 6.06,-7 1.39,-3.12 2.17,-7.17 2.38,-12.14 0.18,-4.97 -0.15,-11.08 -1.02,-18.33 -0.7,-5.88 -1.62,-10.98 -2.71,-15.29 -1.1,-4.3 -2.41,-7.93 -3.95,-10.88 -1.52,-2.94 -3.33,-5.24 -5.41,-6.88 -2.07,-1.64 -4.4,-2.74 -6.99,-3.3 0.25,-2.95 0.78,-5.07 1.63,-6.37 0.84,-1.3 2.22,-2.07 4.12,-2.3 1.23,-0.14 2.55,-0.17 3.94,-0.09 1.39,0.09 2.7,0.42 3.95,1 0.42,-0.71 0.7,-1.53 0.83,-2.5 0.14,-0.96 0.17,-1.77 0.09,-2.41 -0.11,-0.87 -0.58,-1.53 -1.43,-2.02 -0.86,-0.47 -1.86,-0.81 -3.01,-1 -1.15,-0.19 -2.37,-0.26 -3.67,-0.21 -1.3,0.04 -2.47,0.13 -3.55,0.26 -4.29,0.52 -7.58,2.02 -9.87,4.52 -2.31,2.5 -3.86,6.27 -4.68,11.31 -3.52,0.64 -6.43,1.77 -8.74,3.4 -2.33,1.63 -4.09,4.02 -5.3,7.19 -1.21,3.16 -1.89,7.25 -2.05,12.25 -0.14,5.01 0.22,11.16 1.09,18.49"
         style="fill:#4d4d4d;fill-opacity:1;fill-rule:nonzero;stroke:none;stroke-width:0.817241;stroke-dasharray:none"
         id="path1314" />
      <path
         d="m 3814.25,2718.85 c -0.54,-2.1 -0.91,-4.07 -1.14,-5.92 -0.21,-1.84 -0.05,-3.51 0.46,-4.98 0.53,-1.48 1.44,-2.76 2.76,-3.84 1.3,-1.08 3.24,-1.95 5.83,-2.62 2.09,-0.53 4.16,-0.86 6.24,-0.99 2.07,-0.12 3.69,-0.06 4.87,0.15 l 16.14,63.01 c 0.12,0.42 0.27,0.73 0.44,0.95 0.19,0.22 0.6,0.3 1.22,0.25 0.64,-0.05 1.63,-0.24 3.02,-0.55 1.39,-0.32 3.28,-0.78 5.69,-1.4 l -18.15,-70.78 c -1.75,-0.45 -4.56,-0.62 -8.44,-0.52 -3.87,0.1 -8.22,0.77 -13.05,2.01 -4.84,1.24 -8.53,2.82 -11.09,4.74 -2.55,1.92 -4.32,4.12 -5.33,6.57 -1,2.46 -1.36,5.09 -1.11,7.9 0.24,2.81 0.76,5.75 1.55,8.84 l 12.9,50.29 c 0.1,0.42 0.25,0.73 0.44,0.95 0.18,0.21 0.59,0.3 1.22,0.25 0.63,-0.05 1.63,-0.24 3.01,-0.55 1.38,-0.32 3.35,-0.81 5.93,-1.46 l -13.41,-52.3"
         style="fill:#4d4d4d;fill-opacity:1;fill-rule:nonzero;stroke:none;stroke-width:0.817241;stroke-dasharray:none"
         id="path1316" />
      <path
         d="m 3874.55,2706.11 15.95,-6.44 1.83,15.86 c 0.22,1.85 0.46,3.75 0.75,5.66 0.28,1.91 0.59,3.8 0.93,5.64 0.35,1.85 0.71,3.59 1.06,5.25 0.35,1.65 0.69,3.11 1.02,4.38 -0.64,-1.15 -1.42,-2.43 -2.36,-3.84 -0.93,-1.42 -1.9,-2.9 -2.92,-4.44 -1.03,-1.53 -2.09,-3.11 -3.2,-4.72 -1.1,-1.62 -2.22,-3.18 -3.36,-4.66 z m 14.9,-14.67 -19.87,8.03 -11.18,-14.66 c -0.37,-0.47 -0.84,-0.75 -1.41,-0.83 -0.57,-0.08 -1.79,0.26 -3.63,1.01 -0.62,0.24 -1.49,0.61 -2.57,1.09 -1.11,0.49 -2.18,1.02 -3.2,1.59 l 48.53,60.82 c 0.61,0.84 1.99,0.83 4.15,-0.05 1.77,-0.71 3.21,-1.4 4.28,-2.07 l -7.17,-77.2 c -0.05,-0.61 -0.4,-0.95 -1.01,-1.05 -0.63,-0.1 -1.86,0.22 -3.71,0.97 -0.7,0.28 -1.51,0.61 -2.44,0.99 -0.91,0.36 -1.94,0.86 -3.03,1.46 l 2.26,19.9"
         style="fill:#4d4d4d;fill-opacity:1;fill-rule:nonzero;stroke:none;stroke-width:0.817241;stroke-dasharray:none"
         id="path1318" />
      <path
         d="m 3915.68,2666.38 18.82,-10.29 -3.12,-5.7 c -0.35,-0.63 -0.74,-0.96 -1.17,-0.97 -0.43,-0.02 -0.94,0.15 -1.53,0.46 l -25.92,14.17 35.2,64.4 c 0.31,0.57 0.59,0.97 0.87,1.19 0.25,0.23 0.72,0.25 1.37,0.05 0.65,-0.19 1.58,-0.6 2.81,-1.23 1.22,-0.62 2.92,-1.53 5.11,-2.73 l -32.44,-59.35"
         style="fill:#4d4d4d;fill-opacity:1;fill-rule:nonzero;stroke:none;stroke-width:0.817241;stroke-dasharray:none"
         id="path1320" />
      <path
         d="m 3978.06,2703.57 c 0.54,0.85 1.02,1.47 1.42,1.85 0.4,0.4 0.93,0.52 1.59,0.39 0.66,-0.12 1.6,-0.56 2.8,-1.3 1.2,-0.75 2.85,-1.8 4.93,-3.16 l -40.52,-62.09 c -0.23,-0.36 -0.48,-0.62 -0.73,-0.76 -0.24,-0.15 -0.66,-0.09 -1.23,0.16 -0.59,0.25 -1.46,0.76 -2.64,1.53 -1.19,0.77 -2.82,1.84 -4.91,3.2 l 39.29,60.18"
         style="fill:#4d4d4d;fill-opacity:1;fill-rule:nonzero;stroke:none;stroke-width:0.817241;stroke-dasharray:none"
         id="path1322" />
      <path
         d="m 4017.14,2670.45 -40.57,-51.93 c -0.26,-0.35 -0.54,-0.58 -0.79,-0.7 -0.25,-0.12 -0.65,-0.04 -1.21,0.26 -0.56,0.29 -1.38,0.87 -2.46,1.71 -1.08,0.84 -2.61,2.03 -4.56,3.57 l 41.63,53.31 -13.36,10.43 3.95,5.04 c 0.75,0.97 1.68,1.02 2.8,0.15 l 33.4,-26.09 -4,-5.13 c -0.72,-0.91 -1.63,-0.93 -2.74,-0.06 l -12.09,9.44"
         style="fill:#4d4d4d;fill-opacity:1;fill-rule:nonzero;stroke:none;stroke-width:0.817241;stroke-dasharray:none"
         id="path1324" />
      <path
         d="m 4025.1,2614.5 18.8,43.13 c 0.12,0.37 0.3,0.59 0.47,0.67 0.2,0.06 0.59,-0.13 1.2,-0.58 0.6,-0.45 1.48,-1.26 2.62,-2.4 1.15,-1.15 2.76,-2.74 4.81,-4.8 l -6.97,-14.03 c -0.83,-1.64 -1.79,-3.51 -2.9,-5.63 -1.1,-2.1 -2.24,-4.14 -3.37,-6.1 -1.16,-1.98 -2.23,-3.75 -3.21,-5.33 -0.98,-1.56 -1.73,-2.66 -2.22,-3.28 0.61,0.51 1.71,1.23 3.33,2.18 1.6,0.96 3.37,2.02 5.35,3.16 1.98,1.14 4,2.28 6.13,3.38 2.1,1.11 3.97,2.08 5.62,2.89 l 12.43,6.27 c 0.42,0.19 0.76,0.31 1.03,0.34 0.29,0.03 0.71,-0.16 1.28,-0.59 0.58,-0.42 1.36,-1.13 2.37,-2.13 0.99,-1 2.41,-2.4 4.22,-4.23 l -43.4,-19.6 -20.92,-20.93 c -0.32,-0.3 -0.58,-0.51 -0.82,-0.64 -0.24,-0.12 -0.62,0 -1.14,0.37 -0.51,0.36 -1.25,1.03 -2.23,2 -0.96,0.96 -2.36,2.36 -4.18,4.19 l 21.7,21.69"
         style="fill:#4d4d4d;fill-opacity:1;fill-rule:nonzero;stroke:none;stroke-width:0.817241;stroke-dasharray:none"
         id="path1326" />
    </g>
  </g>
</svg>
