<?xml version="1.0" standalone="no"?>
<!DOCTYPE svg PUBLIC "-//W3C//DTD SVG 20010904//EN"
 "http://www.w3.org/TR/2001/REC-SVG-20010904/DTD/svg10.dtd">
<svg version="1.0" xmlns="http://www.w3.org/2000/svg"
 width="700.000000pt" height="700.000000pt" viewBox="0 0 700.000000 700.000000"
 preserveAspectRatio="xMidYMid meet">
<metadata>
Created by potrace 1.14, written by Peter Selinger 2001-2017
</metadata>
<g transform="translate(0.000000,700.000000) scale(0.100000,-0.100000)"
fill="#000000" stroke="none">
<path d="M3277 6534 c-1 -1 -81 -5 -177 -9 -96 -3 -195 -8 -220 -10 -91 -8
-190 -17 -217 -20 -16 -2 -62 -6 -103 -10 -41 -3 -138 -15 -215 -26 -77 -11
-158 -23 -180 -26 -66 -8 -297 -51 -301 -56 -2 -2 7 -52 21 -110 14 -59 25
-111 25 -116 0 -5 -21 -12 -46 -16 -56 -8 -63 -9 -145 -29 -37 -8 -78 -17 -90
-20 -97 -17 -297 -71 -287 -77 7 -4 76 -28 153 -54 165 -56 345 -124 345 -132
0 -3 -22 -31 -48 -62 -89 -104 -154 -191 -143 -191 6 0 11 3 11 8 1 7 22 30
139 157 25 28 56 62 69 76 l23 26 -113 46 c-62 26 -162 64 -223 86 l-110 39
40 10 c96 26 206 52 290 71 153 34 144 34 153 -2 8 -31 -2 -52 -20 -41 -9 6
-78 -22 -78 -32 0 -4 25 -4 55 -1 60 6 60 6 69 -39 6 -26 3 -32 -19 -42 -31
-14 -25 -32 9 -26 21 3 26 -1 32 -28 5 -18 9 -37 10 -43 0 -5 4 -23 8 -40 5
-16 12 -46 17 -66 l9 -37 58 12 c92 19 94 18 107 -41 l12 -53 -36 -6 c-72 -13
-196 -42 -179 -43 9 -1 48 6 85 13 38 8 98 17 133 20 35 3 89 11 121 17 l57
11 -34 63 -34 62 47 7 c235 33 364 48 533 61 47 4 99 9 115 11 128 15 686 23
898 11 59 -3 107 -2 107 2 0 4 -6 8 -12 8 -446 21 -806 21 -1068 -2 -19 -1
-73 -5 -120 -9 -47 -4 -98 -9 -115 -11 -16 -3 -50 -7 -75 -9 -115 -13 -226
-27 -240 -31 -8 -2 -35 -6 -60 -9 -25 -3 -56 -8 -70 -11 -13 -2 -42 -7 -65
-11 -22 -3 -58 -9 -80 -14 -22 -5 -45 -10 -52 -10 -10 0 -22 39 -39 130 -3 14
-16 70 -29 125 -19 80 -56 248 -79 356 -3 14 15 20 103 34 58 9 115 19 126 21
65 11 289 43 340 49 33 3 74 8 90 10 51 6 207 21 315 30 316 25 1106 25 1260
1 14 -3 66 -7 115 -10 90 -6 113 -9 255 -26 41 -5 102 -12 135 -16 33 -3 62
-7 65 -9 3 -2 32 -6 65 -10 33 -3 103 -14 155 -23 111 -20 104 -1 65 -181 -14
-68 -24 -126 -21 -129 3 -3 6 3 6 14 0 37 12 44 60 33 25 -6 54 -12 65 -15 11
-2 45 -9 75 -15 88 -17 333 -77 360 -87 23 -9 21 -11 -30 -26 -108 -33 -375
-141 -375 -152 0 -6 53 -67 119 -135 131 -137 133 -133 7 18 -46 56 -84 104
-85 108 -1 9 18 16 309 116 110 37 193 70 185 73 -15 5 -242 62 -282 70 -13 3
-105 22 -205 43 -141 29 -183 41 -183 53 0 8 9 50 20 94 25 97 25 116 3 117
-10 0 -25 2 -33 4 -19 4 -148 26 -175 30 -11 2 -38 6 -60 9 -58 10 -96 15
-135 20 -19 3 -66 9 -105 15 -38 5 -99 12 -135 16 -36 3 -85 8 -110 10 -235
25 -493 37 -778 39 -118 1 -214 0 -215 0z"/>
<path d="M2948 6400 c-20 -4 -47 -13 -60 -21 -12 -8 -27 -14 -33 -14 -5 1 -44
5 -85 10 -94 11 -116 11 -162 2 -99 -20 -101 -155 -2 -170 34 -5 94 16 94 34
0 7 -7 8 -17 4 -66 -25 -117 -12 -126 33 -4 19 3 33 25 55 l29 30 92 -7 c120
-8 133 -11 128 -27 -5 -18 -47 -175 -67 -257 -20 -76 -58 -122 -102 -122 -44
0 -61 9 -78 41 -13 25 -13 33 0 63 14 33 67 72 80 59 3 -4 6 1 6 10 0 23 -21
21 -61 -6 -68 -46 -78 -112 -25 -162 37 -34 69 -39 123 -16 45 18 80 97 108
241 7 34 34 119 45 140 10 18 18 21 48 16 20 -3 40 -5 44 -6 4 0 1 -18 -7 -40
-26 -74 -86 -302 -81 -307 8 -8 26 7 26 21 0 29 42 143 65 179 19 27 32 37 51
37 25 0 26 -2 21 -42 -3 -24 -11 -69 -18 -100 -10 -46 -10 -59 0 -72 18 -21
44 -20 72 3 21 17 26 18 40 5 23 -20 68 -20 106 0 32 16 91 101 79 113 -7 8
-36 -16 -36 -31 0 -18 -49 -65 -75 -72 -29 -7 -61 2 -68 20 -12 32 7 58 64 86
63 32 84 59 75 95 -4 16 -15 24 -37 27 -45 7 -100 -49 -118 -118 -20 -77 -32
-104 -52 -114 -10 -6 -20 -10 -22 -10 -15 0 -13 37 4 101 23 92 23 95 0 118
-19 19 -52 19 -77 0 -6 -5 -5 14 4 51 13 51 18 60 37 60 31 0 48 22 32 42 -16
20 -43 26 -89 18z m67 -29 c6 -11 -37 -18 -80 -12 -26 3 -27 5 -10 12 28 11
83 11 90 0z m229 -156 c3 -8 -4 -24 -15 -34 -25 -23 -77 -46 -85 -38 -8 8 33
74 49 81 24 9 45 6 51 -9z"/>
<path d="M3655 6389 c-36 -10 -79 -49 -99 -88 -20 -37 -25 -103 -8 -108 8 -3
12 5 12 24 0 35 31 103 56 124 47 40 138 45 184 11 38 -29 40 -89 4 -126 -17
-16 -33 -24 -43 -21 -43 17 -81 17 -87 1 -10 -26 11 -39 59 -38 38 2 45 -1 55
-23 41 -89 -30 -174 -121 -148 -40 11 -51 55 -18 72 16 9 23 7 35 -11 11 -15
19 -19 26 -12 7 7 3 17 -10 32 -24 26 -52 28 -70 7 -21 -26 -31 -16 -15 15 8
16 29 69 47 117 20 55 42 98 60 115 37 34 19 46 -20 13 -22 -18 -40 -53 -68
-131 -20 -58 -47 -120 -59 -138 -26 -39 -81 -60 -110 -42 -44 29 -21 106 32
106 24 0 32 15 11 23 -39 13 -97 -40 -93 -83 1 -8 3 -22 3 -31 2 -17 34 -37
71 -44 26 -5 70 15 91 40 12 15 15 13 24 -17 25 -75 145 -79 198 -7 24 32 27
108 6 141 -14 22 -14 24 8 41 34 25 50 87 34 127 -23 57 -112 84 -195 59z"/>
<path d="M4325 6262 c-16 -29 -26 -37 -48 -36 -17 1 -27 -4 -27 -12 0 -8 9
-14 21 -14 11 0 19 -3 17 -7 -40 -78 -78 -166 -78 -180 0 -49 60 -57 107 -15
16 15 37 39 47 53 29 46 4 40 -43 -11 -48 -51 -74 -62 -84 -36 -3 8 14 55 38
104 39 82 45 89 68 85 34 -7 45 15 12 23 -24 6 -25 8 -12 28 22 34 28 56 14
56 -7 0 -21 -17 -32 -38z"/>
<path d="M4150 6251 c-5 -11 -10 -31 -10 -45 0 -14 -4 -28 -10 -31 -17 -11
-11 -27 8 -21 38 13 59 -96 24 -127 -34 -31 -103 -25 -116 10 -7 17 22 70 42
78 17 6 42 -12 42 -31 0 -8 5 -14 10 -14 16 0 12 37 -6 54 -8 9 -26 16 -38 16
-30 0 -76 -36 -76 -59 0 -39 -68 -74 -112 -59 -23 8 -28 16 -28 43 0 31 3 34
61 55 70 25 99 50 99 84 0 47 -67 51 -113 8 -63 -59 -91 -162 -54 -199 22 -22
87 -22 121 1 24 15 26 15 50 -7 43 -40 119 -29 149 23 19 32 18 66 -3 112 -11
24 -11 33 5 62 10 18 15 41 12 50 -9 22 -44 20 -57 -3z m33 -21 c-3 -11 -9
-17 -15 -14 -5 3 -4 12 3 20 16 19 18 18 12 -6z m-168 -29 c0 -18 -42 -49 -83
-61 l-34 -9 17 27 c9 15 26 35 38 45 23 20 62 19 62 -2z"/>
<path d="M4963 6047 c-1 -14 1 -17 5 -10 6 10 24 8 77 -7 39 -11 88 -20 110
-20 l40 1 -27 14 c-23 13 -50 18 -154 29 -17 2 -35 6 -40 9 -6 3 -11 -4 -11
-16z"/>
<path d="M4942 5950 c0 -14 2 -19 5 -12 2 6 2 18 0 25 -3 6 -5 1 -5 -13z"/>
<path d="M4960 5945 c0 -14 89 -39 128 -36 23 2 12 19 -15 25 -47 10 -113 16
-113 11z"/>
<path d="M4927 5848 c9 -16 75 -38 90 -30 12 7 12 10 1 19 -15 13 -99 22 -91
11z"/>
<path d="M4020 5841 c0 -6 19 -11 43 -11 49 -1 153 -9 181 -15 11 -2 15 0 10
5 -5 4 -56 11 -114 15 -58 4 -108 9 -112 12 -5 2 -8 -1 -8 -6z"/>
<path d="M4270 5816 c0 -2 15 -6 34 -8 19 -2 32 0 30 4 -5 8 -64 12 -64 4z"/>
<path d="M4378 5803 c6 -2 18 -2 25 0 6 3 1 5 -13 5 -14 0 -19 -2 -12 -5z"/>
<path d="M4448 5793 c7 -3 16 -2 19 1 4 3 -2 6 -13 5 -11 0 -14 -3 -6 -6z"/>
<path d="M430 5765 c0 -2 55 -43 123 -91 167 -119 350 -259 487 -374 157 -131
165 -132 34 -3 -115 112 -262 231 -394 321 -80 54 -250 154 -250 147z"/>
<path d="M4672 5697 c-19 -37 -32 -70 -30 -72 3 -3 48 -10 173 -26 44 -6 122
-18 173 -28 51 -10 89 -15 85 -11 -4 4 -63 18 -131 31 l-123 23 7 41 c15 80
13 88 -26 92 -19 2 -48 8 -65 12 -29 7 -31 6 -63 -62z"/>
<path d="M6490 5722 c-116 -65 -216 -132 -335 -225 -110 -85 -325 -284 -325
-301 0 -5 17 6 38 26 95 91 410 334 597 463 150 103 155 110 25 37z"/>
<path d="M5385 5550 c10 -11 20 -20 23 -20 3 0 -3 9 -13 20 -10 11 -20 20 -23
20 -3 0 3 -9 13 -20z"/>
<path d="M1619 5543 c-13 -16 -12 -17 4 -4 9 7 17 15 17 17 0 8 -8 3 -21 -13z"/>
<path d="M1905 5550 c-25 -11 1 -11 35 0 20 6 21 8 5 8 -11 0 -29 -3 -40 -8z"/>
<path d="M5138 5543 c7 -3 16 -2 19 1 4 3 -2 6 -13 5 -11 0 -14 -3 -6 -6z"/>
<path d="M1830 5530 c-8 -5 -10 -10 -5 -10 6 0 17 5 25 10 8 5 11 10 5 10 -5
0 -17 -5 -25 -10z"/>
<path d="M3368 5406 c-1 -2 -68 -6 -148 -10 -80 -3 -156 -8 -170 -10 -14 -1
-50 -6 -80 -10 -66 -9 -84 -12 -175 -26 -38 -7 -79 -13 -90 -15 -159 -24 -360
-95 -610 -215 -303 -146 -422 -312 -431 -600 -4 -133 8 -194 49 -245 37 -47
54 -45 22 3 -39 59 -49 168 -28 299 37 232 151 376 398 501 175 88 324 141
495 176 173 35 279 54 336 61 27 3 58 8 69 10 124 26 748 26 960 1 17 -2 62
-7 100 -11 442 -41 720 -140 916 -326 95 -90 215 -274 233 -354 5 -26 2 -32
-25 -48 l-31 -17 -56 47 c-31 27 -84 73 -118 103 -85 77 -361 273 -376 268 -7
-3 12 -23 42 -46 30 -23 101 -77 156 -120 56 -42 116 -88 134 -102 18 -14 71
-56 117 -94 80 -65 83 -69 64 -83 -19 -13 -25 -10 -69 24 -26 21 -59 46 -73
56 -13 9 -85 63 -159 119 -178 133 -278 198 -304 198 -20 -1 -20 -1 4 -21 14
-11 60 -43 102 -72 151 -102 287 -199 299 -213 7 -8 9 -27 5 -48 l-7 -35 -117
88 c-134 100 -298 211 -312 211 -18 0 1 -25 28 -38 15 -7 66 -42 115 -78 84
-62 87 -66 87 -104 l0 -39 -95 62 c-317 206 -305 199 -305 179 0 -5 82 -64
183 -132 100 -68 189 -132 198 -143 9 -11 16 -31 14 -44 -4 -35 12 -38 20 -3
l6 29 70 -46 c38 -25 69 -50 69 -54 0 -5 8 -9 18 -9 13 0 18 9 20 31 4 49 11
52 55 19 54 -40 59 -31 7 16 -38 35 -41 41 -35 73 4 20 8 38 10 40 4 4 125
-88 125 -95 0 -3 -19 -29 -41 -59 -46 -60 -59 -65 -128 -40 -23 8 -44 14 -46
14 -3 0 -18 2 -33 5 -93 21 -257 54 -294 60 -35 6 -38 9 -38 42 l0 35 33 -17
c17 -9 40 -23 49 -31 9 -8 26 -13 38 -11 17 2 8 11 -44 45 -55 36 -67 49 -78
85 -11 39 -12 41 -16 16 -2 -16 -6 -28 -9 -28 -3 0 -85 53 -182 119 -227 153
-281 181 -281 146 0 -8 8 -15 17 -15 17 0 431 -274 445 -294 4 -5 6 -27 6 -48
0 -35 -2 -37 -29 -34 -23 3 -98 57 -119 87 -6 7 -290 191 -363 234 -26 15 -51
25 -57 23 -5 -1 78 -61 185 -132 188 -125 195 -131 195 -163 0 -26 -4 -33 -19
-33 -56 0 -111 46 -112 93 l-1 32 -9 -27 -10 -27 -147 98 c-158 106 -191 125
-198 118 -4 -4 124 -94 293 -206 28 -19 54 -43 56 -53 5 -18 -3 -19 -216 -12
-187 5 -245 8 -299 13 -5 1 -8 9 -8 19 -1 9 -8 28 -16 42 -15 25 -15 25 -9
-11 5 -34 3 -38 -22 -46 -16 -5 -95 -9 -178 -8 l-150 0 2 61 c1 33 -3 67 -8
75 -5 9 -9 -13 -9 -63 l0 -78 -27 -1 c-90 -2 -323 -17 -393 -26 -25 -3 -57 -6
-71 -8 -39 -4 -154 -26 -234 -45 -69 -17 -70 -17 -81 4 -7 12 -15 40 -19 63
-3 22 -12 49 -19 59 -12 15 -13 10 -9 -34 2 -29 8 -64 13 -78 6 -14 10 -29 10
-33 0 -7 -74 -31 -95 -31 -6 0 -31 53 -70 146 -8 20 -17 35 -20 32 -7 -7 24
-106 46 -150 l19 -37 -138 -45 c-138 -45 -254 -71 -276 -63 -7 3 -18 37 -26
76 -8 45 -16 67 -22 59 -10 -16 -2 -101 12 -127 8 -16 4 -25 -21 -51 l-32 -31
7 -94 c9 -122 22 -114 -209 -130 -55 -4 -107 -9 -115 -11 -8 -1 -28 -3 -45 -4
-27 -1 -28 -2 -12 -14 15 -12 16 -20 7 -67 -19 -98 -50 -199 -80 -259 l-30
-60 24 0 c16 0 27 -7 31 -21 18 -56 126 -56 250 0 116 53 194 156 240 316 9
33 25 76 35 96 18 35 73 89 90 89 4 0 16 -23 26 -52 16 -43 25 -54 57 -66 20
-8 37 -18 37 -22 0 -12 -40 -61 -102 -126 -134 -139 -208 -270 -216 -386 l-5
-67 43 -43 c50 -51 60 -75 65 -145 2 -33 11 -63 24 -82 28 -39 27 -42 -16 -37
-21 3 -88 7 -148 11 -61 4 -118 7 -125 8 -8 1 -16 -2 -18 -8 -2 -5 28 -18 67
-27 59 -15 77 -25 114 -63 25 -25 52 -45 61 -45 22 0 20 7 -14 49 -28 37 -28
38 -7 37 35 -2 42 -11 62 -81 11 -36 25 -65 32 -65 9 0 10 6 3 26 -14 35 -13
36 13 28 21 -6 21 -6 -4 22 -14 16 -29 37 -32 47 -6 16 -2 18 25 15 30 -3 32
-5 35 -53 2 -27 10 -69 18 -93 l14 -42 -42 3 c-23 1 -53 10 -67 20 -32 23 -64
23 -35 0 l20 -16 -20 8 c-37 13 -185 55 -195 55 -29 0 2 -22 113 -78 68 -34
151 -85 185 -112 49 -39 64 -47 68 -35 4 8 -2 27 -12 43 l-18 27 25 -16 c13
-9 24 -22 23 -28 -1 -6 -2 -21 -3 -33 -1 -21 -7 -23 -55 -25 -48 -1 -55 1 -60
20 -6 24 -75 111 -83 104 -2 -2 12 -28 32 -58 19 -29 35 -57 35 -61 0 -17 -26
-7 -39 15 -31 49 -93 128 -98 124 -2 -3 16 -37 41 -76 25 -39 42 -71 38 -71
-5 0 -35 41 -67 90 -32 50 -62 90 -67 90 -10 0 -12 3 54 -100 26 -41 48 -79
48 -83 0 -18 -41 16 -55 47 -9 18 -39 58 -66 87 -60 64 -54 48 14 -38 88 -113
21 -66 -96 67 -54 61 -44 42 17 -33 21 -26 36 -50 33 -54 -4 -3 -35 22 -70 56
-67 65 -104 85 -47 26 18 -19 31 -37 28 -40 -10 -11 -72 21 -106 55 -19 17
-36 29 -40 25 -4 -3 -2 -9 3 -13 15 -10 42 -47 30 -40 -8 5 -163 20 -213 21
-25 1 -6 19 33 33 52 18 172 43 243 50 31 4 59 8 61 10 3 2 15 -6 28 -18 l23
-21 0 25 c0 26 -38 138 -58 173 -11 19 -11 19 -12 -3 0 -13 5 -43 11 -68 6
-25 10 -47 8 -49 -3 -2 -29 -6 -59 -9 -233 -24 -275 -37 -342 -109 -27 -28
-48 -52 -48 -53 0 -1 39 -2 88 -2 79 0 109 -2 207 -18 64 -10 301 -96 317
-114 15 -18 15 -25 -4 -97 -26 -99 -28 -234 -3 -318 9 -33 35 -99 57 -147 42
-91 54 -102 128 -113 19 -3 58 -10 85 -15 28 -5 68 -12 90 -15 22 -4 65 -10
95 -15 82 -14 111 -18 160 -25 43 -5 96 -12 150 -20 14 -2 52 -6 85 -10 33 -3
76 -7 95 -10 19 -2 67 -7 105 -10 39 -3 86 -8 105 -10 19 -2 64 -7 100 -10 36
-4 70 -11 76 -16 6 -5 13 -6 16 -3 3 3 221 7 484 9 264 2 497 6 519 8 22 3 90
8 150 11 138 8 233 16 265 21 14 3 52 7 85 10 33 3 103 12 155 19 67 9 97 10
102 3 5 -8 13 -6 25 5 10 8 53 28 96 44 92 34 182 99 235 170 35 47 74 143 87
219 10 55 7 242 -5 303 l-12 60 -67 12 c-36 7 -75 14 -86 16 -11 2 -40 7 -65
10 -91 13 -140 32 -204 80 -36 27 -65 52 -66 55 0 3 23 2 51 -4 43 -9 53 -15
67 -43 9 -19 19 -34 24 -34 5 0 2 13 -7 30 -20 38 -19 43 5 30 10 -6 27 -26
36 -45 9 -20 20 -38 25 -41 14 -8 10 18 -6 46 -32 56 -5 55 31 -1 29 -47 44
-47 20 0 -16 31 -16 31 10 29 20 -2 31 -13 47 -45 12 -24 25 -43 29 -43 11 0
10 27 -1 34 -5 3 -11 15 -14 26 -5 18 -2 20 26 16 18 -3 51 -8 75 -11 169 -21
163 -18 119 -63 -35 -36 -47 -62 -29 -62 13 0 124 111 117 118 -6 7 -7 7 -85
16 -30 3 -68 8 -85 11 -16 3 -48 7 -70 11 -22 3 -47 7 -55 9 -8 2 -19 4 -25 4
-5 1 8 15 30 33 74 60 225 215 225 232 0 12 -11 16 -47 17 -27 1 -70 2 -98 4
-27 1 -71 3 -97 4 -28 1 -48 6 -48 12 0 6 29 39 65 74 36 34 65 66 65 72 0 5
-54 47 -120 93 -66 45 -118 85 -115 88 2 3 23 -7 45 -22 50 -33 64 -34 25 0
l-30 25 35 -17 c19 -9 66 -48 103 -85 67 -67 68 -68 77 -43 10 26 4 87 -11
117 -6 9 -32 28 -59 42 -28 14 -50 28 -50 31 0 2 7 16 16 29 16 25 15 26 -30
75 -63 67 -58 76 7 14 53 -52 87 -61 87 -24 0 10 5 22 10 25 6 4 -12 30 -43
62 l-53 54 -53 -35 c-128 -86 -293 -101 -504 -46 -233 61 -355 136 -455 278
l-42 60 29 10 c26 9 32 6 85 -49 31 -32 78 -73 104 -91 26 -17 53 -40 61 -51
7 -11 16 -15 20 -9 10 15 109 -27 117 -50 5 -17 7 -18 17 -4 10 13 20 14 57 5
25 -6 49 -17 53 -25 4 -8 13 -14 18 -14 6 0 7 5 4 10 -10 16 21 23 44 10 12
-6 21 -17 21 -25 0 -7 4 -16 9 -19 4 -3 6 5 4 18 -4 20 0 24 29 30 18 3 44 8
58 11 48 9 134 25 137 25 2 0 8 -10 13 -22 8 -21 9 -21 9 8 1 26 8 35 50 57
l48 27 11 -33 10 -32 -1 37 c-1 30 6 45 33 73 39 40 46 42 73 18 20 -17 20
-17 13 2 -18 45 -18 58 2 93 16 29 53 136 52 150 0 1 0 26 0 55 l0 52 56 -57
c48 -50 54 -60 44 -78 -14 -26 -30 -26 -30 0 0 33 -28 90 -44 90 -12 0 -14
-14 -9 -87 8 -134 -21 -232 -103 -338 l-36 -48 52 -51 c42 -41 59 -51 87 -51
30 -1 33 1 30 25 -3 14 -18 47 -35 74 l-31 48 30 50 c37 62 56 116 65 186 4
30 14 58 23 65 40 30 45 47 47 165 2 100 5 119 21 132 11 8 19 18 19 22 -1 4
14 18 32 32 41 29 132 52 190 47 7 -1 17 -13 23 -28 l11 -28 20 39 c11 22 22
56 24 75 l3 36 -19 -23 -19 -23 -34 25 c-46 35 -57 33 -22 -4 24 -25 26 -30
11 -30 -11 0 -29 11 -42 25 -13 14 -29 25 -35 25 -7 0 -2 -11 11 -25 13 -14
18 -25 12 -25 -7 0 -20 9 -29 20 -25 28 -38 25 -19 -5 24 -36 -2 -33 -45 4
-39 34 -53 32 -21 -2 27 -28 28 -37 4 -37 -9 0 -23 9 -30 20 -7 11 -17 20 -23
20 -7 0 -4 -11 6 -26 27 -42 4 -47 -40 -9 -22 18 -42 32 -44 29 -4 -3 33 -36
63 -56 8 -5 7 -11 -1 -19 -12 -12 -22 -10 -63 17 -17 11 -14 6 7 -13 30 -27
32 -31 18 -49 -13 -18 -15 -17 -49 21 -47 54 -54 40 -11 -21 53 -75 42 -86
-21 -21 -31 31 -58 57 -60 57 -11 0 17 -38 51 -70 20 -19 44 -48 52 -65 l15
-30 -38 35 c-21 19 -41 37 -44 40 -67 65 -63 39 6 -35 82 -88 87 -110 8 -34
-60 56 -77 67 -126 78 -32 7 -60 16 -63 21 -10 17 124 147 187 181 56 30 71
34 143 34 44 0 104 -3 133 -8 95 -13 127 -19 134 -23 13 -8 17 14 4 25 -36 30
-276 55 -366 38 l-35 -6 -19 60 c-53 168 -218 368 -389 472 -120 72 -389 159
-567 183 -30 4 -66 8 -80 10 -14 2 -50 6 -80 9 -30 3 -71 8 -90 10 -19 2 -80
7 -135 11 -55 3 -116 8 -135 9 -19 2 -107 6 -195 10 -88 3 -165 8 -172 10 -6
2 -13 2 -15 1z m1470 -824 c70 -53 79 -67 63 -105 -6 -16 -15 -12 -76 34 -39
29 -71 53 -73 54 -1 1 -5 21 -7 44 -5 48 -10 50 93 -27z m-456 -59 c10 -12 -5
-13 -64 -4 -5 0 -8 13 -8 27 l0 25 31 -18 c17 -10 35 -24 41 -30z m-194 9 c2
-7 -2 -10 -12 -6 -9 3 -16 11 -16 16 0 13 23 5 28 -10z m-913 -32 c4 -6 -7
-10 -27 -9 -31 1 -32 1 -8 9 14 4 26 8 27 9 1 1 5 -3 8 -9z m415 0 c0 -5 -7
-7 -15 -4 -8 4 -15 8 -15 10 0 2 7 4 15 4 8 0 15 -4 15 -10z m241 -26 c14 -13
30 -24 36 -24 6 0 17 -7 24 -17 12 -14 10 -14 -21 2 -19 10 -47 26 -62 36 -14
11 -35 19 -46 19 -12 0 -23 4 -26 9 -12 19 71 -2 95 -25z m191 8 c-20 -3 -21
-6 -10 -19 7 -9 9 -14 3 -11 -5 2 -25 10 -42 17 -45 18 -34 27 24 22 27 -3 38
-7 25 -9z m52 -8 c5 -14 4 -15 -9 -4 -17 14 -19 20 -6 20 5 0 12 -7 15 -16z
m-1237 0 c-3 -3 -12 -4 -19 -1 -8 3 -5 6 6 6 11 1 17 -2 13 -5z m-80 -10 c-3
-3 -12 -4 -19 -1 -8 3 -5 6 6 6 11 1 17 -2 13 -5z m161 -70 c2 -51 12 -56 12
-6 0 22 5 44 10 47 6 3 10 3 11 -2 3 -28 11 -68 15 -72 2 -2 4 14 4 37 0 33 3
40 15 36 9 -4 15 -19 15 -35 0 -16 4 -29 9 -29 4 0 7 14 5 30 -3 24 0 30 16
30 16 0 20 -7 21 -32 l1 -33 7 30 c3 17 12 30 19 29 47 -4 46 -2 27 -30 -25
-39 -10 -41 25 -4 19 20 36 30 46 26 9 -3 23 -6 33 -6 9 0 26 -6 36 -14 17
-12 13 -17 -58 -56 -58 -32 -75 -45 -67 -55 25 -30 -25 -33 -82 -4 -29 15 -43
18 -48 9 -5 -8 -43 -11 -121 -9 -63 1 -168 2 -234 4 -66 1 -129 -3 -139 -8
-20 -10 -84 6 -118 28 -16 11 -16 13 8 24 22 10 28 8 45 -11 l19 -23 -6 29
c-5 21 -4 27 5 22 6 -4 11 -13 11 -21 0 -8 5 -17 11 -20 6 -4 9 4 7 21 -4 38
27 46 36 10 10 -39 26 -31 19 9 -4 28 -2 35 11 35 9 0 16 -8 16 -19 0 -28 11
-52 20 -46 5 3 5 18 0 34 -8 29 -5 41 11 41 4 0 15 -20 26 -45 23 -56 37 -59
18 -4 -24 66 1 84 29 22 l16 -38 -5 32 c-6 47 13 51 31 7 11 -26 18 -33 24
-25 6 11 9 11 14 0 3 -8 4 5 2 28 -5 53 10 67 20 18 3 -19 11 -38 17 -42 10
-6 6 33 -8 70 -4 10 -3 17 4 17 6 0 16 -11 21 -25 6 -14 15 -37 20 -51 17 -42
22 -21 7 24 -8 23 -12 44 -9 47 13 12 21 2 27 -35 4 -22 11 -40 16 -40 5 0 6
12 3 28 -10 42 -10 44 4 49 7 3 13 -5 14 -19 2 -43 3 -47 12 -55 5 -4 6 10 3
34 -3 23 -3 44 0 47 12 11 20 -4 21 -40z m615 -16 c23 -43 27 -47 23 -23 -3
17 -8 38 -12 49 -6 16 -4 17 17 11 53 -17 77 -45 110 -128 43 -111 69 -187 64
-187 -9 0 -55 56 -55 67 0 7 -6 10 -14 7 -8 -3 -45 3 -83 14 -116 33 -227 17
-328 -46 -34 -22 -52 -25 -150 -28 -228 -7 -411 -14 -445 -18 -19 -3 -57 -7
-85 -10 -27 -3 -76 -8 -107 -12 l-56 -6 -20 38 c-31 60 -56 78 -110 78 -229
-2 -434 -60 -513 -145 l-37 -40 1 43 c0 24 -3 68 -6 99 -9 96 30 127 87 67 45
-48 76 -72 76 -61 0 5 -18 27 -40 49 -46 46 -49 54 -16 54 17 0 34 -12 52 -35
14 -19 33 -35 41 -35 10 0 5 13 -17 40 -39 49 -32 51 24 5 45 -37 56 -42 56
-25 0 5 -19 23 -42 40 -22 16 -39 30 -37 31 2 0 12 2 22 4 10 2 40 -16 70 -41
29 -25 53 -40 56 -33 3 11 -45 59 -61 59 -4 0 -8 5 -8 10 0 21 31 8 84 -35 30
-24 57 -41 60 -37 4 7 -21 31 -72 68 -22 16 0 25 25 11 12 -7 40 -27 64 -46
43 -36 43 -16 0 23 -12 11 -21 23 -21 28 0 17 45 -5 80 -38 31 -31 50 -42 50
-29 0 2 -14 18 -30 35 -27 27 -28 31 -9 25 14 -5 19 -4 15 4 -9 14 -7 14 45
-4 24 -9 59 -30 78 -48 35 -32 35 -32 17 -4 l-17 28 33 -6 c18 -3 94 -19 168
-35 122 -26 149 -29 280 -25 92 2 162 9 192 18 25 9 48 13 51 11 2 -2 10 2 17
11 7 8 18 15 26 15 7 0 29 16 49 35 46 47 243 134 257 113 5 -7 16 -25 25 -40
10 -16 21 -28 26 -28 4 0 -3 19 -17 42 l-25 42 27 12 c15 7 29 13 32 13 3 1
18 -23 33 -51z m199 -58 c44 -61 83 -109 85 -106 8 7 -17 47 -78 128 -33 43
-59 79 -59 81 0 2 11 2 25 -1 16 -3 32 -17 42 -36 24 -47 111 -171 135 -192
14 -13 19 -14 13 -4 -15 27 -88 135 -95 140 -13 11 -52 81 -47 86 3 3 49 -54
103 -125 55 -72 100 -127 102 -121 4 12 -45 82 -133 189 -19 24 -33 46 -30 50
7 6 65 -53 83 -85 6 -10 14 -15 18 -11 4 4 -1 17 -12 30 -41 46 -48 58 -32 52
8 -3 25 -23 39 -45 13 -22 27 -40 30 -40 4 0 10 -8 13 -17 6 -15 4 -15 -14 2
-32 29 -23 6 17 -44 63 -77 73 -85 73 -54 0 9 -22 48 -48 87 -69 100 -69 100
-42 86 38 -20 97 -79 136 -135 36 -54 57 -69 34 -25 -18 34 -4 35 21 1 27 -36
49 -42 26 -7 -9 13 -13 26 -10 30 13 13 48 5 72 -16 l25 -23 -17 27 -17 27 58
22 c122 46 142 28 41 -38 -62 -42 -168 -109 -275 -174 l-31 -19 -33 47 c-37
51 -51 45 -25 -11 9 -19 14 -40 10 -45 -15 -25 -105 -2 -105 26 0 8 -4 12 -8
9 -12 -7 -42 51 -92 179 -46 118 -59 138 -105 166 l-30 19 28 0 c23 0 39 -16
109 -110z m713 100 c8 -13 -15 -13 -35 0 -12 8 -11 10 7 10 12 0 25 -4 28 -10z
m140 -10 c8 -13 -5 -13 -25 0 -13 8 -13 10 2 10 9 0 20 -4 23 -10z m-190 -18
c-3 -3 -11 0 -18 7 -9 10 -8 11 6 5 10 -3 15 -9 12 -12z m-1668 -24 c-3 -8 -6
-5 -6 6 -1 11 2 17 5 13 3 -3 4 -12 1 -19z m2130 -8 c7 0 10 -7 7 -15 -5 -13
-9 -13 -35 1 -35 17 -38 29 -6 20 12 -3 27 -6 34 -6z m-537 -9 c0 -5 -9 -7
-20 -4 -11 3 -20 7 -20 9 0 2 9 4 20 4 11 0 20 -4 20 -9z m-2205 -21 c-3 -5
-18 -10 -33 -9 -24 0 -25 1 -7 9 28 12 47 12 40 0z m2150 0 c3 -6 -1 -7 -9 -4
-18 7 -21 14 -7 14 6 0 13 -4 16 -10z m770 -6 c19 -3 48 -23 80 -57 110 -115
88 -104 -41 21 -27 26 -48 21 -38 -10 8 -26 12 -78 5 -78 -2 0 -15 10 -28 22
-31 29 -30 7 1 -30 17 -19 23 -36 19 -51 -5 -22 -7 -21 -39 16 -42 47 -45 29
-4 -22 44 -56 36 -64 -10 -10 -42 48 -57 38 -17 -12 43 -53 46 -59 39 -70 -5
-8 -23 7 -51 42 -45 56 -71 73 -50 33 7 -13 27 -41 46 -64 36 -45 40 -54 20
-54 -7 0 -30 23 -50 50 -21 28 -42 50 -48 50 -12 0 11 -41 43 -76 15 -17 17
-24 7 -30 -8 -5 -18 1 -28 16 -31 46 -49 65 -57 57 -4 -4 3 -21 15 -38 13 -17
20 -34 16 -37 -4 -4 -12 1 -19 11 -7 9 -18 17 -23 17 -6 0 -16 7 -23 15 -7 8
-17 15 -23 15 -5 0 -3 -8 5 -17 8 -10 18 -24 23 -31 14 -26 -32 6 -54 36 l-20
29 53 55 c30 30 60 72 67 92 9 24 19 36 32 36 10 0 15 5 12 11 -4 6 4 22 16
36 18 19 20 25 7 20 -12 -4 -15 -2 -11 9 6 15 24 15 128 -2z m-875 -20 l25
-15 -25 7 c-14 3 -32 10 -40 15 -13 7 -13 8 0 8 8 0 26 -6 40 -15z m580 -14
c13 -8 13 -10 -2 -10 -9 0 -20 5 -23 10 -8 13 5 13 25 0z m-209 -23 c-13 -13
-26 -3 -16 12 3 6 11 8 17 5 6 -4 6 -10 -1 -17z m-55 -37 c36 -27 73 -54 82
-59 10 -5 30 -34 45 -65 15 -30 32 -58 37 -61 6 -3 10 -10 10 -16 0 -24 -23
-2 -76 74 -68 98 -63 91 -69 86 -2 -3 9 -25 26 -49 35 -52 61 -100 55 -100 -2
0 -19 24 -37 53 -18 28 -36 54 -39 57 -3 3 -16 22 -29 43 -22 37 -31 45 -31
29 0 -8 46 -88 84 -144 10 -16 16 -28 13 -28 -3 0 -36 43 -72 95 -70 100 -98
129 -70 74 l17 -34 -26 30 c-30 35 -35 15 -6 -22 30 -38 25 -43 -19 -22 -45
22 -88 16 -55 -8 17 -12 16 -13 -8 -13 -15 0 -39 -5 -54 -10 -15 -6 -29 -9
-31 -7 -3 3 175 144 185 146 1 1 32 -21 68 -49z m344 41 c0 -5 -7 -12 -16 -15
-24 -9 -28 -7 -14 9 14 17 30 20 30 6z m-1915 -31 c17 -11 26 -20 20 -20 -5 0
-23 9 -40 20 -16 11 -25 20 -20 20 6 0 24 -9 40 -20z m1676 7 c-7 -7 -14 -8
-21 -1 -6 6 -2 10 12 11 16 2 18 -1 9 -10z m75 -28 c6 -10 -27 -12 -51 -3 -12
5 -13 9 -5 14 14 9 48 2 56 -11z m36 -31 c-9 -9 -15 -9 -24 0 -9 9 -7 12 12
12 19 0 21 -3 12 -12z m-1287 -27 c-12 -12 -117 -52 -123 -47 -2 2 18 12 45
22 26 9 52 21 58 26 13 11 32 11 20 -1z m1355 -1 c0 -5 -10 -10 -22 -10 -19 0
-20 2 -8 10 19 13 30 13 30 0z m-2549 -28 c-7 -2 -18 1 -23 6 -8 8 -4 9 13 5
13 -4 18 -8 10 -11z m-66 -2 c-3 -5 -20 -10 -36 -10 -18 0 -28 4 -24 10 3 6
20 10 36 10 18 0 28 -4 24 -10z m2546 -15 c0 -6 -9 -11 -21 -13 -11 -2 -20 -8
-20 -14 0 -6 -6 -6 -15 2 -21 18 -19 33 4 25 11 -3 22 -1 26 5 8 13 27 9 26
-5z m-2603 -15 c50 -23 55 -32 10 -19 -43 12 -57 11 -38 -2 12 -8 9 -10 -12
-6 -16 2 -28 0 -28 -4 0 -5 12 -15 28 -23 l27 -15 -32 6 c-46 8 -41 -2 15 -31
57 -31 45 -33 -33 -6 -32 11 -62 20 -67 20 -16 0 -8 -22 15 -41 24 -20 8 -26
-25 -8 -23 13 -50 71 -42 93 6 15 95 55 124 55 8 0 34 -8 58 -19z m261 -24
c18 -10 20 -14 9 -19 -8 -3 -22 3 -31 14 -19 22 -12 24 22 5z m741 -41 c20
-41 39 -41 86 -4 38 30 41 31 114 25 62 -5 167 -19 185 -25 3 0 14 -1 26 -1
18 0 20 -4 15 -27 l-6 -28 16 23 c17 23 63 31 65 10 1 -7 1 -24 0 -38 -2 -20
0 -22 8 -10 6 8 11 23 11 33 0 17 16 22 44 11 12 -5 14 -17 11 -52 l-5 -47 14
40 c9 29 18 40 34 41 22 1 26 -6 23 -38 -1 -9 3 -19 9 -23 6 -4 10 6 10 25 0
25 4 30 18 26 9 -2 37 -8 62 -12 41 -6 43 -5 31 10 -12 14 -12 16 3 10 9 -4
37 -41 61 -83 l44 -76 -82 -5 -82 -5 40 -12 c22 -7 45 -13 50 -13 6 0 50 -23
99 -50 99 -55 136 -67 66 -20 -25 16 -51 30 -57 30 -7 0 -13 5 -13 10 0 6 6
10 13 10 18 0 165 -102 222 -154 49 -46 50 -46 12 -26 -46 24 -54 25 -36 3 13
-15 12 -15 -11 -3 -14 7 -41 23 -60 35 -36 23 -207 115 -319 171 -114 58 -262
81 -332 51 -19 -8 -74 -45 -124 -82 -49 -37 -100 -72 -112 -77 -34 -16 -66 -2
-124 52 -81 77 -99 81 -188 38 -87 -41 -215 -193 -287 -340 -16 -32 -33 -58
-38 -58 -10 0 -75 67 -74 76 0 6 -20 28 -171 194 -58 63 -143 151 -189 196
l-83 81 78 23 c43 12 83 25 88 27 6 2 18 -16 28 -39 l17 -43 -5 48 c-4 29 -2
47 5 47 5 0 10 -13 10 -29 0 -17 5 -33 10 -36 6 -4 10 10 10 34 0 33 4 41 18
41 16 0 18 -8 17 -55 -1 -30 2 -55 7 -55 4 0 9 14 9 30 1 17 3 35 4 40 1 6 3
17 4 25 0 8 10 19 22 25 20 11 20 9 19 -42 -3 -86 -1 -108 10 -108 6 0 10 33
10 80 0 73 2 80 20 82 11 0 26 1 33 2 8 1 11 -12 9 -39 -3 -44 4 -85 16 -85 5
0 8 29 7 64 -1 57 1 65 19 70 26 7 28 4 31 -36 2 -18 3 -39 4 -45 0 -7 5 -13
10 -13 5 0 7 22 4 51 -5 46 -4 51 13 47 13 -2 19 -13 20 -33 2 -47 3 -55 12
-55 4 0 6 19 4 41 -3 27 0 44 9 50 22 13 30 0 25 -42 -2 -21 0 -41 5 -45 5 -3
10 11 10 30 2 57 3 61 20 64 11 2 16 -8 18 -40 3 -59 11 -62 11 -4 0 40 3 47
17 44 14 -3 17 -11 15 -41 -2 -22 1 -37 7 -37 6 0 11 18 11 40 0 28 4 40 15
42 8 0 20 1 27 2 6 1 13 -15 16 -34 2 -19 8 -42 13 -50 7 -10 8 2 4 38 -5 48
-4 53 12 50 17 -3 19 -8 22 -55 0 -13 6 -23 11 -23 6 0 8 15 4 40 -6 36 -5 40
15 40 18 0 21 -6 21 -39 0 -22 4 -42 9 -45 5 -3 8 10 6 29 -1 18 2 40 6 47 6
8 9 0 9 -23 0 -19 6 -44 14 -55 14 -17 14 -16 7 16 -9 45 -4 68 17 72 34 8 47
2 62 -27z m42 0 c-18 -24 -32 -16 -32 16 0 12 7 15 25 12 24 -5 24 -6 7 -28z
m1628 -32 c0 -11 -25 1 -47 23 -20 20 -23 28 -13 34 10 6 21 -1 37 -23 13 -17
23 -32 23 -34z m-608 6 c19 -19 62 -14 54 6 -4 10 2 11 26 4 19 -5 38 -4 50 2
13 7 30 7 51 0 31 -9 72 -15 207 -27 36 -4 67 -8 68 -10 2 -1 -11 -10 -30 -20
-33 -18 -124 -22 -213 -10 -22 3 -101 8 -175 12 -97 4 -142 10 -159 21 -24 15
-24 16 -5 30 26 19 104 14 126 -8z m-342 1 c13 -8 13 -10 -2 -10 -9 0 -20 5
-23 10 -8 13 5 13 25 0z m-2085 -37 c-2 -10 -4 -22 -4 -27 -1 -4 -12 -5 -26
-2 -29 7 -32 -1 -7 -21 15 -13 15 -13 -8 -7 -24 6 -24 6 -7 -13 27 -31 21 -46
-9 -26 -27 17 -27 17 -15 -5 6 -12 16 -22 21 -22 6 0 10 -7 10 -15 0 -24 -12
-18 -52 28 -20 23 -37 37 -38 31 0 -6 16 -29 35 -51 54 -64 41 -75 -15 -13
-27 30 -49 50 -50 45 0 -14 26 -53 62 -91 19 -20 26 -34 19 -39 -6 -3 -24 9
-39 27 -49 60 -104 113 -99 96 3 -9 1 -18 -4 -20 -10 -3 82 -136 103 -149 7
-4 6 -9 -3 -14 -8 -5 -19 1 -32 16 -65 81 -112 129 -115 120 -2 -7 21 -43 52
-81 31 -38 56 -77 56 -86 0 -9 -26 17 -57 59 -71 92 -83 82 -18 -14 26 -38 46
-71 44 -72 -2 -1 -18 -10 -36 -20 l-32 -17 -53 70 c-29 39 -54 67 -56 61 -2
-6 5 -23 15 -38 70 -102 77 -143 9 -56 -41 53 -48 42 -11 -17 17 -27 21 -40
12 -40 -7 0 -22 19 -32 43 -13 27 -20 36 -23 25 -2 -9 2 -27 8 -38 17 -32 2
-39 -20 -10 -23 30 -24 41 -6 84 19 45 35 127 42 206 3 36 7 66 9 69 3 2 48 5
101 7 156 6 211 11 230 23 28 16 43 13 39 -6z m3130 -14 c33 1 70 3 83 6 19 3
21 1 12 -15 -6 -11 -23 -23 -38 -26 -15 -3 -40 -9 -56 -13 -31 -7 -226 38
-226 53 0 5 36 5 83 1 45 -4 109 -7 142 -6z m-567 -23 c9 -5 134 -17 189 -18
23 0 41 -5 40 -10 -1 -5 45 -32 103 -59 58 -27 98 -49 89 -49 -10 0 -50 16
-90 35 -80 37 -147 56 -135 37 4 -8 -3 -8 -26 -2 -52 15 -44 3 18 -29 76 -39
64 -40 -18 -1 -70 33 -115 41 -55 9 20 -11 37 -21 37 -24 0 -5 -31 5 -45 15
-28 20 -74 28 -90 16 -14 -10 -10 -15 31 -34 25 -13 44 -25 42 -27 -16 -16
-219 75 -278 125 l-35 30 108 -5 c59 -2 111 -6 115 -9z m452 -58 c64 -35 71
-51 24 -56 -22 -2 -25 0 -14 7 13 9 12 12 -5 25 -11 8 -46 25 -77 37 -32 12
-55 25 -53 29 8 12 57 -4 125 -42z m-177 25 c-7 -2 -19 -2 -25 0 -7 3 -2 5 12
5 14 0 19 -2 13 -5z m-2518 -13 c3 -5 -1 -10 -9 -10 -9 0 -16 5 -16 10 0 6 4
10 9 10 6 0 13 -4 16 -10z m2813 -9 c29 11 28 5 -3 -15 -23 -15 -28 -15 -55
-1 -39 20 -38 25 3 15 18 -4 43 -3 55 1z m-2824 -50 c10 -11 35 -24 55 -27 27
-5 59 -29 130 -98 158 -153 212 -209 254 -263 41 -55 56 -68 37 -33 -6 11 -8
20 -4 20 12 0 84 -80 84 -94 0 -8 7 -12 18 -10 12 3 52 -31 132 -111 63 -63
109 -115 103 -115 -7 0 -14 4 -18 10 -3 5 -20 19 -38 32 l-31 23 22 -36 c44
-72 20 -61 -69 31 -50 52 -77 78 -60 57 17 -21 31 -43 31 -50 -1 -12 -36 24
-126 128 -137 159 -175 183 -52 34 148 -180 169 -209 154 -209 -8 0 -24 15
-36 34 -11 19 -27 36 -34 38 -8 2 -62 59 -121 128 -59 69 -116 134 -128 145
-22 22 41 -71 140 -205 35 -47 63 -95 63 -108 0 -21 -1 -22 -16 -8 -22 23 -37
20 -31 -5 5 -20 4 -20 -22 5 -15 14 -32 26 -39 26 -6 0 -24 18 -38 40 -15 22
-31 40 -36 40 -5 0 7 -24 27 -52 19 -29 35 -56 35 -59 0 -16 -48 6 -64 29
l-17 27 6 -25 6 -25 -18 21 c-10 12 -40 50 -67 84 -67 85 -70 60 -5 -34 88
-127 48 -95 -59 46 -102 136 -124 178 -50 98 37 -40 35 -36 -18 40 -32 47 -66
94 -76 104 -18 19 -18 19 -18 1 0 -15 -6 -10 -25 17 -14 20 -25 42 -25 48 0 6
-6 10 -12 9 -7 -1 -26 1 -42 6 -25 7 -33 4 -53 -19 -33 -39 -25 -63 54 -163
100 -126 106 -134 101 -138 -5 -6 -148 162 -148 175 0 5 -7 10 -15 10 -9 0
-12 -6 -9 -15 10 -26 -53 -19 -81 9 -15 15 -26 20 -28 13 -8 -23 6 -36 54 -52
48 -16 59 -28 39 -40 -5 -3 -10 -1 -10 4 0 6 -4 11 -10 11 -5 0 -10 -6 -10
-14 0 -17 -66 -14 -83 3 -16 16 -27 13 -20 -4 8 -23 53 -42 95 -42 37 0 68
-16 68 -35 0 -6 -8 -4 -17 3 -23 19 -17 10 70 -119 39 -56 68 -104 66 -106 -2
-3 -45 51 -94 120 -50 68 -93 124 -97 124 -5 0 -8 -7 -8 -15 0 -20 -7 -19 -37
5 -14 11 -32 20 -39 20 -43 0 -31 121 23 228 52 104 201 292 232 292 6 0 8 7
4 16 -5 13 -3 15 13 6 11 -6 28 -19 38 -31z m135 -12 c35 -28 22 -32 -14 -3
-16 13 -25 24 -20 24 6 -1 21 -10 34 -21z m1487 -15 c22 -9 61 -18 87 -19 77
-4 317 -136 408 -226 39 -38 75 -69 80 -69 5 0 9 9 9 21 0 18 5 20 43 17 35
-2 43 -7 45 -25 2 -15 -2 -23 -12 -23 -10 0 -13 6 -10 15 9 22 -20 19 -41 -5
-17 -19 -17 -21 0 -40 24 -27 16 -33 -19 -15 -46 24 -53 17 -16 -15 34 -29 28
-40 -11 -20 -23 13 -25 3 -2 -22 13 -14 14 -21 5 -30 -10 -10 -23 -9 -61 5
-70 24 -72 21 -17 -18 28 -19 51 -43 52 -53 1 -9 5 -25 9 -34 5 -12 2 -20 -9
-24 -9 -3 -13 -10 -10 -15 11 -18 -28 -8 -89 23 -34 18 -75 38 -92 45 -26 11
-24 8 15 -26 25 -22 54 -41 64 -43 22 -3 35 -28 14 -28 -7 0 -42 14 -76 30
-35 17 -66 30 -70 30 -3 0 28 -23 69 -51 41 -28 79 -55 84 -61 20 -20 -39 5
-104 44 -36 22 -70 43 -76 46 -10 5 35 -45 89 -99 34 -35 25 -36 -40 -5 -94
45 -104 42 -45 -13 30 -28 52 -54 48 -57 -5 -6 -179 150 -185 167 -2 5 -8 9
-13 9 -19 0 12 -51 61 -96 28 -27 58 -61 65 -75 12 -23 19 -26 52 -22 21 2 84
5 141 6 99 2 102 1 102 -20 0 -32 17 -37 24 -8 5 21 12 25 49 26 23 1 48 1 56
0 21 -3 6 13 -48 49 -79 54 -60 55 24 2 l74 -47 -5 -49 c-7 -60 11 -55 22 7 5
23 8 45 9 48 0 4 -27 28 -60 54 -33 27 -52 45 -43 42 9 -3 43 -27 77 -53 56
-43 62 -46 97 -37 l37 8 -97 69 c-53 37 -99 73 -103 79 -7 11 -5 10 74 -40 56
-36 68 -40 57 -20 -4 6 2 4 13 -6 11 -9 22 -14 26 -11 7 7 92 -40 102 -57 4
-6 -16 1 -45 16 -29 14 -54 25 -56 22 -2 -2 9 -15 24 -30 29 -28 66 -36 176
-39 40 -1 72 4 94 16 36 19 37 16 23 -48 -11 -45 -5 -66 17 -66 11 0 13 3 5
11 -10 10 0 85 13 98 7 7 104 18 104 12 0 -3 -7 -24 -14 -46 -21 -61 -8 -62
22 -3 22 43 32 53 54 55 26 2 27 0 23 -40 -4 -37 -4 -39 6 -17 20 45 26 55 33
53 3 -2 32 -3 64 -3 l57 -1 -73 -69 c-41 -39 -105 -92 -143 -118 l-69 -49 -57
9 c-32 5 -69 11 -83 13 -133 25 -231 38 -317 40 -64 1 -109 7 -118 15 -12 10
-15 10 -15 -3 0 -8 -7 -18 -16 -21 -34 -13 -58 -4 -90 32 -39 44 -44 31 -9
-29 28 -50 32 -67 10 -49 -8 7 -15 19 -15 28 0 17 -28 52 -41 52 -5 0 0 -15
11 -32 11 -18 20 -37 20 -43 -1 -13 -38 34 -50 63 -5 12 -17 22 -25 22 -14 0
-14 -4 3 -27 30 -45 36 -57 24 -49 -6 4 -26 27 -43 51 -38 53 -51 52 -19 0 12
-20 21 -38 19 -40 -2 -2 -94 19 -204 45 -110 27 -208 49 -217 50 -15 0 -48 35
-48 51 0 3 49 5 108 4 122 -2 172 3 172 17 0 21 -63 89 -79 85 -9 -2 -28 3
-43 10 -16 7 -40 18 -55 23 -30 11 -30 10 32 -36 71 -53 0 -18 -222 112 -137
79 -248 149 -248 156 0 14 27 15 60 3 11 -4 7 2 -10 14 -16 11 -42 21 -57 21
-24 0 -28 -4 -28 -29 0 -25 9 -35 65 -70 35 -23 66 -41 68 -41 10 0 202 -111
202 -118 0 -4 4 -13 8 -19 11 -18 3 -16 -43 7 -22 11 -40 18 -40 16 0 -3 12
-11 26 -19 21 -11 23 -15 12 -25 -11 -9 -36 1 -118 49 -57 32 -106 62 -108 64
-3 3 2 13 11 23 21 23 22 36 2 28 -8 -3 -15 -1 -15 4 0 6 -14 10 -31 10 -17 0
-45 11 -64 26 -19 14 -42 24 -51 22 -12 -2 -2 -11 29 -27 26 -13 53 -31 60
-40 13 -16 14 -16 -35 4 -10 4 -18 3 -18 -3 0 -5 45 -36 100 -68 55 -33 96
-60 91 -62 -5 -2 -53 20 -107 49 -108 58 -122 54 -19 -6 36 -21 63 -40 61 -42
-2 -3 -40 14 -85 37 -112 58 -148 50 -47 -10 42 -24 76 -48 76 -53 0 -5 -34 9
-75 32 -41 22 -75 37 -75 33 0 -4 30 -27 66 -52 86 -59 92 -71 13 -28 -56 31
-220 117 -242 126 -4 2 -5 -11 -2 -29 7 -37 -9 -53 -37 -38 -13 7 -18 6 -18
-2 0 -8 -5 -8 -17 2 -10 7 2 -8 27 -34 24 -26 40 -47 34 -47 -6 0 -83 60 -171
134 l-162 134 77 113 c113 168 244 292 309 292 14 0 46 -22 83 -57 99 -91 138
-91 259 2 128 98 149 108 257 121 6 0 29 -6 50 -15z m874 -19 c14 -8 21 -14
15 -14 -5 0 -21 6 -35 14 -14 8 -20 14 -15 14 6 0 21 -6 35 -14z m481 -154
c13 -11 22 -22 19 -24 -3 -3 -18 6 -35 19 -16 13 -25 24 -19 24 7 0 22 -9 35
-19z m-43 -89 c21 -33 10 -27 -29 15 -26 28 -28 33 -10 22 14 -9 31 -25 39
-37z m-30 -22 c38 -36 24 -32 -38 10 -33 22 -60 43 -60 46 0 8 75 -34 98 -56z
m-2880 -94 c37 -50 69 -93 72 -96 17 -16 120 -161 134 -189 30 -58 -5 -31 -54
41 -47 70 -78 105 -45 53 10 -16 24 -39 32 -50 7 -11 13 -26 13 -34 0 -7 -12
4 -26 25 -59 87 -107 144 -121 144 -6 0 27 -55 89 -148 26 -41 48 -78 48 -83
0 -6 -22 14 -49 43 -87 96 -108 123 -104 135 5 15 -36 81 -107 168 -31 39 -60
77 -64 85 -4 8 2 3 14 -12 26 -33 46 -38 30 -7 -17 31 -3 36 26 8 l27 -24 -17
26 c-9 14 -13 29 -9 32 10 11 38 -19 111 -117z m2536 89 c13 -35 -80 -56 -101
-22 -4 6 3 8 20 3 32 -8 60 2 53 20 -3 8 1 14 8 14 8 0 16 -7 20 -15z m297
-29 c54 -28 146 -94 169 -121 14 -17 13 -18 -2 -12 -10 3 -18 2 -18 -2 0 -5 6
-11 13 -14 6 -2 10 -7 7 -10 -3 -3 -44 28 -91 67 -48 40 -100 82 -115 94 -39
29 -23 28 37 -2z m-303 -112 c-3 -25 -8 -29 -39 -32 -24 -2 -43 3 -60 17 -30
24 -19 39 13 17 12 -9 33 -16 45 -16 19 0 23 5 23 32 0 23 3 29 11 21 6 -6 9
-23 7 -39z m297 -39 c77 -50 135 -99 135 -116 0 -4 -13 5 -28 19 -15 15 -41
35 -57 44 -60 36 -196 141 -145 113 8 -5 51 -32 95 -60z m-2866 -87 c61 -79
111 -150 111 -158 -1 -11 -4 -9 -12 5 -10 18 -174 222 -188 235 -15 13 -39 60
-31 60 4 0 59 -64 120 -142z m2805 62 c45 -27 97 -64 116 -80 25 -23 12 -17
-50 21 -109 67 -190 123 -166 115 11 -4 56 -29 100 -56z m-481 20 c-3 -13 -12
-20 -22 -18 -9 2 -14 8 -12 13 1 6 7 9 12 8 5 -2 9 4 9 13 0 8 4 13 9 10 5 -3
7 -15 4 -26z m-2398 -75 c33 -47 72 -103 88 -122 27 -36 34 -53 20 -53 -10 0
-177 238 -181 258 -7 26 13 4 73 -83z m2917 -34 c78 -60 54 -56 -34 5 -46 31
-87 61 -93 67 -23 21 84 -39 127 -72z m-29 -21 c42 -30 77 -59 77 -63 0 -10
-9 -5 -118 73 -50 36 -91 69 -92 73 0 10 25 -6 133 -83z m-202 24 c25 -19 53
-34 60 -34 8 0 32 -12 54 -27 22 -16 56 -35 75 -44 19 -8 30 -18 24 -22 -6 -3
-35 9 -65 28 -48 30 -55 32 -63 17 -6 -10 -5 -17 1 -19 6 -2 19 -11 29 -19 24
-19 -54 19 -81 40 -19 15 -19 15 5 9 17 -4 2 13 -50 56 -41 35 -77 66 -80 68
-12 13 47 -22 91 -53z m-2762 -55 c73 -82 84 -105 37 -74 -48 32 -138 155
-112 155 2 0 36 -37 75 -81z m2920 20 c45 -33 81 -63 81 -65 0 -7 -12 1 -95
59 -83 59 -93 67 -78 67 7 0 48 -27 92 -61z m-1693 -90 c7 -12 -70 3 -93 18
-18 12 -21 19 -12 34 10 19 12 18 55 -13 25 -18 47 -36 50 -39z m1545 31 c19
-16 29 -29 23 -30 -6 0 -21 9 -33 19 -12 11 -32 26 -44 34 l-22 16 21 -6 c12
-2 37 -18 55 -33z m-54 -11 c35 -23 63 -43 63 -45 0 -11 -22 0 -80 41 -80 56
-68 59 17 4z m-208 10 c35 -29 22 -31 -19 -3 -19 13 -28 24 -20 24 8 -1 26
-10 39 -21z m-1408 -6 c27 -16 47 -43 31 -43 -11 1 -78 59 -69 60 5 0 22 -8
38 -17z m623 -148 c0 -16 2 -32 5 -35 4 -3 13 -18 20 -35 l14 -30 6 26 6 27
60 -18 c51 -15 277 -71 340 -84 11 -3 67 -16 125 -30 136 -34 189 -34 144 -2
-13 10 -12 12 8 13 14 2 41 -12 67 -32 53 -43 79 -46 33 -5 -39 36 -33 38 15
5 45 -30 59 -22 18 11 -16 13 -27 24 -23 24 4 0 23 -14 43 -31 38 -34 44 -32
19 6 -15 23 -15 25 0 31 9 4 41 4 70 2 47 -4 65 -13 154 -77 90 -64 107 -73
154 -76 56 -4 218 -32 225 -38 2 -2 -4 -10 -13 -18 -13 -10 -50 -13 -164 -11
-123 3 -149 1 -159 -12 -7 -9 -18 -13 -24 -9 -5 3 -28 7 -50 9 -22 2 -41 4
-42 6 -1 2 -19 29 -39 61 l-37 57 -157 0 c-86 0 -206 1 -266 2 l-110 3 -26 44
c-14 25 -31 46 -39 49 -8 3 -3 -13 13 -40 29 -49 31 -58 16 -58 -6 0 -26 24
-45 54 -53 84 -77 89 -30 7 14 -23 25 -46 25 -49 0 -15 -45 39 -66 80 -21 42
-44 69 -44 53 0 -3 11 -28 25 -55 14 -27 25 -53 25 -56 0 -17 -54 45 -76 86
-20 39 -23 41 -24 20 0 -14 7 -36 16 -48 9 -13 14 -25 13 -27 -8 -7 -37 22
-62 63 -15 23 -29 42 -32 42 -5 0 8 -36 25 -73 6 -12 -12 3 -40 33 -47 50 -50
52 -35 20 10 -19 24 -43 33 -52 8 -10 10 -18 4 -18 -17 0 -72 50 -88 81 -17
34 -39 39 -29 8 5 -16 3 -20 -6 -17 -8 3 -14 13 -14 24 0 31 -20 44 -61 39
-75 -10 -120 -16 -174 -25 -128 -22 -131 -22 -150 -5 -19 17 -19 18 5 50 14
17 25 37 25 43 0 14 41 17 225 17 l150 0 -1 -30z m-390 18 c-6 -5 -23 -29 -38
-54 l-26 -47 22 -7 23 -8 -23 -4 c-16 -3 -29 3 -44 22 -25 33 -36 26 -13 -9
17 -26 17 -26 -7 -26 -16 0 -35 12 -52 32 -28 35 -36 22 -10 -17 21 -32 7 -32
-40 0 -35 24 -51 20 -21 -5 39 -33 -11 -42 -52 -10 -14 11 -37 20 -51 20 l-25
0 21 -23 c32 -34 18 -38 -46 -16 -31 11 -70 19 -87 18 -31 -1 -82 8 -97 17
-11 7 -68 14 -68 9 0 -2 32 -26 70 -54 88 -64 92 -76 6 -16 -63 45 -101 60
-77 32 9 -11 5 -14 -19 -15 -16 0 -32 3 -35 8 -3 4 -14 6 -25 3 -16 -4 -18 -9
-9 -19 11 -14 3 -13 -111 5 -60 9 -93 1 -100 -27 -5 -22 -6 -22 -58 14 -65 44
-79 39 -20 -7 56 -43 70 -57 34 -35 -100 63 -130 74 -143 52 -5 -7 -15 -15
-23 -18 -11 -4 -5 -11 18 -24 65 -37 70 -45 19 -30 -26 8 -53 19 -60 24 -7 5
-20 12 -31 16 -14 5 -17 2 -12 -9 7 -19 0 -18 -54 8 -50 25 -64 53 -75 147
l-6 53 32 -7 c17 -3 39 -6 48 -6 27 0 40 -14 46 -50 10 -60 28 -62 20 -2 -6
46 -5 52 12 53 101 6 141 5 158 -4 17 -10 255 -11 490 -4 34 1 50 -2 51 -10 1
-7 2 -19 3 -25 1 -7 7 -2 14 12 11 22 19 25 72 25 59 0 60 0 59 -28 -1 -31 12
-25 18 8 2 13 12 21 28 23 24 3 25 1 22 -39 -5 -53 14 -45 23 10 6 36 10 40
38 43 76 7 221 8 211 1z m350 -98 c-4 -8 -10 -15 -15 -15 -5 0 -8 -5 -6 -12 1
-6 -9 -17 -22 -24 -18 -9 -25 -22 -28 -48 -1 -20 1 -36 5 -36 5 0 17 -7 28
-14 11 -9 -5 -6 -37 7 -49 19 -54 24 -40 35 14 12 14 12 -4 8 -74 -19 -72 -19
-91 13 -23 39 -40 41 -19 2 11 -22 12 -32 3 -37 -10 -7 -32 14 -41 40 -2 6 -7
8 -11 4 -4 -3 -3 -15 3 -26 8 -16 7 -21 -4 -26 -10 -4 -20 3 -27 19 -15 33
-30 32 -18 0 5 -14 6 -25 1 -25 -5 0 -12 10 -16 23 -7 21 -8 20 -14 -8 l-6
-29 -29 29 c-27 28 -28 25 -10 -19 4 -10 -23 -17 -123 -29 -191 -25 -234 -26
-265 -10 -64 32 -11 60 160 84 127 18 554 94 577 103 6 3 20 5 32 5 16 1 21
-3 17 -14z m976 -45 c11 -7 3 -10 -30 -11 -25 0 -54 -2 -64 -4 -25 -5 -42 5
-27 14 18 12 105 12 121 1z m-952 -18 c2 -7 -2 -10 -12 -6 -9 3 -16 11 -16 16
0 13 23 5 28 -10z m719 -4 c-8 -4 -23 -5 -33 -1 -16 6 -16 7 2 13 26 10 52 0
31 -12z m78 12 c-3 -5 -13 -10 -21 -10 -8 0 -14 5 -14 10 0 6 9 10 21 10 11 0
17 -4 14 -10z m-1970 -51 c33 -7 65 -14 72 -15 108 -20 383 -134 383 -158 0
-6 11 -12 25 -12 14 -1 25 2 25 6 0 5 44 18 98 30 53 12 124 30 157 42 33 11
80 26 103 34 l44 14 74 -77 c71 -72 98 -89 74 -44 -9 18 -8 21 7 22 10 1 25 2
33 3 8 1 26 -8 39 -19 l24 -20 -7 28 c-5 21 -3 27 9 27 9 0 18 -7 21 -15 4 -8
10 -15 15 -15 4 0 6 7 2 16 -9 24 18 36 34 16 11 -16 12 -15 13 2 0 11 3 17 6
13 4 -3 20 1 35 9 16 8 58 15 92 16 86 1 130 -23 189 -105 l21 -29 -31 16
c-59 30 -56 16 6 -29 34 -25 68 -59 77 -75 l16 -31 -52 35 c-55 39 -93 49 -45
13 94 -71 127 -99 122 -105 -4 -3 -19 4 -34 15 -43 32 -90 54 -96 44 -3 -4 5
-13 17 -18 31 -14 137 -102 137 -114 0 -5 -26 5 -57 22 l-58 30 34 -28 c19
-15 50 -43 70 -62 37 -34 28 -31 -44 15 -38 25 -30 2 9 -24 41 -28 92 -81 61
-63 -11 6 -31 19 -45 28 -14 9 -3 -5 24 -32 55 -54 55 -53 -39 -85 l-55 -19
-1 32 c0 18 -2 41 -4 52 -2 11 -7 40 -10 65 -22 168 -155 428 -221 432 -29 2
-165 -60 -194 -89 l-25 -24 25 9 c14 6 50 21 80 34 100 44 105 44 140 -7 61
-88 106 -210 146 -392 13 -62 24 -115 24 -117 0 -3 -18 -11 -40 -17 -51 -16
-51 -27 0 -23 22 2 42 -2 46 -7 4 -6 13 -4 23 5 10 9 55 27 101 41 46 14 95
33 109 42 l26 18 -31 3 c-30 3 -32 6 -38 55 -4 29 -7 55 -7 59 -1 18 -39 137
-57 180 -12 26 -37 72 -57 103 -19 30 -35 57 -35 59 0 2 17 0 38 -5 20 -4 69
-11 107 -15 95 -8 134 -27 274 -135 113 -86 122 -91 148 -81 15 6 51 14 78 18
28 4 59 10 70 15 16 6 14 8 -12 8 -18 1 -33 4 -33 9 1 23 69 129 90 140 26 13
246 10 284 -4 12 -5 25 1 42 19 13 14 24 31 24 37 0 17 16 11 20 -7 9 -53 0
-284 -13 -328 l-15 -50 -7 53 c-4 29 -11 54 -15 57 -7 5 -3 -121 5 -143 12
-33 -115 -202 -152 -202 -8 0 -12 4 -9 8 2 4 8 44 11 87 4 44 9 82 10 85 2 3
6 46 10 95 4 50 8 102 11 117 5 34 -12 46 -20 14 -3 -13 -13 -75 -21 -137 -9
-63 -18 -126 -20 -140 -3 -15 -7 -57 -11 -95 -6 -78 -20 -99 -73 -114 -63 -18
-63 -18 -56 63 23 270 28 374 17 381 -16 10 -19 -2 -27 -94 -4 -47 -9 -92 -10
-101 -5 -26 -18 -213 -17 -236 1 -12 -2 -24 -7 -27 -16 -10 -83 -18 -78 -9 3
4 8 33 11 63 3 30 8 64 10 75 5 24 15 120 20 190 3 28 5 55 6 60 1 6 2 20 1
33 -2 40 -20 23 -26 -25 -4 -27 -8 -58 -10 -69 -2 -12 -7 -48 -10 -80 -4 -33
-9 -68 -11 -79 -2 -11 -6 -47 -9 -80 -8 -87 -13 -102 -31 -102 -14 0 -15 12
-10 96 9 144 16 241 21 288 7 57 -19 71 -29 16 -2 -10 -7 -52 -11 -93 -4 -41
-9 -88 -11 -105 -2 -16 -6 -69 -10 -117 l-7 -87 -46 -6 c-25 -3 -61 -8 -80
-10 l-33 -4 7 37 c13 66 25 156 25 186 0 33 -12 28 -17 -7 -15 -101 -34 -212
-37 -215 -4 -4 -51 -7 -241 -16 -476 -23 -541 -25 -539 -11 1 6 5 57 8 115 4
58 9 144 12 192 4 54 2 93 -5 105 -9 15 -10 12 -11 -20 0 -21 -4 -36 -9 -33
-15 10 -21 -23 -9 -52 6 -15 11 -29 11 -32 -1 -3 -4 -43 -8 -90 -4 -47 -9 -94
-10 -105 -2 -11 -4 -36 -4 -55 -1 -33 -3 -35 -33 -35 -41 0 -47 9 -43 54 16
146 22 388 10 399 -12 12 -16 -12 -21 -124 -2 -66 -7 -141 -11 -169 -3 -27 -6
-72 -7 -100 -1 -49 -2 -50 -36 -55 -19 -3 -56 -3 -81 -2 l-45 4 -3 66 c-1 37
-4 83 -6 102 -1 19 -3 55 -4 79 0 24 -3 42 -6 39 -16 -16 -21 -115 -10 -221
l7 -65 -37 -4 c-20 -2 -38 -2 -40 1 -1 3 -6 35 -9 71 -4 36 -9 86 -12 111 -3
27 -1 56 5 68 9 17 8 22 -10 32 l-22 11 8 -118 c8 -126 10 -148 20 -163 7 -12
-21 -18 -57 -13 -16 3 -28 11 -28 19 0 8 5 11 10 8 13 -8 13 31 1 54 -5 9 -13
80 -16 157 -13 270 -14 275 -24 229 -7 -32 -5 -377 2 -433 l5 -33 -42 3 -41 4
-6 209 c-3 116 -7 211 -7 213 -13 19 -17 -26 -16 -166 1 -174 -1 -196 -19
-185 -5 3 -7 2 -4 -4 3 -5 8 -21 11 -36 4 -23 1 -27 -19 -27 -28 0 -33 14 -39
105 -3 33 -8 103 -12 155 -4 52 -8 103 -8 113 0 9 -4 17 -10 17 -9 0 -2 -301
10 -356 l6 -32 -53 5 c-30 2 -55 6 -57 8 -2 2 -6 77 -8 167 -10 383 -13 441
-23 451 -13 13 -12 32 -13 -273 0 -129 3 -261 7 -293 7 -57 7 -58 -16 -53 -13
3 -51 8 -84 11 -94 10 -126 13 -185 20 -106 12 -193 25 -196 28 -1 1 -5 29 -9
62 -4 33 -18 121 -32 195 -14 74 -28 150 -30 168 -3 18 -10 35 -16 39 -5 3 -8
2 -5 -3 3 -5 9 -46 12 -90 4 -45 9 -93 11 -105 2 -13 11 -67 20 -119 8 -52 18
-106 21 -120 4 -24 3 -25 -36 -22 -22 2 -40 7 -41 11 0 3 -2 15 -4 26 -3 11
-6 36 -9 55 -38 304 -59 392 -50 215 5 -103 28 -267 40 -286 3 -5 -2 -9 -11
-9 -24 0 -34 35 -55 190 -6 41 -12 84 -14 95 -2 11 -9 53 -16 93 -7 39 -16 70
-18 67 -14 -14 7 -214 39 -373 11 -57 9 -68 -14 -59 -9 3 -19 32 -26 69 -11
63 -13 73 -31 183 -5 33 -12 69 -14 80 -2 11 -6 37 -10 57 -10 53 -25 56 -20
5 6 -76 19 -173 29 -227 10 -53 25 -144 25 -152 0 -5 -11 -8 -25 -8 -42 0 -60
29 -78 131 -24 131 -25 139 -26 182 -1 20 -6 37 -12 37 -15 0 -6 -125 17 -238
16 -79 14 -107 -5 -86 -9 10 -35 118 -55 235 -14 77 -22 103 -35 107 -8 3 -11
1 -8 -4 3 -5 8 -43 12 -84 4 -41 8 -77 10 -80 2 -3 0 -12 -5 -20 -5 -8 1 -34
17 -69 14 -31 27 -62 30 -68 10 -25 -36 -13 -55 15 -39 56 -97 194 -109 262
-9 44 -5 201 5 260 l7 45 48 3 c45 3 47 2 39 -20 -5 -13 -7 -29 -6 -35 1 -7 2
-22 3 -33 0 -11 6 -20 11 -20 6 0 10 24 10 54 0 54 8 66 46 66 11 0 12 -4 4
-19 -12 -24 -13 -81 -1 -100 6 -9 9 5 9 41 -1 60 5 78 28 78 10 0 14 -12 14
-37 0 -21 5 -45 10 -53 11 -17 11 -18 13 50 2 33 4 35 44 41 42 5 43 5 50 -30
l7 -36 6 34 c6 39 3 39 142 42 73 2 98 6 98 16 0 7 10 13 23 13 20 0 22 -5 22
-40 0 -54 19 -56 23 -2 3 42 3 42 42 42 57 0 67 -7 85 -61 9 -27 20 -51 25
-54 8 -5 -6 70 -16 87 -3 4 -3 12 0 17 7 10 180 -39 327 -92 52 -19 98 -35
102 -36 5 -2 23 8 40 21 52 39 86 47 195 46 l103 -1 -1 -26 c-3 -40 -1 -51 9
-51 5 0 8 18 7 40 -3 38 -1 40 27 40 27 0 29 -2 24 -28 -7 -34 7 -63 17 -37 3
9 6 27 6 40 0 25 17 35 61 35 19 0 28 4 23 11 -4 7 -61 9 -188 4 -209 -8 -198
-7 -264 -35 -58 -25 -56 -25 -222 40 -134 53 -256 81 -354 82 -42 0 -91 22
-81 37 3 5 51 7 107 5 94 -4 101 -3 84 11 -11 8 -27 15 -35 15 -22 1 -92 10
-118 16 -17 3 -22 10 -19 27 3 12 5 25 5 30 1 4 11 5 24 3 12 -3 49 -11 82
-17z m1129 -18 c4 -5 -3 -7 -14 -4 -23 6 -26 13 -6 13 8 0 17 -4 20 -9z
m-1554 -16 c14 -8 21 -14 15 -14 -5 0 -21 6 -35 14 -14 8 -20 14 -15 14 6 0
21 -6 35 -14z m1420 6 c0 -14 -38 -24 -52 -14 -9 5 -3 10 17 14 17 4 31 7 33
8 1 0 2 -3 2 -8z m-1249 -67 c17 -8 28 -21 26 -27 -5 -15 -45 -10 -77 10 -23
16 -23 17 -5 24 11 4 21 8 23 8 2 1 17 -6 33 -15z m94 -4 c16 -17 16 -20 2
-26 -20 -7 -57 13 -57 31 0 22 34 18 55 -5z m840 5 c-27 -7 -83 -22 -123 -34
-68 -21 -75 -21 -98 -6 -30 20 -30 22 4 23 15 1 72 8 127 16 123 17 156 18 90
1z m-1018 -10 c33 -22 28 -35 -12 -35 -22 0 -38 -6 -41 -15 -4 -8 -17 -15 -30
-15 -28 0 -28 1 -10 43 15 38 54 47 93 22z m1423 -17 c0 -14 -16 -9 -36 13
-19 21 -19 21 9 8 15 -7 27 -16 27 -21z m617 23 l142 -1 35 -45 c20 -26 36
-40 38 -33 3 9 9 8 22 -5 27 -27 31 -13 7 21 -12 17 -21 36 -21 43 0 7 28 -25
63 -71 34 -46 72 -87 85 -91 l23 -9 -28 51 c-19 37 -29 46 -33 34 -4 -13 -10
-10 -28 15 -23 30 -16 43 8 15 7 -8 15 -13 19 -11 12 8 39 -20 61 -61 21 -41
50 -74 50 -56 0 5 -7 19 -16 31 -9 13 -13 26 -9 30 4 4 15 -4 24 -17 29 -44
49 -66 55 -60 3 3 -6 22 -20 42 -23 34 -23 47 1 29 23 -17 65 -90 60 -104 -7
-18 -47 -38 -76 -38 -23 0 -82 38 -179 116 -103 82 -114 86 -280 105 -111 13
-140 22 -171 55 l-23 24 25 -4 c13 -2 88 -5 166 -5z m204 -33 c17 -24 18 -29
6 -19 -18 14 -42 51 -33 51 3 0 15 -15 27 -32z m389 -108 c-21 -16 -22 -20 -7
-20 19 0 15 -13 -15 -53 -12 -16 -16 -13 -41 30 -16 27 -23 42 -16 36 17 -17
39 -16 39 1 0 14 18 23 50 25 9 0 6 -7 -10 -19z m-1113 -422 c-3 -7 -5 -2 -5
12 0 14 2 19 5 13 2 -7 2 -19 0 -25z"/>
<path d="M3490 4376 c0 -6 39 -64 62 -91 5 -5 4 4 -2 22 -10 28 -60 86 -60 69z"/>
<path d="M3465 4310 c43 -44 50 -49 36 -22 -15 27 -51 62 -63 62 -7 0 6 -18
27 -40z"/>
<path d="M3400 4326 c0 -10 40 -76 46 -76 2 0 4 6 4 13 -1 14 -50 77 -50 63z"/>
<path d="M3368 4280 c9 -16 18 -25 20 -20 4 12 -17 50 -28 50 -5 0 -1 -13 8
-30z"/>
<path d="M2370 4240 c19 -16 41 -30 49 -30 8 0 -5 14 -27 30 -53 38 -68 38
-22 0z"/>
<path d="M1868 4215 c13 -25 72 -82 72 -69 -1 11 -27 41 -59 69 l-24 20 11
-20z"/>
<path d="M1867 4160 c9 -16 21 -30 26 -30 4 0 0 14 -10 30 -9 17 -21 30 -26
30 -4 0 0 -13 10 -30z"/>
<path d="M4056 4320 c8 -17 92 -128 110 -147 28 -29 23 -10 -8 33 -37 52 -114
138 -102 114z"/>
<path d="M1510 3742 c0 -27 79 -140 80 -114 0 13 -68 122 -76 122 -2 0 -4 -4
-4 -8z"/>
<path d="M2140 3767 c0 -5 20 -33 45 -61 25 -29 45 -57 45 -62 0 -6 18 -30 41
-54 23 -25 73 -81 111 -125 39 -44 75 -84 81 -90 14 -14 -41 71 -85 132 -21
29 -38 58 -38 66 0 7 -6 19 -12 26 -11 10 -9 11 7 5 18 -7 -1 14 -89 94 l-29
27 28 -37 c42 -57 21 -46 -45 25 -33 34 -60 58 -60 54z"/>
<path d="M1996 3684 c-11 -28 14 -45 49 -35 25 8 26 9 8 10 -13 1 -23 6 -23
11 0 15 12 12 40 -7 l25 -18 -30 -6 -30 -6 28 -8 c20 -5 33 -3 43 7 13 13 13
17 -3 37 -25 30 -97 41 -107 15z"/>
<path d="M2175 3650 c27 -27 51 -50 54 -50 8 0 -84 98 -94 99 -5 1 13 -21 40
-49z"/>
<path d="M2100 3596 c0 -8 7 -16 15 -20 13 -4 14 -2 5 14 -13 23 -20 26 -20 6z"/>
<path d="M2250 3558 c11 -18 20 -39 20 -45 0 -24 -17 -13 -30 17 -7 17 -19 30
-27 30 -11 0 -11 -4 -2 -22 9 -19 9 -21 -2 -10 -18 17 -29 15 -29 -5 1 -16
123 -172 167 -213 17 -16 -33 55 -55 79 -14 14 -32 55 -32 71 0 5 7 7 15 4 9
-4 15 -1 15 7 0 7 16 -2 35 -21 44 -42 45 -24 4 38 -57 85 -124 144 -79 70z"/>
<path d="M1887 3513 c-8 -14 12 -53 28 -53 14 0 14 3 0 30 -16 31 -21 35 -28
23z"/>
<path d="M2519 3472 c6 -12 16 -24 22 -28 8 -4 8 -1 0 14 -6 12 -16 24 -22 28
-8 4 -8 1 0 -14z"/>
<path d="M2290 3451 c0 -5 5 -13 10 -16 6 -3 10 -2 10 4 0 5 -4 13 -10 16 -5
3 -10 2 -10 -4z"/>
<path d="M3635 3780 c3 -5 18 -10 33 -10 21 0 24 2 12 10 -20 13 -53 13 -45 0z"/>
<path d="M3614 3738 c3 -13 6 -26 6 -30 0 -5 7 -8 16 -8 9 0 13 5 10 13 -3 6
-9 20 -12 30 -9 25 -27 21 -20 -5z"/>
<path d="M3508 3694 c-3 -3 -4 -14 -1 -25 4 -15 14 -19 44 -19 22 0 39 5 39
10 0 6 -13 10 -30 10 -20 0 -30 5 -30 15 0 15 -12 20 -22 9z"/>
<path d="M3733 3690 c-13 -5 -23 -15 -23 -21 0 -7 8 -9 23 -4 12 4 32 8 45 9
12 0 21 6 19 11 -5 14 -37 16 -64 5z"/>
<path d="M3850 3696 c0 -5 141 -97 199 -129 72 -39 58 -21 -26 35 -96 64 -173
106 -173 94z"/>
<path d="M3083 3663 c-7 -2 -9 -11 -6 -19 5 -13 -1 -14 -31 -9 -28 6 -36 4
-36 -8 0 -32 82 -32 94 -1 8 20 -5 42 -21 37z"/>
<path d="M3832 3601 c-11 -6 -7 -13 16 -30 17 -11 36 -21 44 -21 7 0 30 -11
50 -25 53 -36 59 -31 10 7 -32 24 -39 35 -30 45 8 10 4 12 -19 7 -22 -4 -32
-2 -36 10 -7 18 -16 20 -35 7z"/>
<path d="M3516 3583 c-3 -4 -1 -12 5 -19 6 -7 8 -18 5 -23 -8 -12 -37 -2 -52
17 -16 22 -28 -2 -14 -28 7 -14 21 -20 44 -20 33 0 45 16 46 56 0 13 -25 26
-34 17z"/>
<path d="M3970 3575 c0 -16 308 -215 333 -215 4 0 -6 20 -22 44 -21 30 -41 47
-61 51 -16 4 -30 10 -30 15 0 4 -12 11 -26 14 -14 4 -37 14 -50 23 -30 19
-144 74 -144 68z"/>
<path d="M3733 3563 c-37 -15 22 -78 60 -64 23 8 36 31 18 31 -6 0 -11 -4 -11
-10 0 -18 -36 -11 -56 11 -18 20 -18 20 11 13 27 -7 29 -6 16 9 -14 18 -18 19
-38 10z"/>
<path d="M3240 3541 c0 -23 -22 -27 -64 -11 -30 11 -34 0 -8 -23 41 -37 116
-29 105 13 -3 10 -11 25 -19 31 -11 9 -14 7 -14 -10z"/>
<path d="M3846 3533 c-3 -3 22 -23 57 -45 34 -21 54 -38 44 -38 -10 0 -15 -4
-12 -10 3 -5 27 -10 53 -10 35 0 50 5 59 19 16 25 5 34 -20 16 -18 -13 -24
-11 -64 16 -51 36 -108 61 -117 52z"/>
<path d="M3625 3520 c-3 -5 -1 -10 6 -10 32 0 -12 -17 -51 -19 -13 -1 -13 -2
0 -11 24 -15 58 -12 68 8 15 29 -6 59 -23 32z"/>
<path d="M4244 3521 c4 -6 22 -18 39 -27 30 -14 31 -14 12 1 -30 25 -59 39
-51 26z"/>
<path d="M3070 3492 c0 -30 41 -49 72 -34 23 11 23 11 -4 11 -15 1 -36 11 -48
23 l-20 22 0 -22z"/>
<path d="M3816 3473 c-6 -6 25 -28 94 -65 l35 -19 -35 30 c-46 39 -86 62 -94
54z"/>
<path d="M3553 3450 c14 -11 29 -20 34 -20 10 1 -39 39 -51 40 -5 0 3 -9 17
-20z"/>
<path d="M3744 3451 c3 -5 68 -44 143 -86 76 -43 149 -84 161 -92 43 -27 32
-7 -17 30 -26 20 -55 37 -63 37 -8 0 -41 16 -74 36 -134 83 -163 97 -150 75z"/>
<path d="M2974 3411 c11 -17 -24 -26 -45 -13 -24 15 -29 15 -29 -2 0 -18 39
-28 79 -20 35 7 40 36 7 42 -11 3 -16 0 -12 -7z"/>
<path d="M3604 3403 c8 -20 -10 -33 -49 -33 -23 0 -27 -3 -15 -10 21 -13 64
-12 78 2 17 17 15 45 -4 52 -12 5 -15 2 -10 -11z"/>
<path d="M4025 3412 c15 -16 208 -132 212 -128 2 2 -20 26 -49 54 -35 34 -55
47 -60 39 -5 -9 -23 -4 -60 17 -29 16 -48 24 -43 18z"/>
<path d="M3735 3385 l30 -27 -38 4 c-23 3 -36 0 -34 -6 5 -15 46 -20 61 -7 17
14 91 -38 108 -75 11 -23 27 -31 71 -38 9 -1 41 -22 69 -47 77 -66 93 -69 25
-6 -43 41 -56 59 -50 72 5 15 2 17 -17 12 -17 -4 -30 2 -51 22 -15 16 -39 31
-52 35 -14 3 -48 22 -77 41 -70 47 -81 52 -45 20z"/>
<path d="M3770 3390 c33 -26 48 -26 25 0 -10 11 -25 20 -34 20 -12 0 -9 -6 9
-20z"/>
<path d="M3143 3358 c4 -12 2 -15 -9 -11 -16 6 -16 -17 1 -29 19 -14 -26 -8
-55 7 -18 9 -31 11 -35 5 -10 -16 2 -28 41 -40 20 -7 45 -21 55 -31 11 -11 30
-19 43 -19 32 0 76 37 76 63 0 21 -2 20 -23 -7 -18 -22 -32 -29 -56 -28 -40 1
-52 10 -28 23 22 13 22 52 0 70 -15 12 -16 12 -10 -3z"/>
<path d="M2876 3345 c27 -20 51 -20 34 0 -7 8 -22 15 -33 15 -20 0 -20 0 -1
-15z"/>
<path d="M3530 3327 c0 -6 13 -18 29 -25 15 -7 94 -48 174 -91 131 -71 205
-104 181 -82 -5 5 -44 27 -86 50 -42 22 -99 54 -128 71 -28 16 -53 30 -55 30
-3 0 -27 14 -53 30 -55 33 -62 36 -62 17z"/>
<path d="M3730 3279 c26 -18 70 -40 70 -35 0 6 -66 46 -76 46 -5 0 -2 -5 6
-11z"/>
<path d="M2098 3422 c5 -35 53 -92 78 -92 13 0 11 7 -12 38 -16 20 -38 47 -50
60 l-21 23 5 -29z"/>
<path d="M5094 3392 c17 -18 34 -32 40 -32 10 0 -12 23 -49 50 -11 8 -7 0 9
-18z"/>
<path d="M2457 2597 c-10 -26 -9 -55 4 -62 14 -10 15 -6 9 40 -4 30 -7 35 -13
22z"/>
<path d="M3725 2548 c-6 -27 -3 -69 5 -62 5 6 9 84 4 84 -2 0 -6 -10 -9 -22z"/>
<path d="M3805 2549 c-10 -32 -14 -99 -5 -99 7 0 22 111 15 118 -2 2 -6 -7
-10 -19z"/>
<path d="M3849 2538 c0 -18 -2 -41 -4 -50 -4 -22 11 -24 19 -2 10 25 7 84 -4
84 -5 0 -10 -15 -11 -32z"/>
<path d="M2236 2551 c-4 -5 -2 -20 3 -33 9 -21 10 -21 10 10 1 32 -3 39 -13
23z"/>
<path d="M2787 2473 c-4 -3 -7 -18 -7 -32 l1 -26 14 25 c8 14 14 28 15 33 0 9
-14 9 -23 0z"/>
<path d="M4400 2458 c0 -16 5 -28 10 -28 13 0 13 20 0 40 -8 12 -10 9 -10 -12z"/>
<path d="M2432 2396 c5 -35 18 -45 18 -13 0 14 -5 29 -10 32 -7 4 -10 -3 -8
-19z"/>
<path d="M4986 2383 c-2 -10 -12 -65 -22 -123 -16 -102 -32 -162 -34 -130 0
13 -1 13 -10 0 -5 -8 -10 -54 -10 -102 0 -71 3 -88 15 -88 17 0 18 2 49 195
30 186 37 253 26 260 -5 3 -11 -3 -14 -12z"/>
<path d="M2324 2328 c3 -12 12 -61 20 -108 31 -176 55 -302 60 -307 2 -3 9 -2
14 1 10 6 8 48 -8 116 -6 25 -12 54 -14 65 -19 94 -60 246 -67 251 -6 3 -8 -4
-5 -18z"/>
<path d="M3010 2331 c0 -20 13 -35 23 -25 7 8 -4 44 -14 44 -5 0 -9 -9 -9 -19z"/>
<path d="M3507 2331 c-2 -10 -1 -25 4 -32 6 -10 9 -4 9 19 0 36 -5 42 -13 13z"/>
<path d="M1970 2299 c0 -16 4 -28 9 -25 8 5 3 56 -5 56 -2 0 -4 -14 -4 -31z"/>
<path d="M3327 2309 c-7 -27 -1 -37 14 -22 7 7 8 17 2 28 -9 15 -11 15 -16 -6z"/>
<path d="M4620 2304 c0 -8 5 -12 10 -9 6 4 8 11 5 16 -9 14 -15 11 -15 -7z"/>
<path d="M5099 2263 c0 -5 -2 -16 -4 -25 -2 -10 1 -18 6 -18 5 0 9 11 9 25 0
22 -9 37 -11 18z"/>
<path d="M1985 2213 c2 -21 6 -63 9 -93 8 -77 33 -170 46 -170 4 0 2 26 -5 58
-8 31 -16 86 -18 122 -5 61 -20 120 -31 120 -3 0 -3 -17 -1 -37z"/>
<path d="M2563 2210 c-6 -14 -13 -38 -17 -53 -10 -40 10 -25 24 18 14 41 7 72
-7 35z"/>
<path d="M2775 2141 c-11 -33 -13 -56 -7 -67 7 -12 12 -1 21 46 15 77 8 88
-14 21z"/>
<path d="M2327 2110 c3 -11 7 -20 9 -20 2 0 4 9 4 20 0 11 -4 20 -9 20 -5 0
-7 -9 -4 -20z"/>
<path d="M3097 2067 c-3 -7 -2 -19 3 -26 5 -9 9 -8 14 5 4 9 3 21 -2 26 -6 6
-12 4 -15 -5z"/>
<path d="M4337 2061 c-3 -12 -1 -21 3 -21 15 0 23 21 12 32 -6 6 -11 2 -15
-11z"/>
<path d="M3838 2032 c-2 -15 -1 -38 3 -52 4 -14 8 -20 9 -15 10 67 10 95 2 95
-5 0 -12 -12 -14 -28z"/>
<path d="M3468 1985 c-10 -18 -9 -113 2 -120 5 -3 10 2 11 12 1 10 2 29 3 43
3 32 -8 78 -16 65z"/>
<path d="M3620 5282 c0 -5 6 -14 13 -21 10 -11 7 -13 -16 -9 -18 4 -26 1 -24
-6 5 -14 47 -20 58 -9 6 6 7 17 4 26 -7 16 -35 32 -35 19z"/>
<path d="M3877 5249 c16 -16 70 -21 93 -9 29 16 21 21 -16 11 -16 -4 -42 -4
-58 0 -21 6 -26 5 -19 -2z"/>
<path d="M2827 5232 c-19 -2 -27 -8 -25 -19 4 -22 20 -26 42 -10 25 19 17 33
-17 29z"/>
<path d="M651 5195 c47 -37 178 -110 185 -103 8 9 -44 49 -121 93 -95 54 -125
59 -64 10z"/>
<path d="M3155 5220 c17 -7 16 -9 -10 -10 -28 -1 -29 -2 -8 -12 26 -13 53 -4
53 17 0 10 -9 15 -27 14 -25 0 -26 -1 -8 -9z"/>
<path d="M6304 5195 c-68 -34 -149 -93 -141 -102 11 -10 227 116 227 132 0 11
-20 3 -86 -30z"/>
<path d="M4280 5190 c9 -16 8 -20 -5 -20 -9 0 -13 -4 -10 -10 3 -5 15 -10 26
-10 26 0 25 32 -2 48 -19 12 -19 11 -9 -8z"/>
<path d="M4551 5146 c-14 -16 -2 -31 39 -49 34 -14 69 -41 345 -266 72 -58
138 -113 149 -121 10 -8 34 -30 55 -47 20 -18 43 -33 51 -33 16 0 -51 67 -159
160 -160 137 -163 149 -8 33 53 -40 97 -71 97 -68 0 28 -388 324 -408 311 -10
-6 -82 41 -99 65 -16 22 -50 30 -62 15z m43 -14 c2 -4 -4 -8 -14 -8 -10 0 -16
4 -14 8 3 4 9 8 14 8 5 0 11 -4 14 -8z"/>
<path d="M2507 5121 c4 -15 -1 -23 -18 -30 -29 -10 -59 3 -59 26 0 12 -3 14
-11 6 -15 -15 6 -53 29 -54 31 -2 57 3 70 14 15 12 12 49 -5 54 -7 3 -9 -3 -6
-16z"/>
<path d="M3565 5090 c-8 -14 6 -39 26 -45 25 -8 39 2 38 28 l0 22 -9 -22 c-5
-13 -14 -23 -19 -23 -16 0 -24 22 -11 30 8 5 8 9 -4 13 -8 3 -18 2 -21 -3z"/>
<path d="M3125 5041 c6 -19 2 -21 -31 -21 -28 0 -35 -3 -27 -11 15 -15 59 -15
78 1 20 17 19 27 -6 41 -19 10 -20 8 -14 -10z"/>
<path d="M2180 5041 c0 -5 6 -14 14 -20 16 -14 56 1 56 21 0 7 -4 7 -13 0 -8
-7 -18 -7 -27 -2 -19 12 -30 12 -30 1z"/>
<path d="M2770 5009 c0 -10 27 -19 34 -12 11 12 6 19 -14 19 -11 0 -20 -3 -20
-7z"/>
<path d="M4044 4978 c-9 -14 23 -38 42 -31 19 7 18 29 -2 37 -23 9 -32 7 -40
-6z"/>
<path d="M1963 4913 c-23 -9 -15 -35 10 -31 12 2 22 9 22 17 0 16 -14 22 -32
14z"/>
<path d="M2930 4855 c0 -8 4 -15 10 -15 5 0 7 7 4 15 -4 8 -8 15 -10 15 -2 0
-4 -7 -4 -15z"/>
<path d="M2878 4678 c-17 -27 -48 -115 -48 -137 0 -30 21 6 46 78 26 76 27 98
2 59z"/>
<path d="M2680 4640 c-12 -43 -10 -109 2 -116 4 -3 8 7 8 23 1 15 3 52 6 81 7
62 -1 68 -16 12z"/>
<path d="M810 4640 c-7 -16 -15 -30 -19 -31 -3 0 -19 -3 -36 -5 -16 -2 -50 -7
-74 -10 l-44 -6 54 -54 53 -54 -12 -58 c-20 -98 -21 -97 57 -58 l69 35 67 -36
67 -35 -5 33 c-21 132 -23 119 33 177 40 40 48 52 33 53 -10 0 -27 2 -38 4
-11 2 -37 6 -59 8 -36 5 -55 19 -56 41 0 5 -2 7 -5 4 -3 -3 -1 -16 3 -29 8
-19 20 -26 67 -34 l59 -10 -43 -40 c-41 -39 -42 -41 -36 -92 3 -29 2 -53 -2
-53 -5 0 -21 9 -38 20 -38 25 -56 25 -97 0 -18 -11 -37 -20 -41 -20 -5 0 -5
23 -2 51 7 50 6 52 -35 94 l-42 43 54 7 c51 6 57 10 72 42 9 20 15 37 13 40
-2 2 -10 -10 -17 -27z"/>
<path d="M6109 4641 c-10 -22 -22 -32 -44 -36 -35 -5 -106 -14 -120 -15 -5 0
15 -24 44 -54 l54 -55 -11 -57 c-21 -100 -21 -99 55 -60 l68 34 69 -35 69 -35
-7 39 c-20 120 -22 113 34 171 29 28 50 52 48 52 -132 9 -154 16 -168 50 -7
17 -15 29 -17 27 -2 -3 4 -20 13 -39 15 -32 22 -36 72 -44 l56 -9 -43 -40
c-42 -40 -42 -41 -36 -92 4 -29 5 -53 2 -53 -2 0 -24 11 -49 24 l-45 24 -39
-24 c-21 -13 -43 -24 -48 -24 -4 0 -5 24 -2 53 7 53 7 54 -34 91 -23 21 -40
39 -38 40 1 2 25 7 52 12 41 7 53 15 69 42 11 18 17 35 14 38 -3 3 -11 -9 -18
-25z"/>
<path d="M3315 4640 c-9 -15 3 -77 16 -86 7 -4 8 10 3 42 -8 56 -9 60 -19 44z"/>
<path d="M4000 4588 c0 -15 5 -30 11 -33 16 -11 17 -2 3 30 l-13 30 -1 -27z"/>
<path d="M2018 4499 c-9 -22 2 -100 18 -131 18 -34 38 -38 28 -5 -4 12 -15 51
-24 87 -9 37 -19 58 -22 49z"/>
<path d="M83 4030 c122 -53 471 -159 483 -147 14 13 -495 179 -543 177 -4 -1
22 -14 60 -30z"/>
<path d="M6870 4034 c-176 -46 -474 -153 -428 -154 26 0 251 68 388 117 188
68 200 79 40 37z"/>
<path d="M407 3537 c-15 -27 -25 -34 -55 -36 -20 -2 -46 -4 -57 -6 -11 -1 -29
-3 -40 -4 -16 -1 -9 -11 34 -55 l53 -53 -15 -77 c-7 -42 -12 -76 -10 -76 2 0
34 15 71 34 l68 34 64 -34 c36 -19 66 -30 68 -25 1 4 -3 38 -11 74 l-13 66 48
52 c27 28 48 52 46 54 -5 5 -59 13 -95 14 -19 1 -40 10 -53 23 -21 23 -26 18
-10 -12 6 -12 26 -20 60 -25 27 -4 50 -9 50 -12 0 -3 -18 -26 -40 -50 -23 -24
-39 -47 -36 -51 2 -4 7 -24 10 -44 7 -44 -5 -49 -44 -18 -32 25 -42 25 -90 0
-22 -11 -42 -20 -46 -20 -3 0 -3 24 0 53 7 52 6 52 -36 92 l-43 40 56 8 c51 8
58 12 73 44 22 45 16 53 -7 10z"/>
<path d="M6507 3534 c-10 -19 -23 -34 -30 -32 -6 1 -40 -1 -75 -6 l-63 -7 50
-52 c56 -57 56 -57 40 -141 -6 -32 -8 -60 -6 -63 3 -2 33 12 68 31 l62 35 69
-35 c77 -39 76 -41 57 61 l-11 58 53 53 c43 43 49 54 34 55 -11 0 -32 3 -47 5
-16 2 -40 6 -55 8 -16 2 -31 5 -34 5 -4 1 -12 15 -19 31 -7 17 -15 29 -17 27
-2 -3 4 -20 13 -39 15 -32 22 -36 73 -44 l56 -9 -43 -40 c-43 -39 -43 -39 -36
-92 3 -29 4 -53 1 -53 -3 0 -24 10 -46 22 l-41 22 -45 -22 c-25 -12 -48 -22
-51 -22 -2 0 -2 23 2 51 7 50 6 51 -37 95 l-43 44 27 1 c15 1 32 3 37 4 6 1
19 3 30 4 13 1 25 14 35 38 20 47 14 53 -8 7z"/>
<path d="M517 2697 c-122 -63 -267 -154 -361 -228 -27 -22 -46 -39 -43 -39 6
0 45 21 77 41 14 9 122 74 240 144 118 70 219 131 225 136 24 23 -24 4 -138
-54z"/>
<path d="M6340 2756 c0 -2 15 -13 33 -24 251 -150 508 -302 513 -302 9 0 -44
42 -121 97 -90 64 -239 151 -337 197 -74 35 -88 40 -88 32z"/>
<path d="M891 2450 c11 -29 23 -43 44 -46 6 -1 25 -4 43 -7 19 -3 36 -7 38
-10 3 -2 -14 -20 -37 -40 l-41 -37 7 -55 6 -55 -46 25 -47 24 -50 -25 -50 -25
7 56 7 55 -42 39 -43 39 39 7 c59 10 81 21 87 47 l6 23 -17 -23 c-14 -18 -31
-24 -82 -29 -36 -3 -67 -7 -69 -9 -3 -3 17 -27 44 -54 l48 -49 -12 -71 c-7
-39 -11 -74 -8 -76 3 -3 33 9 68 27 l63 31 64 -31 c35 -18 66 -30 68 -28 3 2
-1 37 -7 76 l-12 72 54 55 53 54 -34 1 c-100 2 -140 15 -140 45 0 7 -4 15 -10
19 -5 3 -5 -7 1 -25z"/>
<path d="M6105 2450 c-11 -22 -23 -30 -43 -31 -15 0 -36 -2 -47 -5 -11 -2 -32
-5 -47 -6 -27 -2 -27 -2 23 -54 54 -58 54 -57 38 -138 -7 -31 -9 -59 -6 -62 3
-3 33 9 67 27 l61 33 65 -32 c35 -18 67 -32 70 -32 3 0 2 17 -1 38 -19 119
-21 110 31 163 26 27 46 50 43 53 -2 2 -33 7 -69 10 -39 3 -69 11 -75 20 -5 8
-15 23 -22 33 -10 14 -10 11 -1 -15 11 -36 29 -47 93 -57 l39 -7 -43 -38 -43
-39 7 -56 6 -55 -47 25 -47 25 -50 -25 -49 -26 7 56 6 57 -42 38 -42 37 58 14
c49 12 59 19 70 47 18 40 11 42 -10 2z"/>
<path d="M3731 1508 c-73 -20 -131 -75 -155 -146 -13 -37 -16 -102 -16 -364 0
-202 4 -335 11 -363 15 -59 77 -129 134 -150 53 -21 146 -23 199 -6 58 20 112
74 136 137 17 48 20 78 20 239 l0 185 -125 0 -125 0 0 -74 0 -75 47 -3 46 -3
-1 -103 c-1 -115 -12 -145 -60 -163 -19 -7 -38 -7 -63 0 -61 18 -64 38 -62
363 0 155 1 295 2 309 3 72 101 106 155 53 21 -22 26 -37 27 -80 1 -30 2 -60
3 -66 1 -9 24 -13 76 -13 l75 0 -1 85 c-1 69 -6 92 -25 125 -45 79 -108 116
-203 120 -33 1 -76 -2 -95 -7z"/>
<path d="M1772 1501 c-4 -4 -7 -234 -7 -513 l0 -508 154 0 c170 0 212 8 266
52 56 47 77 99 83 204 6 122 -13 188 -69 238 l-40 37 24 20 c14 10 35 40 48
66 32 66 32 210 -1 277 -26 55 -81 103 -135 118 -41 11 -309 18 -323 9z m301
-169 c19 -20 22 -33 22 -112 0 -115 -13 -132 -110 -138 l-64 -4 0 140 0 139
65 -1 c52 -2 69 -7 87 -24z m-9 -413 c36 -17 50 -61 48 -152 -3 -86 -11 -110
-43 -128 -21 -11 -114 -19 -136 -11 -8 2 -12 48 -12 153 l0 149 59 0 c32 0 70
-5 84 -11z"/>
<path d="M2372 1500 c-4 -3 -7 -138 -6 -300 l1 -295 26 -50 c42 -82 112 -124
207 -125 78 0 122 15 169 58 73 66 78 92 77 427 l-1 290 -60 0 c-101 1 -92 30
-92 -286 0 -302 -3 -320 -52 -337 -56 -19 -106 9 -115 65 -3 21 -5 152 -5 292
0 139 -3 256 -6 259 -8 8 -133 10 -143 2z"/>
<path d="M2982 1501 c-5 -3 -9 -229 -9 -513 l0 -508 79 0 78 0 0 210 0 210 40
0 c38 0 40 -2 50 -42 16 -61 57 -210 81 -300 l22 -78 78 0 c44 0 79 3 79 6 0
6 -53 196 -108 386 l-19 66 28 21 c53 39 72 93 77 217 5 135 -11 203 -60 253
-59 61 -104 73 -265 76 -78 1 -146 -1 -151 -4z m279 -155 c28 -12 41 -52 41
-127 1 -114 0 -118 -27 -144 -20 -21 -34 -25 -85 -25 l-60 0 0 155 0 155 58
-4 c31 -2 64 -7 73 -10z"/>
<path d="M4177 1503 c-4 -3 -7 -179 -7 -390 l0 -383 223 0 222 0 -1 64 c-1 35
-4 68 -7 73 -3 4 -67 8 -141 8 l-136 -1 0 53 0 52 77 3 78 3 0 70 0 70 -79 5
-78 5 0 68 c1 37 1 87 1 112 l1 45 140 0 c157 0 142 -9 142 80 0 22 -1 47 -1
55 -1 13 -32 15 -214 15 -118 0 -217 -3 -220 -7z"/>
<path d="M4712 1501 c-4 -3 -7 -233 -7 -511 l0 -505 78 -3 77 -3 1 53 c0 29 0
124 0 211 l1 158 40 -3 41 -3 55 -207 56 -208 78 0 c51 0 78 4 78 11 0 6 -28
107 -61 225 l-62 213 40 45 c52 59 63 101 63 237 0 99 -3 121 -24 165 -24 53
-66 91 -124 114 -32 13 -314 22 -330 11z m302 -171 c18 -18 21 -32 21 -126 0
-103 -1 -106 -28 -130 -23 -20 -39 -24 -87 -24 l-60 0 1 148 c1 81 3 150 5
154 3 4 32 6 66 3 45 -3 67 -9 82 -25z"/>
<path d="M2404 632 c-18 -3 -20 -9 -19 -80 l1 -77 219 0 220 0 0 79 0 80 -200
0 c-110 1 -209 0 -221 -2z"/>
<path d="M4179 629 c-6 -3 -9 -39 -7 -80 l3 -74 218 0 c119 0 217 2 218 5 6
37 2 143 -6 148 -13 8 -414 9 -426 1z"/>
</g>
</svg>
